<svg id="Shape" xmlns="http://www.w3.org/2000/svg" viewBox="0 0 1500 1500"><path fill="#fff" d="M1250,281.9a2.52,2.52,0,0,1-1.58-.56c-10.29-8.33-17.4-16.49-25.64-25.94l-3.27-3.74a2.51,2.51,0,1,1,3.77-3.32l3.29,3.76c8.08,9.27,15.06,17.28,25,25.33a2.52,2.52,0,0,1-1.58,4.47Z"/><path fill="#fff" d="M1250,352.75a2.53,2.53,0,0,1-1-.19c-41.25-17-68.32-56.44-92.2-91.23-2.29-3.33-4.56-6.64-6.82-9.9a2.51,2.51,0,0,1,4.13-2.86c2.27,3.26,4.54,6.58,6.83,9.92,24.64,35.88,50.11,73,90,89.43a2.51,2.51,0,0,1-1,4.83Z"/><path fill="#fff" d="M1250,423.34l-.26,0c-70.3-7.42-114.49-81.5-150-141-6.59-11.05-12.82-21.49-18.88-30.94a2.51,2.51,0,0,1,4.23-2.72c6.1,9.52,12.35,20,19,31.09,34.93,58.56,78.41,131.44,146.2,138.6a2.51,2.51,0,0,1-.26,5Z"/><path fill="#fff" d="M1245.11,493.76c-46.39,0-81.88-18.17-114.54-58.43-30.27-37.32-55.81-80.2-80.5-121.66-12.34-20.71-25.09-42.12-38.14-62.31a2.51,2.51,0,1,1,4.22-2.72c13.1,20.26,25.87,41.71,38.23,62.46,24.61,41.31,50,84,80.09,121.06,32.74,40.36,68.34,57.81,115.46,56.51h.07a2.51,2.51,0,0,1,.07,5C1248.4,493.73,1246.75,493.76,1245.11,493.76Z"/><path fill="#fff" d="M1219.53,566.07c-52.38,0-91.35-21.56-123.83-67.62-15.41-21.84-29-45.41-42.07-68.21q-4.7-8.16-9.4-16.29c-26.77-46-62.45-106.06-101.08-162.53a2.51,2.51,0,1,1,4.14-2.84c38.73,56.61,74.47,116.76,101.28,162.85q4.74,8.13,9.42,16.31c13,22.69,26.54,46.17,41.81,67.81,37.34,52.94,83.56,72.46,149.86,63.3a2.51,2.51,0,0,1,.68,5A224.79,224.79,0,0,1,1219.53,566.07Z"/><path fill="#fff" d="M1183.06,640.24c-22.12,0-43.82-3.74-64.16-15.66-26.55-15.54-44.26-41.74-58.09-65.33-12.12-20.65-23.27-42.28-34.06-63.2-7.48-14.49-15.2-29.47-23.17-44-39.39-71.71-82.9-139.19-129.31-200.57a2.51,2.51,0,0,1,4-3c46.55,61.56,90.19,129.25,129.7,201.17,8,14.56,15.74,29.57,23.23,44.09,10.76,20.85,21.88,42.42,33.93,63,13.5,23,30.75,48.58,56.29,63.54,36.37,21.29,78.07,15.29,118.41,9.5q4.92-.72,9.81-1.4a2.51,2.51,0,1,1,.7,5l-9.8,1.4C1221.49,637.46,1202.12,640.24,1183.06,640.24Z"/><path fill="#fff" d="M1169.15,705.79c-8.53,0-17-.16-25.44-.55l-5.15-.22c-17.33-.72-37-1.53-52-9.57-30.86-16.54-48.78-55-60.64-80.48-6.7-14.38-13.23-29.08-19.54-43.3-12.45-28-25.31-57-40-84.59A1256.77,1256.77,0,0,0,805.36,251.65a2.52,2.52,0,0,1,3.8-3.3,1262.45,1262.45,0,0,1,161.7,236.37c14.73,27.77,27.63,56.82,40.11,84.91,6.3,14.2,12.83,28.88,19.5,43.22,11.58,24.86,29.08,62.42,58.47,78.17,14,7.5,33,8.29,49.82,9l5.18.22c35.47,1.64,72.89-.71,105.9-2.79a2.52,2.52,0,0,1,.32,5C1224.81,704,1196.87,705.79,1169.15,705.79Z"/><path fill="#fff" d="M1250,771.49h0c-8.22-.11-16.47-.14-25.2-.18-55.85-.23-119.14-.49-171.07-21.51-38.13-15.44-49.65-48.94-61.84-84.41l-.81-2.36c-16.87-49-34.32-99.68-58.09-147.85-44.39-89.94-108.67-176.1-196.49-263.4a2.51,2.51,0,0,1,3.54-3.56C828.24,335.91,892.82,422.51,937.46,513c23.91,48.45,41.41,99.28,58.34,148.44l.81,2.35c12.32,35.85,23,66.81,59,81.39,51,20.66,113.81,20.92,169.2,21.15,8.74,0,17,.07,25.24.18a2.51,2.51,0,0,1,0,5Z"/><path fill="#fff" d="M1250,840.5h-.21c-8.79-.72-17.62-1.39-27-2.09-67.08-5-143.12-10.75-202.9-41.08-39.48-20-53.26-50.33-63.73-95.9-16.72-72.83-35-126.72-59.27-174.74-47.41-93.83-120.3-181.14-229.38-274.77a2.51,2.51,0,0,1,3.27-3.82C780.42,342.18,853.69,430,901.42,524.42c24.45,48.39,42.86,102.64,59.68,175.87,10.13,44.12,23.38,73.41,61.11,92.55,58.88,29.87,134.38,35.55,201,40.55,9.36.7,18.19,1.37,27,2.1a2.51,2.51,0,0,1-.21,5Z"/><path fill="#fff" d="M1250,909.53l-.36,0c-8.25-1.18-16.68-2.35-25.24-3.54-81.79-11.35-174.5-24.21-243.11-68.5-43.66-28.18-54.79-70.87-59.91-108.92-10.21-75.87-27.87-136.34-55.58-190.32-28-54.6-66.3-106.24-117-157.88C708.74,339.49,661,298.71,598.54,252a2.51,2.51,0,1,1,3-4c62.65,46.86,110.59,87.8,150.87,128.83,51,52,89.58,104.05,117.85,159.11,28,54.5,45.8,115.49,56.09,191.94,3.36,25,8.65,44,16.64,60,9.4,18.78,22.81,33.62,41,45.36,67.68,43.69,159.8,56.47,241.08,67.74,8.57,1.19,17,2.36,25.27,3.55a2.51,2.51,0,0,1-.36,5Z"/><path fill="#fff" d="M1250,978.36a2.28,2.28,0,0,1-.57-.07c-16.66-3.84-33.45-7.42-51.23-11.2C1108.63,948,1016,928.33,944.72,874.33c-47.81-36.21-56.19-83.79-58.13-129.82-3.31-78.63-20.94-145.84-53.9-205.47-31-56-74.93-108.58-134.44-160.68-51.9-45.44-109.81-85.67-169.53-126.28a2.51,2.51,0,0,1,2.82-4.16c59.86,40.71,117.9,81,170,126.66,60,52.5,104.28,105.5,135.53,162,33.34,60.32,51.17,128.26,54.52,207.69,3.19,75.8,28.87,105.37,56.14,126,70.4,53.32,162.46,72.91,251.5,91.85,17.79,3.78,34.61,7.36,51.32,11.22a2.51,2.51,0,0,1-.57,5Z"/><path fill="#fff" d="M1250,1047.23a2.62,2.62,0,0,1-.82-.14c-36.61-12.67-74.48-24.57-111.1-36.08-39.11-12.3-79.55-25-118.63-38.7-40.21-14.08-80.66-38.16-113.88-67.79-23.72-21.15-39.91-44.6-48.14-69.68-7.55-23-6.74-47.44-6-71.08.13-3.71.25-7.42.34-11.1,2.11-86.14-14.59-155-52.55-216.86C730.84,424.38,615.82,351.7,504.58,281.4c-15.2-9.6-30.92-19.54-46.05-29.29a2.51,2.51,0,0,1,2.72-4.22c15.11,9.74,30.82,19.67,46,29.27,111.72,70.6,227.24,143.6,296.27,256C842,595.85,859,665.63,856.83,752.78c-.09,3.7-.21,7.42-.33,11.15-.77,23.2-1.57,47.18,5.7,69.34,7.95,24.23,23.67,46.94,46.72,67.5,32.74,29.2,72.58,52.93,112.19,66.8,39,13.66,79.41,26.36,118.48,38.65,36.65,11.52,74.55,23.43,111.23,36.12a2.51,2.51,0,0,1-.82,4.89Z"/><path fill="#fff" d="M1250,1116.24a2.47,2.47,0,0,1-1.08-.25c-49.72-23.71-101.69-44.83-151.94-65.26-28.49-11.58-57.94-23.55-86.65-35.86l-4.52-1.94c-48.69-20.85-99-42.4-137.42-81.81-28-28.79-44.71-55.54-51-81.78-6-25.38-3.77-52.86-1.57-79.43.43-5.19.83-10.08,1.18-15l.43-6c2.31-32.33,4.71-65.76-.72-97.73-6.46-38-23.72-78.38-49.92-116.81-36.23-53.14-87.13-91.72-140.51-129.79-50.53-36.05-104-69-155.66-100.88-27.14-16.73-55.19-34-82.58-51.62a2.51,2.51,0,0,1,2.72-4.22c27.34,17.56,55.38,34.85,82.49,51.57,51.76,31.91,105.28,64.91,156,101.06C683,438.87,734.29,477.75,771,531.57c26.61,39,44.15,80.1,50.72,118.8,5.53,32.57,3.12,66.3.78,98.93l-.43,6c-.35,4.94-.77,10.08-1.18,15.05-2.17,26.18-4.41,53.26,1.45,77.85,6,25.34,22.28,51.33,49.67,79.44,37.69,38.69,87.56,60,135.8,80.71l4.51,1.93c28.68,12.29,58.11,24.26,86.57,35.83,50.32,20.45,102.36,41.61,152.21,65.38a2.51,2.51,0,0,1-1.08,4.78Z"/><path fill="#fff" d="M1250,1185.43a2.5,2.5,0,0,1-1.36-.4c-58.86-37.87-122.68-68.74-184.4-98.6-16.31-7.89-33.18-16-49.73-24.23q-9.1-4.5-18.41-9c-56.2-27.52-114.31-56-159.35-97.75-27.86-25.84-45.12-56.55-52.77-93.89-7.42-36.18-5-75-1.71-108.23,6.31-63.06,1.91-97.54-1.95-118-7.75-41.08-24.46-75.28-51.09-104.56-46.83-51.48-106.58-90.91-168.81-130.08-31.5-19.83-64.09-38.78-95.6-57.11-49.1-28.55-99.88-58.07-147.52-91.5a2.51,2.51,0,0,1,2.88-4.12c47.47,33.31,98.15,62.78,147.16,91.28,31.55,18.35,64.18,37.32,95.75,57.2,62.55,39.36,122.6,79,169.86,131,27.27,30,44.38,65,52.31,107,8.17,43.32,5.06,88.9,2,119.41-3.28,32.84-5.65,71.2,1.63,106.72,7.44,36.28,24.2,66.12,51.27,91.22,44.49,41.27,102.27,69.56,158.14,96.92q9.3,4.55,18.43,9c16.53,8.17,33.39,16.32,49.69,24.21,61.85,29.92,125.81,60.86,184.93,98.9a2.51,2.51,0,0,1-1.36,4.62Z"/><path fill="#fff" d="M1250,1252.51a2.47,2.47,0,0,1-1.68-.65c-64.07-57.88-141.53-98.18-216.43-137.15C958.2,1076.37,882,1036.71,818,980.2c-40.44-35.73-64-74.27-72-117.83-6.82-37.08-2.67-75,1.34-111.6l.23-2.11c4-36.27,8.07-73.77,1.39-110.12-7.79-42.41-30.81-80-70.38-115C615.14,467.45,539.21,428,465.78,389.74c-75.18-39.11-152.91-79.56-217.46-137.88a2.51,2.51,0,1,1,3.36-3.72C315.75,306,393.2,346.32,468.1,385.29c73.7,38.34,149.91,78,213.86,134.5,40.44,35.74,64,74.28,72,117.84,6.81,37.08,2.67,75-1.34,111.58l-.23,2.11c-4,36.27-8.07,73.78-1.39,110.15,7.79,42.4,30.81,80,70.37,115,63.49,56.1,139.42,95.61,212.85,133.81,75.18,39.12,152.93,79.57,217.47,137.89a2.51,2.51,0,0,1-1.68,4.37Z"/><path fill="#fff" d="M1181.25,1252.51a2.57,2.57,0,0,1-1.44-.45c-46.86-32.89-96.89-62-145.27-90.1-29.57-17.19-60.14-35-89.79-53.49-68.55-42.8-129.23-82.57-177.7-135.84-27.28-30-44.39-65-52.32-107-8.16-43.32-5.05-88.89-2-119.41,3.28-32.87,5.66-71.25-1.57-106.77C703.74,603,687,573.15,659.84,548.28c-44.1-40.47-100.53-68.37-155.1-95.35l-13.66-6.77c-18.8-9.34-38-18.63-56.58-27.61C372.33,388.49,308,357.4,248.64,319.19a2.51,2.51,0,0,1,2.72-4.23C310.5,353,374.65,384,436.69,414c18.58,9,37.8,18.28,56.63,27.64L507,448.42c54.88,27.14,111.64,55.21,156.27,96.16,27.91,25.61,45.2,56.32,52.84,93.86,7.37,36.17,5,75,1.64,108.27-4.86,48.66-4.26,85,1.95,118,7.75,41.08,24.46,75.28,51.1,104.56,48,52.8,108.42,92.36,176.64,135,29.58,18.48,60.12,36.23,89.65,53.4,48.47,28.18,98.6,57.32,145.64,90.33a2.51,2.51,0,0,1-1.45,4.57Z"/><path fill="#fff" d="M1110.56,1252.51a2.5,2.5,0,0,1-1.36-.4c-27.35-17.56-55.39-34.85-82.5-51.57-51.76-31.91-105.28-64.91-155.94-101.06C816.94,1061.09,765.6,1022.17,729,968.43c-26.39-38.77-43.93-79.85-50.71-118.79-5.6-32.13-3.19-65.52-.86-97.82l.51-7.09c.34-5,.77-10.11,1.19-15.09,2.16-26.17,4.4-53.22-1.45-77.81-6-25.07-22.69-51.8-49.68-79.44-37.82-38.74-87.81-60.15-136.16-80.86l-4.16-1.78c-28.66-12.29-58.08-24.25-86.54-35.82-50.33-20.46-102.37-41.61-152.23-65.39a2.51,2.51,0,0,1,2.16-4.54c49.73,23.72,101.7,44.85,152,65.28,28.47,11.58,57.91,23.55,86.62,35.85l4.16,1.79c48.8,20.9,99.26,42.51,137.78,82,27.63,28.3,44.78,55.82,51,81.78,6,25.38,3.77,52.84,1.57,79.39-.43,5.2-.84,10.11-1.18,15l-.51,7.1c-2.31,32-4.7,65.08.8,96.6,6.66,38.24,23.92,78.64,49.92,116.83,36.12,53,87.07,91.66,140.5,129.78,50.53,36,104,69,155.66,100.87,27.14,16.74,55.2,34,82.59,51.63a2.51,2.51,0,0,1-1.36,4.62Z"/><path fill="#fff" d="M1040.11,1252.51a2.5,2.5,0,0,1-1.36-.4c-15.13-9.75-30.86-19.69-46.07-29.3-111.7-70.58-227.2-143.57-296.23-256C658,904.15,641,834.37,643.17,747.22c.09-3.94.23-7.91.37-11.89.76-22,1.56-44.81-4.84-65.84C631,644.3,615,620.66,591.08,599.23c-32.52-29.12-72.36-52.84-112.19-66.8-39-13.66-79.4-26.36-118.46-38.64-36.66-11.53-74.57-23.44-111.25-36.13a2.51,2.51,0,0,1,1.64-4.75c36.62,12.67,74.49,24.57,111.11,36.09,39.11,12.29,79.55,25,118.62,38.69,40.44,14.17,80.88,38.25,113.88,67.8,24.63,22,41.14,46.46,49.08,72.54,6.64,21.83,5.83,45,5,67.47-.14,4-.28,7.92-.37,11.84-2.11,86.14,14.59,155,52.54,216.86,68.42,111.42,183.42,184.09,294.64,254.36,15.22,9.62,30.95,19.57,46.1,29.33a2.51,2.51,0,0,1-1.36,4.62Z"/><path fill="#fff" d="M969.87,1252.51a2.51,2.51,0,0,1-1.41-.43c-59-40.13-116.24-79.86-167.73-124.64C741.49,1075.92,697.37,1024,665.85,968.72c-35.22-61.78-54-131.46-57.46-213-1.22-29-4.95-50.19-12.1-68.74-8.41-21.84-21.87-39.83-41.14-55-70-55.08-163.44-74.88-253.84-94-18-3.82-35-7.42-51.88-11.31a2.52,2.52,0,0,1,1.14-4.9c16.79,3.88,33.78,7.48,51.78,11.3,86.72,18.37,185,39.2,255.9,95,45.26,35.62,53.26,82.32,55.16,127.48,3.41,80.75,22,149.69,56.81,210.75,31.23,54.79,75,106.28,133.8,157.42,51.29,44.6,108.38,84.23,167.26,124.27a2.51,2.51,0,0,1,.66,3.49A2.48,2.48,0,0,1,969.87,1252.51Z"/><path fill="#fff" d="M900,1252.51a2.51,2.51,0,0,1-1.51-.5c-61.61-46.07-108.85-86.3-148.65-126.58-50.36-51-88.66-101.91-117.12-155.77-29.71-56.25-48.47-119-59-197.53-3.28-24.36-8.3-43-15.79-58.55a110.88,110.88,0,0,0-39-45c-67-45.2-160.22-58.06-242.46-69.4-9.29-1.28-18.06-2.49-26.79-3.75a2.51,2.51,0,1,1,.72-5c8.71,1.25,17.48,2.46,26.76,3.74,82.78,11.42,176.61,24.36,244.57,70.21,41.21,27.8,51.9,69.7,56.93,107,10.48,77.91,29.08,140.14,58.5,195.85,28.22,53.43,66.25,104,116.25,154.59C793,1162,840.05,1202.07,901.46,1248a2.51,2.51,0,0,1-1.5,4.52Z"/><path fill="#fff" d="M830.81,1252.51a2.51,2.51,0,0,1-1.63-.6c-107.77-92.51-180.1-178.45-227.64-270.45-26-50.37-45.34-106.43-62.63-181.76-13.08-57-31.25-76.5-58.22-91-58.34-31.36-134.83-37-202.32-42-9.91-.73-19.28-1.42-28.58-2.19a2.51,2.51,0,0,1,.42-5c9.27.77,18.63,1.46,28.53,2.19,68,5,145,10.72,204.33,42.58,41.17,22.13,52.22,57.23,60.73,94.3C561,873.48,580.18,929.17,606,979.15c47.22,91.41,119.17,176.87,226.44,268.94a2.51,2.51,0,0,1-1.64,4.42Z"/><path fill="#fff" d="M761.75,1252.51a2.49,2.49,0,0,1-1.77-.73c-86.41-85.9-150-170.49-194.42-258.63-25.69-51-44.64-106-61.35-154.55l-1.3-3.76c-11.31-33-22-64.1-55.55-78.71C396.56,734,332.84,733.85,276.63,733.7c-9.25,0-18-.05-26.66-.16a2.51,2.51,0,0,1,0-5h0c8.65.11,17.38.13,26.61.16,56.71.15,121,.31,172.73,22.84C485,767,496,799.17,507.67,833.21L509,837c16.66,48.4,35.55,103.26,61.08,153.93,44.17,87.65,107.46,171.82,193.48,257.33a2.51,2.51,0,0,1-1.77,4.29Z"/><path fill="#fff" d="M692.74,1252.51a2.52,2.52,0,0,1-1.9-.86,1262,1262,0,0,1-161.7-236.38c-14.72-27.76-27.62-56.79-40.09-84.87-6.31-14.21-12.84-28.9-19.52-43.25C458,862.29,440.46,824.74,411.06,809c-14.06-7.54-32.86-8.3-49.46-9l-5.54-.23c-35.46-1.64-72.88.71-105.9,2.79a2.52,2.52,0,1,1-.32-5c33.15-2.08,70.72-4.44,106.45-2.79l5.52.23c17.13.69,36.55,1.48,51.63,9.56,30.87,16.54,48.79,55,60.64,80.47,6.71,14.39,13.24,29.1,19.56,43.33,12.44,28,25.3,56.95,39.94,84.56a1256.9,1256.9,0,0,0,161,235.43,2.51,2.51,0,0,1-1.89,4.16Z"/><path fill="#fff" d="M623.72,1252.51a2.48,2.48,0,0,1-2-1c-46.56-61.57-90.2-129.26-129.7-201.17-8-14.56-15.75-29.58-23.23-44.1-10.76-20.85-21.88-42.42-33.93-63-13.5-23-30.75-48.57-56.29-63.53-36.38-21.29-78-15.3-118.31-9.51-3.31.48-6.62,1-9.91,1.42a2.51,2.51,0,0,1-.7-5l9.9-1.41c41.13-5.91,83.66-12,121.56,10.15,26.54,15.54,44.26,41.74,58.09,65.32,12.11,20.66,23.26,42.28,34.05,63.2,7.47,14.49,15.2,29.48,23.17,44,39.39,71.7,82.89,139.18,129.3,200.57a2.5,2.5,0,0,1-2,4Z"/><path fill="#fff" d="M554.78,1252.51a2.49,2.49,0,0,1-2.07-1.09c-26.15-38.22-50.06-79.32-73.18-119.07-24.94-42.87-50.72-87.2-79.33-127.91-37.21-53-83.43-72.47-149.86-63.29a2.51,2.51,0,0,1-.68-5c68.52-9.47,116.22,10.7,154.65,65.38,28.73,40.88,54.57,85.31,79.56,128.28,23.08,39.66,46.94,80.68,73,118.75a2.51,2.51,0,0,1-2.07,3.93Z"/><path fill="#fff" d="M486,1252.51a2.5,2.5,0,0,1-2.11-1.15c-13.1-20.26-25.87-41.71-38.23-62.46-24.61-41.31-50.05-84-80.09-121.07-32.74-40.35-68.36-57.81-115.46-56.5H250a2.51,2.51,0,0,1-.07-5c48.81-1.34,85.68,16.67,119.5,58.36,30.27,37.32,55.8,80.2,80.5,121.66,12.34,20.71,25.09,42.12,38.14,62.31a2.51,2.51,0,0,1-.74,3.47A2.56,2.56,0,0,1,486,1252.51Z"/><path fill="#fff" d="M417,1252.51a2.52,2.52,0,0,1-2.11-1.15c-6.17-9.63-12.43-20.09-19.05-31.17-34.72-58.06-77.93-130.31-146.16-138.53a2.51,2.51,0,1,1,.6-5c70.68,8.5,114.59,81.93,149.87,140.93,6.6,11,12.84,21.47,19,31a2.51,2.51,0,0,1-2.11,3.87Z"/><path fill="#fff" d="M347.92,1252.51a2.52,2.52,0,0,1-2.07-1.08c-2.3-3.31-4.6-6.67-6.92-10-24.58-35.81-50-72.84-89.89-89.3a2.52,2.52,0,0,1,1.92-4.65c41.27,17,68.28,56.39,92.11,91.11q3.46,5.06,6.91,10a2.51,2.51,0,0,1-.63,3.49A2.47,2.47,0,0,1,347.92,1252.51Z"/><path fill="#fff" d="M278.61,1252.51a2.51,2.51,0,0,1-1.89-.85c-1.13-1.28-2.22-2.54-3.29-3.77-8.08-9.27-15.06-17.27-25-25.32a2.51,2.51,0,0,1,3.16-3.91c10.29,8.33,17.4,16.49,25.64,25.93l3.27,3.75a2.51,2.51,0,0,1-1.88,4.17Z"/></svg>