<?xml version="1.0" encoding="UTF-8"?>
<svg width="197px" height="152px" viewBox="0 0 197 152" version="1.1" xmlns="http://www.w3.org/2000/svg" xmlns:xlink="http://www.w3.org/1999/xlink">
    <title>Group 322</title>
    <defs>
        <polygon id="path-1" points="-1.42108547e-14 0 113.74 0 113.74 2.298 -1.42108547e-14 2.298"></polygon>
        <path d="M37.3394843,0 L74.1804843,25.328 C74.7034843,25.688 74.8354843,26.403 74.4764843,26.926 C74.2534843,27.25 73.8934843,27.4240461 73.5284843,27.4240461 C73.3034843,27.4240461 73.0774843,27.359 72.8784843,27.222 L37.3394843,2.789 L1.79948428,27.222 C1.27748428,27.581 0.562484278,27.449 0.202484278,26.926 C-0.157515722,26.403 -0.0245157223,25.688 0.498484278,25.328 L37.3394843,0 Z" id="path-3"></path>
        <polygon id="path-5" points="0 0 2.298 0 2.298 6.164 0 6.164"></polygon>
        <polygon id="path-7" points="29.584 1.13686838e-13 29.584 20.835 -1.42108547e-14 20.835 -1.42108547e-14 18.537 27.286 18.537 27.286 1.13686838e-13"></polygon>
        <polygon id="path-9" points="0 0 2.297 0 2.297 6.164 0 6.164"></polygon>
        <polygon id="path-11" points="2.297 1.13686838e-13 2.297 18.537 29.584 18.537 29.584 20.835 0 20.835 0 1.13686838e-13"></polygon>
        <path d="M11.489,0 C12.124,0 12.638,0.515 12.638,1.149 L12.638,14.074 C12.638,14.709 12.124,15.223 11.489,15.223 L1.149,15.223 C0.515,15.223 0,14.709 0,14.074 L0,1.149 C0,0.515 0.515,0 1.149,0 L11.489,0 Z M10.34,2.298 L2.298,2.298 L2.298,12.925 L10.34,12.925 L10.34,2.298 Z" id="path-13"></path>
        <path d="M11.489,0 C12.124,0 12.638,0.515 12.638,1.149 L12.638,14.074 C12.638,14.709 12.124,15.223 11.489,15.223 L1.149,15.223 C0.515,15.223 2.84217094e-14,14.709 2.84217094e-14,14.074 L2.84217094e-14,1.149 C2.84217094e-14,0.515 0.515,0 1.149,0 L11.489,0 Z M10.34,2.298 L2.298,2.298 L2.298,12.925 L10.34,12.925 L10.34,2.298 Z" id="path-15"></path>
        <path d="M11.489,0 C12.123,0 12.638,0.515 12.638,1.149 L12.638,14.074 C12.638,14.709 12.123,15.223 11.489,15.223 L1.149,15.223 C0.514,15.223 2.84217094e-14,14.709 2.84217094e-14,14.074 L2.84217094e-14,1.149 C2.84217094e-14,0.515 0.514,0 1.149,0 L11.489,0 Z M10.34,2.298 L2.298,2.298 L2.298,12.925 L10.34,12.925 L10.34,2.298 Z" id="path-17"></path>
        <path d="M11.489,0 C12.124,0 12.638,0.515 12.638,1.149 L12.638,14.074 C12.638,14.709 12.124,15.223 11.489,15.223 L1.149,15.223 C0.515,15.223 0,14.709 0,14.074 L0,1.149 C0,0.515 0.515,0 1.149,0 L11.489,0 Z M10.34,2.298 L2.298,2.298 L2.298,12.925 L10.34,12.925 L10.34,2.298 Z" id="path-19"></path>
        <path d="M11.489,0 C12.124,0 12.638,0.515 12.638,1.149 L12.638,14.074 C12.638,14.709 12.124,15.223 11.489,15.223 L1.149,15.223 C0.515,15.223 0,14.709 0,14.074 L0,1.149 C0,0.515 0.515,0 1.149,0 L11.489,0 Z M10.34,2.298 L2.298,2.298 L2.298,12.925 L10.34,12.925 L10.34,2.298 Z" id="path-21"></path>
        <path d="M11.489,0 C12.124,0 12.638,0.515 12.638,1.149 L12.638,14.074 C12.638,14.709 12.124,15.223 11.489,15.223 L1.149,15.223 C0.515,15.223 2.84217094e-14,14.709 2.84217094e-14,14.074 L2.84217094e-14,1.149 C2.84217094e-14,0.515 0.515,0 1.149,0 L11.489,0 Z M10.34,2.298 L2.298,2.298 L2.298,12.925 L10.34,12.925 L10.34,2.298 Z" id="path-23"></path>
        <path d="M11.489,0 C12.123,0 12.638,0.515 12.638,1.149 L12.638,14.074 C12.638,14.709 12.123,15.223 11.489,15.223 L1.149,15.223 C0.514,15.223 2.84217094e-14,14.709 2.84217094e-14,14.074 L2.84217094e-14,1.149 C2.84217094e-14,0.515 0.514,0 1.149,0 L11.489,0 Z M10.34,2.298 L2.298,2.298 L2.298,12.925 L10.34,12.925 L10.34,2.298 Z" id="path-25"></path>
        <path d="M11.489,0 C12.124,0 12.638,0.515 12.638,1.149 L12.638,14.074 C12.638,14.709 12.124,15.223 11.489,15.223 L1.149,15.223 C0.515,15.223 0,14.709 0,14.074 L0,1.149 C0,0.515 0.515,0 1.149,0 L11.489,0 Z M10.34,2.298 L2.298,2.298 L2.298,12.925 L10.34,12.925 L10.34,2.298 Z" id="path-27"></path>
        <path d="M1.149,-1.13686838e-13 C1.784,-1.13686838e-13 2.298,0.514 2.298,1.149 L2.298,8.904 C2.298,9.538 1.784,10.053 1.149,10.053 C0.515,10.053 0,9.538 0,8.904 L0,1.149 C0,0.514 0.515,-1.13686838e-13 1.149,-1.13686838e-13 Z" id="path-29"></path>
        <path d="M1.149,-1.13686838e-13 C1.783,-1.13686838e-13 2.298,0.514 2.298,1.149 L2.298,8.904 C2.298,9.538 1.783,10.053 1.149,10.053 C0.514,10.053 0,9.538 0,8.904 L0,1.149 C0,0.514 0.514,-1.13686838e-13 1.149,-1.13686838e-13 Z" id="path-31"></path>
        <polygon id="path-33" points="0 0 2.298 0 2.298 20.68 0 20.68"></polygon>
        <polygon id="path-35" points="0 0 15.51 0 15.51 2.298 0 2.298"></polygon>
        <polygon id="path-37" points="0 0 2.298 0 2.298 20.68 0 20.68"></polygon>
        <path d="M8.904,0 C13.813,0 17.808,3.994 17.808,8.904 L15.51,8.904 C15.51,5.261 12.547,2.298 8.904,2.298 C5.262,2.298 2.298,5.261 2.298,8.904 L0,8.904 C0,3.994 3.995,0 8.904,0 Z" id="path-39"></path>
        <path d="M43.802,1.13686838e-13 C44.436,1.13686838e-13 44.951,0.514 44.951,1.148 C44.951,1.783 44.436,2.297 43.802,2.297 L1.149,2.297 C0.515,2.297 0,1.783 0,1.148 C0,0.514 0.515,1.13686838e-13 1.149,1.13686838e-13 L43.802,1.13686838e-13 Z" id="path-41"></path>
        <path d="M43.801,1.13686838e-13 C44.435,1.13686838e-13 44.95,0.514 44.95,1.148 C44.95,1.783 44.435,2.297 43.801,2.297 L1.148,2.297 C0.514,2.297 -1.42108547e-14,1.783 -1.42108547e-14,1.148 C-1.42108547e-14,0.514 0.514,1.13686838e-13 1.148,1.13686838e-13 L43.801,1.13686838e-13 Z" id="path-43"></path>
        <polygon id="path-45" points="20.025 0 40.049 13.35 38.775 15.262 20.025 2.762 1.275 15.262 -2.84217094e-14 13.35"></polygon>
        <path d="M19.388,-1.13686838e-13 C22.876,-1.13686838e-13 26.028,2.047 27.471,5.171 L38.775,5.171 L38.775,7.468 L25.887,7.468 L25.616,6.702 C24.685,4.068 22.182,2.298 19.388,2.298 C16.593,2.298 14.09,4.068 13.159,6.702 L12.888,7.468 L-2.84217094e-14,7.468 L-2.84217094e-14,5.171 L11.304,5.171 C12.747,2.047 15.899,-1.13686838e-13 19.388,-1.13686838e-13 Z" id="path-47"></path>
        <polygon id="path-49" points="0 0 15.51 0 15.51 2.298 0 2.298"></polygon>
        <path d="M2.298,1.13686838e-13 L2.298,14.361 L15.51,14.361 L15.51,1.13686838e-13 L17.808,1.13686838e-13 L17.808,15.51 C17.808,16.145 17.293,16.659 16.659,16.659 L1.149,16.659 C0.514,16.659 0,16.145 0,15.51 L0,1.13686838e-13 L2.298,1.13686838e-13 Z" id="path-51"></path>
        <path d="M8.904,0 C13.813,0 17.808,3.994 17.808,8.904 L15.51,8.904 C15.51,5.261 12.547,2.298 8.904,2.298 C5.262,2.298 2.298,5.261 2.298,8.904 L0,8.904 C0,3.994 3.995,0 8.904,0 Z" id="path-53"></path>
        <path d="M5.17,0 C8.025,0 10.34,2.314 10.34,5.17 C10.34,8.025 8.025,10.34 5.17,10.34 C2.315,10.34 2.84217094e-14,8.025 2.84217094e-14,5.17 C2.84217094e-14,2.314 2.315,0 5.17,0 Z M5.17,2.297 C3.586,2.297 2.297,3.586 2.297,5.17 C2.297,6.753 3.586,8.042 5.17,8.042 C6.753,8.042 8.042,6.753 8.042,5.17 C8.042,3.586 6.753,2.297 5.17,2.297 Z" id="path-55"></path>
        <polygon id="path-57" points="0 1.13686838e-13 2.298 1.13686838e-13 2.298 10.34 0 10.34"></polygon>
        <polygon id="path-59" points="0 1.13686838e-13 2.298 1.13686838e-13 2.298 10.34 0 10.34"></polygon>
        <path d="M8.904,0 C13.814,0 17.808,3.994 17.808,8.904 L15.51,8.904 C15.51,5.261 12.547,2.298 8.904,2.298 C5.262,2.298 2.298,5.261 2.298,8.904 L-1.42108547e-14,8.904 C-1.42108547e-14,3.994 3.995,0 8.904,0 Z" id="path-61"></path>
        <polygon id="path-63" points="0 1.13686838e-13 2.298 1.13686838e-13 2.298 10.34 0 10.34"></polygon>
        <polygon id="path-65" points="0 1.13686838e-13 2.298 1.13686838e-13 2.298 10.34 0 10.34"></polygon>
        <path d="M8.904,0 C13.814,0 17.808,3.994 17.808,8.904 L15.51,8.904 C15.51,5.261 12.547,2.298 8.904,2.298 C5.262,2.298 2.298,5.261 2.298,8.904 L0,8.904 C0,3.994 3.995,0 8.904,0 Z" id="path-67"></path>
        <path d="M1.149,1.13686838e-13 C1.783,1.13686838e-13 2.298,0.515 2.298,1.149 L2.298,4.883 C2.298,5.518 1.783,6.032 1.149,6.032 C0.514,6.032 0,5.518 0,4.883 L0,1.149 C0,0.515 0.514,1.13686838e-13 1.149,1.13686838e-13 Z" id="path-69"></path>
        <path d="M1.149,1.13686838e-13 C1.784,1.13686838e-13 2.298,0.515 2.298,1.149 L2.298,4.883 C2.298,5.518 1.784,6.032 1.149,6.032 C0.515,6.032 0,5.518 0,4.883 L0,1.149 C0,0.515 0.515,1.13686838e-13 1.149,1.13686838e-13 Z" id="path-71"></path>
        <path d="M1.149,1.13686838e-13 C1.783,1.13686838e-13 2.298,0.515 2.298,1.149 L2.298,4.883 C2.298,5.518 1.783,6.032 1.149,6.032 C0.514,6.032 0,5.518 0,4.883 L0,1.149 C0,0.515 0.514,1.13686838e-13 1.149,1.13686838e-13 Z" id="path-73"></path>
        <path d="M1.149,1.13686838e-13 C1.783,1.13686838e-13 2.298,0.515 2.298,1.149 L2.298,4.883 C2.298,5.518 1.783,6.032 1.149,6.032 C0.515,6.032 0,5.518 0,4.883 L0,1.149 C0,0.515 0.515,1.13686838e-13 1.149,1.13686838e-13 Z" id="path-75"></path>
        <path d="M1.149,0 C1.784,0 2.298,0.514 2.298,1.149 L2.298,4.883 C2.298,5.517 1.784,6.032 1.149,6.032 C0.515,6.032 0,5.517 0,4.883 L0,1.149 C0,0.514 0.515,0 1.149,0 Z" id="path-77"></path>
        <path d="M1.149,0 C1.784,0 2.298,0.515 2.298,1.149 L2.298,4.883 C2.298,5.518 1.784,6.032 1.149,6.032 C0.515,6.032 0,5.518 0,4.883 L0,1.149 C0,0.515 0.515,0 1.149,0 Z" id="path-79"></path>
        <path d="M1.148,0 C1.783,0 2.297,0.515 2.297,1.149 L2.297,4.883 C2.297,5.517 1.783,6.032 1.148,6.032 C0.514,6.032 2.84217094e-14,5.517 2.84217094e-14,4.883 L2.84217094e-14,1.149 C2.84217094e-14,0.515 0.514,0 1.148,0 Z" id="path-81"></path>
        <path d="M1.149,1.13686838e-13 C1.784,1.13686838e-13 2.298,0.515 2.298,1.149 L2.298,4.883 C2.298,5.518 1.784,6.032 1.149,6.032 C0.515,6.032 0,5.518 0,4.883 L0,1.149 C0,0.515 0.515,1.13686838e-13 1.149,1.13686838e-13 Z" id="path-83"></path>
        <path d="M1.149,0 C1.783,0 2.298,0.514 2.298,1.149 L2.298,4.883 C2.298,5.517 1.783,6.032 1.149,6.032 C0.515,6.032 0,5.517 0,4.883 L0,1.149 C0,0.514 0.515,0 1.149,0 Z" id="path-85"></path>
        <path d="M1.149,0 C1.783,0 2.298,0.515 2.298,1.149 L2.298,4.883 C2.298,5.518 1.783,6.032 1.149,6.032 C0.514,6.032 0,5.518 0,4.883 L0,1.149 C0,0.515 0.514,0 1.149,0 Z" id="path-87"></path>
        <path d="M1.149,0 C1.783,0 2.298,0.515 2.298,1.149 L2.298,4.883 C2.298,5.517 1.783,6.032 1.149,6.032 C0.514,6.032 0,5.517 0,4.883 L0,1.149 C0,0.515 0.514,0 1.149,0 Z" id="path-89"></path>
        <path d="M1.149,0 C1.783,0 2.298,0.514 2.298,1.149 L2.298,3.734 C2.298,4.368 1.783,4.883 1.149,4.883 C0.514,4.883 0,4.368 0,3.734 L0,1.149 C0,0.514 0.514,0 1.149,0 Z" id="path-91"></path>
        <path d="M1.149,0 C1.783,0 2.297,0.514 2.297,1.149 L2.297,3.734 C2.297,4.368 1.783,4.883 1.149,4.883 C0.514,4.883 2.84217094e-14,4.368 2.84217094e-14,3.734 L2.84217094e-14,1.149 C2.84217094e-14,0.514 0.514,0 1.149,0 Z" id="path-93"></path>
        <polygon id="path-95" points="1.308 1.13686838e-13 7.627 4.375 6.319 6.264 -2.84217094e-14 1.889"></polygon>
        <polygon id="path-97" points="17.026 0 26.999 6.904 26.999 91.375 2.84217094e-14 91.375 2.84217094e-14 89.077 24.702 89.077 24.702 8.108 15.718 1.889"></polygon>
        <polygon id="path-99" points="1.308 1.13686838e-13 7.627 4.375 6.319 6.264 0 1.889"></polygon>
        <polygon id="path-101" points="1.308 0 7.627 4.375 6.319 6.264 0 1.889"></polygon>
        <polygon id="path-103" points="-2.84217094e-14 0 62.04 0 62.04 2.298 -2.84217094e-14 2.298"></polygon>
        <polygon id="path-105" points="6.319 1.13686838e-13 7.627 1.889 1.308 6.264 0 4.375"></polygon>
        <polygon id="path-107" points="6.319 0 7.627 1.889 1.308 6.264 1.42108547e-14 4.375"></polygon>
        <polygon id="path-109" points="6.319 1.13686838e-13 7.627 1.889 1.308 6.264 0 4.375"></polygon>
        <polygon id="path-111" points="9.973 0 11.281 1.889 2.298 8.108 2.298 89.077 26.999 89.077 26.999 91.375 1.42108547e-14 91.375 1.42108547e-14 6.904"></polygon>
        <polygon id="path-113" points="15.51 -1.13686838e-13 16.785 1.912 1.275 12.252 0 10.34"></polygon>
        <polygon id="path-115" points="1.274 -1.13686838e-13 16.784 10.34 15.51 12.252 0 1.912"></polygon>
        <polygon id="path-117" points="47.516 1.13686838e-13 63.315 10.533 62.041 12.445 46.82 2.298 16.496 2.298 1.275 12.445 0 10.533 15.8 1.13686838e-13"></polygon>
        <polygon id="path-119" points="0 0 2.298 0 2.298 12.925 0 12.925"></polygon>
        <polygon id="path-121" points="0 0 2.297 0 2.297 12.925 0 12.925"></polygon>
        <polygon id="path-123" points="0 0 2.298 0 2.298 33.605 0 33.605"></polygon>
        <polygon id="path-125" points="0 0 2.298 0 2.298 33.605 0 33.605"></polygon>
        <polygon id="path-127" points="-2.84217094e-14 0 31.02 0 31.02 2.298 -2.84217094e-14 2.298"></polygon>
        <polygon id="path-129" points="2.84217094e-14 0 2.297 0 2.297 15.312 2.84217094e-14 15.312"></polygon>
        <polygon id="path-131" points="0 0 2.298 0 2.298 10.937 0 10.937"></polygon>
        <polygon id="path-133" points="0 0 2.298 0 2.298 6.562 0 6.562"></polygon>
        <polygon id="path-135" points="0 0 2.298 0 2.298 6.562 0 6.562"></polygon>
        <polygon id="path-137" points="0 0 2.298 0 2.298 10.937 0 10.937"></polygon>
        <polygon id="path-139" points="0 0 2.298 0 2.298 15.312 0 15.312"></polygon>
        <polygon id="path-141" points="10.962 -1.13686838e-13 11.129 2.103 3.444 2.713 11.379 5.257 11.52 7.036 4.148 10.794 11.77 10.19 11.932 12.23 0.97 13.1 0.747 10.286 8.402 6.365 0.231 3.777 0 0.87"></polygon>
        <path d="M11.683,0 L11.418,2.311 L8.818,2.935 L8.311,7.373 L10.703,8.567 L10.446,10.817 L-1.42108547e-14,5.377 L0.282,2.911 L11.683,0 Z M6.795,3.421 L2.493,4.46 L6.45,6.442 L6.795,3.421 Z" id="path-143"></path>
        <path d="M7.837,0.264797788 C8.674,0.499797788 9.383,0.841797788 9.966,1.28979779 C10.549,1.73879779 10.998,2.25979779 11.314,2.85379779 C11.63,3.44779779 11.818,4.09679779 11.878,4.80079779 C11.937,5.50579779 11.861,6.23579779 11.648,6.99179779 L10.585,10.7687978 L0,7.79079779 L1.067,3.99879779 C1.279,3.24179779 1.595,2.57879779 2.013,2.00879779 C2.431,1.43979779 2.932,0.986797788 3.515,0.651797788 C4.098,0.316797788 4.755,0.108797788 5.487,0.0297977879 C6.217,-0.0492022121 7.001,0.0287977879 7.837,0.264797788 Z M5.665,2.23079779 C5.194,2.28079779 4.779,2.40879779 4.421,2.61379779 C4.063,2.81979779 3.759,3.09579779 3.51,3.44579779 C3.262,3.79479779 3.077,4.18279779 2.957,4.61079779 L2.49,6.26879779 L9.254,8.17079779 L9.716,6.52879779 C9.837,6.10079779 9.884,5.67379779 9.859,5.24779779 C9.834,4.82179779 9.722,4.42479779 9.525,4.05779779 C9.328,3.69179779 9.041,3.36379779 8.666,3.07479779 C8.29,2.78679779 7.814,2.56179779 7.237,2.39979779 C6.659,2.23679779 6.135,2.18079779 5.665,2.23079779 Z" id="path-145"></path>
        <polygon id="path-147" points="2.823 1.13686838e-13 4.662 0.827 2.717 5.155 5.009 6.185 6.77 2.267 8.509 3.049 6.748 6.967 9.069 8.01 11.014 3.682 12.853 4.508 10.03 10.789 1.42108547e-14 6.281"></polygon>
        <path d="M5.643,0.080444366 C6.023,0.175444366 6.384,0.348444366 6.725,0.600444366 C7.182,0.938444366 7.492,1.35344437 7.655,1.84744437 C7.818,2.34044437 7.823,2.82044437 7.671,3.28644437 C7.881,3.10744437 8.117,2.97044437 8.38,2.87544437 C8.643,2.78044437 8.916,2.72844437 9.199,2.71944437 C9.483,2.70944437 9.772,2.74944437 10.066,2.83844437 C10.36,2.92744437 10.644,3.07344437 10.919,3.27644437 C11.276,3.54044437 11.559,3.84944437 11.767,4.20244437 C11.976,4.55544437 12.1,4.93044437 12.141,5.32744437 C12.182,5.72444437 12.141,6.13744437 12.016,6.56544437 C11.892,6.99544437 11.676,7.41744437 11.369,7.83344437 L8.843,11.2504444 L0,4.71344437 L2.351,1.53344437 C2.671,1.10044437 3.014,0.763444366 3.38,0.519444366 C3.747,0.276444366 4.12,0.118444366 4.501,0.046444366 C4.883,-0.025555634 5.263,-0.013555634 5.643,0.080444366 Z M8.436,4.61344437 C8.052,4.67144437 7.701,4.91544437 7.382,5.34844437 L6.33,6.77044437 L8.662,8.49344437 L9.695,7.09744437 C10.008,6.67344437 10.15,6.26944437 10.118,5.88644437 C10.086,5.50244437 9.892,5.17944437 9.534,4.91444437 C9.185,4.65644437 8.819,4.55644437 8.436,4.61344437 Z M4.593,2.13944437 C4.241,2.20744437 3.908,2.45244437 3.595,2.87744437 L2.701,4.08744437 L4.908,5.71944437 L5.812,4.49644437 C6.107,4.09744437 6.236,3.71444437 6.199,3.34644437 C6.163,2.97844437 5.974,2.66844437 5.633,2.41644437 C5.292,2.16444437 4.945,2.07244437 4.593,2.13944437 Z" id="path-149"></path>
        <polygon id="path-151" points="6.906 0 8.732 7.234 12.027 10.475 10.526 12.001 7.231 8.76 -1.42108547e-14 7.022 1.762 5.23 6.598 6.528 5.22 1.714"></polygon>
        <polygon id="path-153" points="7.694 0 13.548 9.309 11.723 10.457 9.296 6.597 5.239 9.148 7.666 13.008 5.854 14.148 0 4.839 1.812 3.7 4.165 7.441 8.222 4.89 5.869 1.148"></polygon>
        <path d="M7.75507874,0.365933616 C8.42207874,0.626933616 9.03407874,1.02593362 9.59207874,1.56193362 C10.1490787,2.09793362 10.5970787,2.77693362 10.9370787,3.59893362 C11.2760787,4.42093362 11.4370787,5.21593362 11.4180787,5.98393362 C11.4000787,6.75293362 11.2470787,7.46493362 10.9580787,8.12093362 C10.6700787,8.77693362 10.2590787,9.35793362 9.72307874,9.86493362 C9.18907874,10.3709336 8.57707874,10.7659336 7.88907874,11.0499336 C7.20107874,11.3339336 6.49107874,11.4849336 5.76007874,11.5019336 C5.02907874,11.5189336 4.32907874,11.3969336 3.66207874,11.1349336 C2.99407874,10.8739336 2.38407874,10.4769336 1.82807874,9.94593362 C1.27307874,9.41493362 0.826078742,8.73793362 0.486078742,7.91593362 C0.147078742,7.09393362 -0.0149212575,6.29693362 0.00107874249,5.52393362 C0.0180787425,4.75093362 0.170078742,4.03593362 0.458078742,3.37993362 C0.746078742,2.72393362 1.15607874,2.14293362 1.68607874,1.63893362 C2.21607874,1.13493362 2.82507874,0.740933616 3.51307874,0.455933616 C4.20107874,0.171933616 4.91307874,0.0209336162 5.65007874,0.00193361623 C6.38507874,-0.0170663838 7.08707874,0.103933616 7.75507874,0.365933616 Z M5.54807874,2.09093362 C5.10807874,2.11093362 4.69307874,2.20093362 4.30107874,2.36293362 C3.90907874,2.52493362 3.55307874,2.75393362 3.23307874,3.04793362 C2.91207874,3.34293362 2.65907874,3.68993362 2.47207874,4.09193362 C2.28607874,4.49293362 2.19007874,4.94393362 2.18407874,5.44493362 C2.17807874,5.94493362 2.29307874,6.48093362 2.53007874,7.05493362 C2.76707874,7.62793362 3.06407874,8.09093362 3.42207874,8.43993362 C3.77907874,8.79093362 4.16507874,9.04193362 4.58107874,9.19493362 C4.99607874,9.34793362 5.42107874,9.41593362 5.85607874,9.39793362 C6.29007874,9.38093362 6.70407874,9.29093362 7.09607874,9.12893362 C7.48807874,8.96793362 7.84607874,8.73793362 8.17107874,8.44193362 C8.49607874,8.14593362 8.75207874,7.79593362 8.93807874,7.39493362 C9.12507874,6.99293362 9.22107874,6.54293362 9.22707874,6.04193362 C9.23307874,5.54193362 9.11707874,5.00493362 8.88107874,4.43093362 C8.64407874,3.85793362 8.34607874,3.39693362 7.98907874,3.04593362 C7.63207874,2.69593362 7.24607874,2.44493362 6.83007874,2.29193362 C6.41507874,2.13793362 5.98707874,2.07193362 5.54807874,2.09093362 Z" id="path-155"></path>
        <path d="M8.237,0 L9.834,6.922 C9.985,7.577 10.01,8.181 9.91,8.735 C9.809,9.289 9.615,9.78 9.326,10.207 C9.037,10.635 8.661,10.992 8.197,11.279 C7.732,11.567 7.213,11.777 6.639,11.909 C6.065,12.042 5.508,12.079 4.97,12.024 C4.432,11.968 3.939,11.81 3.493,11.553 C3.046,11.295 2.656,10.939 2.323,10.485 C1.99,10.032 1.748,9.477 1.597,8.822 L0,1.901 L2.086,1.419 L3.648,8.19 C3.81,8.895 4.115,9.388 4.561,9.667 C5.008,9.946 5.543,10.013 6.168,9.869 C6.803,9.722 7.26,9.426 7.539,8.98 C7.818,8.533 7.876,7.957 7.714,7.252 L6.151,0.482 L8.237,0 Z" id="path-157"></path>
        <path d="M5.302,0.155517262 C5.786,0.297517262 6.193,0.495517262 6.525,0.749517262 C6.856,1.00151726 7.121,1.28951726 7.318,1.61051726 C7.516,1.93151726 7.657,2.24451726 7.744,2.54851726 L5.875,3.29151726 C5.832,3.13951726 5.764,2.97651726 5.672,2.80151726 C5.58,2.62751726 5.451,2.46951726 5.284,2.32751726 C5.116,2.18551726 4.907,2.07251726 4.657,1.98951726 C4.407,1.90651726 4.106,1.87851726 3.755,1.90751726 C3.498,1.92851726 3.267,1.98551726 3.062,2.08051726 C2.856,2.17451726 2.684,2.29251726 2.545,2.43351726 C2.406,2.57451726 2.302,2.73051726 2.233,2.90251726 C2.164,3.07351726 2.137,3.25151726 2.152,3.43751726 C2.177,3.73651726 2.295,3.98851726 2.509,4.19451726 C2.723,4.40051726 3.034,4.52751726 3.443,4.57751726 L4.998,4.74751726 C5.5,4.80051726 5.95,4.91451726 6.348,5.08851726 C6.746,5.26451726 7.085,5.48351726 7.366,5.74551726 C7.646,6.00851726 7.868,6.30951726 8.03,6.64851726 C8.192,6.98851726 8.29,7.34851726 8.32,7.72951726 C8.354,8.15251726 8.301,8.57451726 8.159,8.99551726 C8.016,9.41751726 7.791,9.79851726 7.481,10.1405173 C7.171,10.4815173 6.78,10.7705173 6.307,11.0055173 C5.833,11.2405173 5.276,11.3845173 4.638,11.4365173 C3.906,11.4965173 3.269,11.4415173 2.726,11.2725173 C2.183,11.1045173 1.72,10.8695173 1.338,10.5685173 C0.956,10.2675173 0.655,9.92051726 0.437,9.52851726 C0.218,9.13751726 0.072,8.74651726 0,8.35851726 L1.936,7.67151726 C1.978,7.93851726 2.063,8.19051726 2.191,8.42951726 C2.32,8.66751726 2.49,8.87451726 2.701,9.04951726 C2.912,9.22451726 3.167,9.35651726 3.464,9.44651726 C3.762,9.53651726 4.107,9.56551726 4.499,9.53351726 C5.076,9.48751726 5.506,9.32551726 5.79,9.04851726 C6.073,8.77051726 6.199,8.43651726 6.167,8.04451726 C6.141,7.72551726 6.005,7.45851726 5.76,7.24551726 C5.515,7.03151726 5.172,6.90151726 4.732,6.85451726 L3.177,6.66851726 C2.287,6.56451726 1.559,6.26351726 0.995,5.76451726 C0.431,5.26551726 0.115,4.59951726 0.047,3.76351726 C0.008,3.27951726 0.071,2.82051726 0.239,2.38651726 C0.406,1.95351726 0.652,1.56751726 0.978,1.22951726 C1.302,0.892517262 1.69,0.617517262 2.14,0.404517262 C2.589,0.191517262 3.072,0.0645172624 3.587,0.0215172624 C4.247,-0.0314827376 4.818,0.0135172624 5.302,0.155517262 Z" id="path-159"></path>
        <polygon id="path-161" points="0.598 0 7.474 0.374 7.365 2.387 2.625 2.129 2.489 4.638 6.779 4.872 6.675 6.776 2.385 6.543 2.247 9.083 6.986 9.341 6.876 11.354 0 10.98"></polygon>
        <path d="M7.31216,0.246461922 C8.02616,0.457461922 8.67516,0.786461922 9.25916,1.23446192 C9.84416,1.68246192 10.31416,2.21746192 10.67016,2.83946192 C11.02516,3.46146192 11.25116,4.15746192 11.34816,4.92446192 C11.44516,5.69146192 11.36716,6.50146192 11.11516,7.35446192 C10.86316,8.20646192 10.48916,8.92646192 9.99216,9.51246192 C9.49616,10.0994619 8.92916,10.5564619 8.29316,10.8874619 C7.65616,11.2164619 6.97116,11.4104619 6.23716,11.4684619 C5.50316,11.5264619 4.77916,11.4504619 4.06516,11.2394619 C3.35116,11.0284619 2.70416,10.6994619 2.12416,10.2534619 C1.54516,9.80746192 1.07716,9.27346192 0.72216,8.65046192 C0.36616,8.02846192 0.13916,7.33646192 0.04116,6.57346192 C-0.05684,5.81146192 0.02016,5.00446192 0.27216,4.15146192 C0.52416,3.29846192 0.89916,2.57646192 1.39716,1.98446192 C1.89516,1.39346192 2.46216,0.932461922 3.09916,0.603461922 C3.73516,0.273461922 4.41816,0.079461922 5.14716,0.019461922 C5.87616,-0.039538078 6.59816,0.035461922 7.31216,0.246461922 Z M5.46616,2.08746192 C5.03216,2.11546192 4.61616,2.22646192 4.21916,2.42246192 C3.82116,2.61746192 3.46316,2.90846192 3.14516,3.29346192 C2.82616,3.67946192 2.57916,4.16946192 2.40316,4.76446192 C2.22716,5.35946192 2.16916,5.90546192 2.22716,6.40246192 C2.28516,6.89946192 2.42716,7.33746192 2.65516,7.71746192 C2.88216,8.09746192 3.17116,8.41746192 3.52016,8.67646192 C3.86916,8.93546192 4.24716,9.12546192 4.65316,9.24546192 C5.06016,9.36646192 5.48316,9.41246192 5.92216,9.38646192 C6.36116,9.35946192 6.77916,9.24846192 7.17716,9.05346192 C7.57416,8.85846192 7.93216,8.56746192 8.25116,8.18146192 C8.57016,7.79646192 8.81716,7.30646192 8.99216,6.71046192 C9.16916,6.11646192 9.22716,5.56946192 9.16916,5.07346192 C9.11116,4.57646192 8.96816,4.13846192 8.74116,3.75746192 C8.51316,3.37746192 8.22216,3.05746192 7.86816,2.79646192 C7.51416,2.53546192 7.13416,2.34546192 6.72716,2.22446192 C6.32016,2.10446192 5.90016,2.05846192 5.46616,2.08746192 Z" id="path-163"></path>
        <polygon id="path-165" points="4.689 0 10.975 2.963 10.108 4.8 5.759 2.75 4.602 5.205 8.474 7.03 7.634 8.812 3.776 6.993 1.95 10.865 0 9.946"></polygon>
        <path d="M6.682,1.13686838e-13 L9.824,2.402 C10.25,2.729 10.583,3.078 10.82,3.448 C11.057,3.818 11.209,4.195 11.275,4.577 C11.34,4.96 11.323,5.34 11.222,5.718 C11.12,6.097 10.942,6.454 10.684,6.791 C10.339,7.243 9.918,7.545 9.422,7.7 C8.926,7.855 8.447,7.852 7.983,7.692 C8.158,7.905 8.292,8.144 8.383,8.409 C8.473,8.673 8.52,8.947 8.525,9.231 C8.529,9.514 8.485,9.802 8.391,10.095 C8.297,10.387 8.147,10.669 7.94,10.94 C7.669,11.293 7.356,11.571 6.999,11.773 C6.642,11.976 6.265,12.094 5.868,12.128 C5.47,12.163 5.058,12.115 4.632,11.983 C4.205,11.852 3.786,11.629 3.376,11.315 L0,8.733 L6.682,1.13686838e-13 Z M4.522,6.294 L2.76,8.598 L4.139,9.653 C4.558,9.974 4.959,10.122 5.343,10.096 C5.727,10.071 6.054,9.882 6.324,9.529 C6.588,9.184 6.695,8.819 6.643,8.435 C6.592,8.051 6.353,7.695 5.926,7.369 L4.522,6.294 Z M7.264,2.71 L5.596,4.89 L6.803,5.814 C7.198,6.115 7.579,6.251 7.948,6.22 C8.316,6.189 8.629,6.006 8.886,5.669 C9.144,5.333 9.242,4.988 9.18,4.635 C9.118,4.282 8.878,3.945 8.459,3.624 L7.264,2.71 Z" id="path-167"></path>
        <path d="M10.821,0 L12.553,1.778 L7.596,12.45 L5.973,10.783 L7.135,8.374 L4.018,5.175 L1.58,6.271 L0,4.649 L10.821,0 Z M9.955,2.511 L5.916,4.322 L8.037,6.5 L9.955,2.511 Z" id="path-169"></path>
        <path d="M8.938,0 L11.44,3.492 C11.753,3.929 11.964,4.373 12.071,4.824 C12.178,5.276 12.199,5.713 12.133,6.135 C12.066,6.558 11.913,6.957 11.673,7.332 C11.434,7.708 11.12,8.034 10.734,8.311 C10.103,8.762 9.443,8.978 8.754,8.957 C8.064,8.936 7.425,8.691 6.835,8.223 L4.552,12.759 L3.161,10.817 L5.348,6.599 L4.697,5.691 L1.255,8.157 L0,6.405 L8.938,0 Z M8.681,2.836 L6.197,4.616 L7.209,6.028 C7.528,6.473 7.889,6.736 8.291,6.818 C8.692,6.899 9.078,6.807 9.447,6.542 C9.826,6.271 10.041,5.932 10.093,5.526 C10.146,5.12 10.012,4.694 9.693,4.249 L8.681,2.836 Z" id="path-171"></path>
        <polygon id="path-173" points="8.154 0 12.353 8.078 10.551 9.016 8.948 5.933 0.994 10.068 0 8.155 7.954 4.02 6.351 0.937"></polygon>
        <polygon id="path-175" points="10.359 0 11.078 2.016 2.647 5.019 4.292 9.636 2.363 10.322 -2.84217094e-14 3.689"></polygon>
        <polygon id="path-177" points="10.759 0 12.183 6.737 10.21 7.154 9.229 2.511 6.771 3.03 7.659 7.234 5.793 7.628 4.904 3.425 2.416 3.951 3.397 8.594 1.424 9.012 -2.84217094e-14 2.274"></polygon>
        <polygon id="path-179" points="10.688 0 11.407 9.076 9.382 9.236 9.107 5.773 0.17 6.481 2.84217094e-14 4.333 8.937 3.624 8.662 0.161"></polygon>
        <polygon id="path-181" points="9.358 0 11.384 0.151 10.708 9.23 8.682 9.079 8.94 5.615 0 4.949 0.16 2.799 9.1 3.465"></polygon>
    </defs>
    <g id="Page-1" stroke="none" stroke-width="1" fill="none" fill-rule="evenodd">
        <g id="Group-322">
            <g id="Group-18" transform="translate(41.587800, 125.520400)">
                <mask id="mask-2" fill="white">
                    <use xlink:href="#path-1"></use>
                </mask>
                <g id="Clip-17"></g>
                <polygon id="Fill-16" fill="#FFFFFE" mask="url(#mask-2)" points="-1 -1 114.74 -1 114.74 3.298 -1 3.298"></polygon>
            </g>
            <g id="Group-21" transform="translate(61.118516, 20.259600)">
                <mask id="mask-4" fill="white">
                    <use xlink:href="#path-3"></use>
                </mask>
                <g id="Clip-20"></g>
                <polygon id="Fill-19" fill="#FFFFFE" mask="url(#mask-4)" points="-1.15751572 -1 75.8354843 -1 75.8354843 28.581 -1.15751572 28.581"></polygon>
            </g>
            <g id="Group-24" transform="translate(68.873800, 41.364400)">
                <mask id="mask-6" fill="white">
                    <use xlink:href="#path-5"></use>
                </mask>
                <g id="Clip-23"></g>
                <polygon id="Fill-22" fill="#FFFFFE" mask="url(#mask-6)" points="-1 -1 3.298 -1 3.298 7.164 -1 7.164"></polygon>
            </g>
            <g id="Group-27" transform="translate(41.587900, 47.528800)">
                <mask id="mask-8" fill="white">
                    <use xlink:href="#path-7"></use>
                </mask>
                <g id="Clip-26"></g>
                <polygon id="Fill-25" fill="#FFFFFE" mask="url(#mask-8)" points="-1 -1 30.584 -1 30.584 21.835 -1 21.835"></polygon>
            </g>
            <g id="Group-30" transform="translate(125.744800, 41.364400)">
                <mask id="mask-10" fill="white">
                    <use xlink:href="#path-9"></use>
                </mask>
                <g id="Clip-29"></g>
                <polygon id="Fill-28" fill="#FFFFFE" mask="url(#mask-10)" points="-1 -1 3.297 -1 3.297 7.164 -1 7.164"></polygon>
            </g>
            <g id="Group-33" transform="translate(125.744200, 47.528800)">
                <mask id="mask-12" fill="white">
                    <use xlink:href="#path-11"></use>
                </mask>
                <g id="Clip-32"></g>
                <polygon id="Fill-31" fill="#FFFFFE" mask="url(#mask-12)" points="-1 -1 30.584 -1 30.584 21.835 -1 21.835"></polygon>
            </g>
            <g id="Group-36" transform="translate(136.083800, 73.820400)">
                <mask id="mask-14" fill="white">
                    <use xlink:href="#path-13"></use>
                </mask>
                <g id="Clip-35"></g>
                <polygon id="Fill-34" fill="#FFFFFE" mask="url(#mask-14)" points="-1 -1 13.638 -1 13.638 16.223 -1 16.223"></polygon>
            </g>
            <g id="Group-39" transform="translate(117.988800, 73.820400)">
                <mask id="mask-16" fill="white">
                    <use xlink:href="#path-15"></use>
                </mask>
                <g id="Clip-38"></g>
                <polygon id="Fill-37" fill="#FFFFFE" mask="url(#mask-16)" points="-1 -1 13.638 -1 13.638 16.223 -1 16.223"></polygon>
            </g>
            <g id="Group-42" transform="translate(66.288800, 73.820400)">
                <mask id="mask-18" fill="white">
                    <use xlink:href="#path-17"></use>
                </mask>
                <g id="Clip-41"></g>
                <polygon id="Fill-40" fill="#FFFFFE" mask="url(#mask-18)" points="-1 -1 13.638 -1 13.638 16.223 -1 16.223"></polygon>
            </g>
            <g id="Group-45" transform="translate(48.193800, 73.820400)">
                <mask id="mask-20" fill="white">
                    <use xlink:href="#path-19"></use>
                </mask>
                <g id="Clip-44"></g>
                <polygon id="Fill-43" fill="#FFFFFE" mask="url(#mask-20)" points="-1 -1 13.638 -1 13.638 16.223 -1 16.223"></polygon>
            </g>
            <g id="Group-48" transform="translate(136.083800, 104.840400)">
                <mask id="mask-22" fill="white">
                    <use xlink:href="#path-21"></use>
                </mask>
                <g id="Clip-47"></g>
                <polygon id="Fill-46" fill="#FFFFFE" mask="url(#mask-22)" points="-1 -1 13.638 -1 13.638 16.223 -1 16.223"></polygon>
            </g>
            <g id="Group-51" transform="translate(117.988800, 104.840400)">
                <mask id="mask-24" fill="white">
                    <use xlink:href="#path-23"></use>
                </mask>
                <g id="Clip-50"></g>
                <polygon id="Fill-49" fill="#FFFFFE" mask="url(#mask-24)" points="-1 -1 13.638 -1 13.638 16.223 -1 16.223"></polygon>
            </g>
            <g id="Group-54" transform="translate(66.288800, 104.840400)">
                <mask id="mask-26" fill="white">
                    <use xlink:href="#path-25"></use>
                </mask>
                <g id="Clip-53"></g>
                <polygon id="Fill-52" fill="#FFFFFE" mask="url(#mask-26)" points="-1 -1 13.638 -1 13.638 16.223 -1 16.223"></polygon>
            </g>
            <g id="Group-57" transform="translate(48.193800, 104.840400)">
                <mask id="mask-28" fill="white">
                    <use xlink:href="#path-27"></use>
                </mask>
                <g id="Clip-56"></g>
                <polygon id="Fill-55" fill="#FFFFFE" mask="url(#mask-28)" points="-1 -1 13.638 -1 13.638 16.223 -1 16.223"></polygon>
            </g>
            <g id="Group-60" transform="translate(85.819800, 102.255600)">
                <mask id="mask-30" fill="white">
                    <use xlink:href="#path-29"></use>
                </mask>
                <g id="Clip-59"></g>
                <polygon id="Fill-58" fill="#FFFFFE" mask="url(#mask-30)" points="-1 -1 3.298 -1 3.298 11.053 -1 11.053"></polygon>
            </g>
            <g id="Group-63" transform="translate(108.797800, 102.255600)">
                <mask id="mask-32" fill="white">
                    <use xlink:href="#path-31"></use>
                </mask>
                <g id="Clip-62"></g>
                <polygon id="Fill-61" fill="#FFFFFE" mask="url(#mask-32)" points="-1 -1 3.298 -1 3.298 11.053 -1 11.053"></polygon>
            </g>
            <g id="Group-66" transform="translate(105.063800, 105.990400)">
                <mask id="mask-34" fill="white">
                    <use xlink:href="#path-33"></use>
                </mask>
                <g id="Clip-65"></g>
                <polygon id="Fill-64" fill="#FFFFFE" mask="url(#mask-34)" points="-1 -1 3.298 -1 3.298 21.68 -1 21.68"></polygon>
            </g>
            <g id="Group-69" transform="translate(90.702800, 104.840400)">
                <mask id="mask-36" fill="white">
                    <use xlink:href="#path-35"></use>
                </mask>
                <g id="Clip-68"></g>
                <polygon id="Fill-67" fill="#FFFFFE" mask="url(#mask-36)" points="-1 -1 16.51 -1 16.51 3.298 -1 3.298"></polygon>
            </g>
            <g id="Group-72" transform="translate(89.553800, 105.990400)">
                <mask id="mask-38" fill="white">
                    <use xlink:href="#path-37"></use>
                </mask>
                <g id="Clip-71"></g>
                <polygon id="Fill-70" fill="#FFFFFE" mask="url(#mask-38)" points="-1 -1 3.298 -1 3.298 21.68 -1 21.68"></polygon>
            </g>
            <g id="Group-75" transform="translate(89.553900, 97.085800)">
                <mask id="mask-40" fill="white">
                    <use xlink:href="#path-39"></use>
                </mask>
                <g id="Clip-74"></g>
                <polygon id="Fill-73" fill="#FFFFFE" mask="url(#mask-40)" points="-1 -1 18.808 -1 18.808 9.904 -1 9.904"></polygon>
            </g>
            <g id="Group-78" transform="translate(116.696100, 91.916400)">
                <mask id="mask-42" fill="white">
                    <use xlink:href="#path-41"></use>
                </mask>
                <g id="Clip-77"></g>
                <polygon id="Fill-76" fill="#FFFFFE" mask="url(#mask-42)" points="-1 -1 45.951 -1 45.951 3.297 -1 3.297"></polygon>
            </g>
            <g id="Group-81" transform="translate(35.269400, 91.916400)">
                <mask id="mask-44" fill="white">
                    <use xlink:href="#path-43"></use>
                </mask>
                <g id="Clip-80"></g>
                <polygon id="Fill-79" fill="#FFFFFE" mask="url(#mask-44)" points="-1 -1 45.95 -1 45.95 3.297 -1 3.297"></polygon>
            </g>
            <g id="Group-84" transform="translate(78.433100, 78.758500)">
                <mask id="mask-46" fill="white">
                    <use xlink:href="#path-45"></use>
                </mask>
                <g id="Clip-83"></g>
                <polygon id="Fill-82" fill="#FFFFFE" mask="url(#mask-46)" points="-1 -1 41.049 -1 41.049 16.262 -1 16.262"></polygon>
            </g>
            <g id="Group-87" transform="translate(79.070300, 86.745400)">
                <mask id="mask-48" fill="white">
                    <use xlink:href="#path-47"></use>
                </mask>
                <g id="Clip-86"></g>
                <polygon id="Fill-85" fill="#FFFFFE" mask="url(#mask-48)" points="-1 -1 39.775 -1 39.775 8.468 -1 8.468"></polygon>
            </g>
            <g id="Group-90" transform="translate(90.702800, 45.385400)">
                <mask id="mask-50" fill="white">
                    <use xlink:href="#path-49"></use>
                </mask>
                <g id="Clip-89"></g>
                <polygon id="Fill-88" fill="#FFFFFE" mask="url(#mask-50)" points="-1 -1 16.51 -1 16.51 3.298 -1 3.298"></polygon>
            </g>
            <g id="Group-93" transform="translate(89.553900, 46.534400)">
                <mask id="mask-52" fill="white">
                    <use xlink:href="#path-51"></use>
                </mask>
                <g id="Clip-92"></g>
                <polygon id="Fill-91" fill="#FFFFFE" mask="url(#mask-52)" points="-1 -1 18.808 -1 18.808 17.659 -1 17.659"></polygon>
            </g>
            <g id="Group-96" transform="translate(89.553900, 37.630700)">
                <mask id="mask-54" fill="white">
                    <use xlink:href="#path-53"></use>
                </mask>
                <g id="Clip-95"></g>
                <polygon id="Fill-94" fill="#FFFFFE" mask="url(#mask-54)" points="-1 -1 18.808 -1 18.808 9.904 -1 9.904"></polygon>
            </g>
            <g id="Group-99" transform="translate(93.288100, 67.214900)">
                <mask id="mask-56" fill="white">
                    <use xlink:href="#path-55"></use>
                </mask>
                <g id="Clip-98"></g>
                <polygon id="Fill-97" fill="#FFFFFE" mask="url(#mask-56)" points="-1 -1 11.34 -1 11.34 11.34 -1 11.34"></polygon>
            </g>
            <g id="Group-102" transform="translate(61.118800, 139.594400)">
                <mask id="mask-58" fill="white">
                    <use xlink:href="#path-57"></use>
                </mask>
                <g id="Clip-101"></g>
                <polygon id="Fill-100" fill="#FFFFFE" mask="url(#mask-58)" points="-1 -1 3.298 -1 3.298 11.34 -1 11.34"></polygon>
            </g>
            <g id="Group-105" transform="translate(45.608800, 139.594400)">
                <mask id="mask-60" fill="white">
                    <use xlink:href="#path-59"></use>
                </mask>
                <g id="Clip-104"></g>
                <polygon id="Fill-103" fill="#FFFFFE" mask="url(#mask-60)" points="-1 -1 3.298 -1 3.298 11.34 -1 11.34"></polygon>
            </g>
            <g id="Group-108" transform="translate(45.608600, 130.690800)">
                <mask id="mask-62" fill="white">
                    <use xlink:href="#path-61"></use>
                </mask>
                <g id="Clip-107"></g>
                <polygon id="Fill-106" fill="#FFFFFE" mask="url(#mask-62)" points="-1 -1 18.808 -1 18.808 9.904 -1 9.904"></polygon>
            </g>
            <g id="Group-111" transform="translate(149.008800, 139.594400)">
                <mask id="mask-64" fill="white">
                    <use xlink:href="#path-63"></use>
                </mask>
                <g id="Clip-110"></g>
                <polygon id="Fill-109" fill="#FFFFFE" mask="url(#mask-64)" points="-1 -1 3.298 -1 3.298 11.34 -1 11.34"></polygon>
            </g>
            <g id="Group-114" transform="translate(133.498800, 139.594400)">
                <mask id="mask-66" fill="white">
                    <use xlink:href="#path-65"></use>
                </mask>
                <g id="Clip-113"></g>
                <polygon id="Fill-112" fill="#FFFFFE" mask="url(#mask-66)" points="-1 -1 3.298 -1 3.298 11.34 -1 11.34"></polygon>
            </g>
            <g id="Group-117" transform="translate(133.498700, 130.690800)">
                <mask id="mask-68" fill="white">
                    <use xlink:href="#path-67"></use>
                </mask>
                <g id="Clip-116"></g>
                <polygon id="Fill-115" fill="#FFFFFE" mask="url(#mask-68)" points="-1 -1 18.808 -1 18.808 9.904 -1 9.904"></polygon>
            </g>
            <g id="Group-120" transform="translate(97.309100, 130.116000)">
                <mask id="mask-70" fill="white">
                    <use xlink:href="#path-69"></use>
                </mask>
                <g id="Clip-119"></g>
                <polygon id="Fill-118" fill="#FFFFFE" mask="url(#mask-70)" points="-1 -1 3.298 -1 3.298 7.032 -1 7.032"></polygon>
            </g>
            <g id="Group-123" transform="translate(92.138700, 130.116000)">
                <mask id="mask-72" fill="white">
                    <use xlink:href="#path-71"></use>
                </mask>
                <g id="Clip-122"></g>
                <polygon id="Fill-121" fill="#FFFFFE" mask="url(#mask-72)" points="-1 -1 3.298 -1 3.298 7.032 -1 7.032"></polygon>
            </g>
            <g id="Group-126" transform="translate(102.479000, 130.116000)">
                <mask id="mask-74" fill="white">
                    <use xlink:href="#path-73"></use>
                </mask>
                <g id="Clip-125"></g>
                <polygon id="Fill-124" fill="#FFFFFE" mask="url(#mask-74)" points="-1 -1 3.298 -1 3.298 7.032 -1 7.032"></polygon>
            </g>
            <g id="Group-129" transform="translate(107.648900, 130.116000)">
                <mask id="mask-76" fill="white">
                    <use xlink:href="#path-75"></use>
                </mask>
                <g id="Clip-128"></g>
                <polygon id="Fill-127" fill="#FFFFFE" mask="url(#mask-76)" points="-1 -1 3.298 -1 3.298 7.032 -1 7.032"></polygon>
            </g>
            <g id="Group-132" transform="translate(112.818800, 130.403600)">
                <mask id="mask-78" fill="white">
                    <use xlink:href="#path-77"></use>
                </mask>
                <g id="Clip-131"></g>
                <polygon id="Fill-130" fill="#FFFFFE" mask="url(#mask-78)" points="-1 -1 3.298 -1 3.298 7.032 -1 7.032"></polygon>
            </g>
            <g id="Group-135" transform="translate(117.988700, 133.562800)">
                <mask id="mask-80" fill="white">
                    <use xlink:href="#path-79"></use>
                </mask>
                <g id="Clip-134"></g>
                <polygon id="Fill-133" fill="#FFFFFE" mask="url(#mask-80)" points="-1 -1 3.298 -1 3.298 7.032 -1 7.032"></polygon>
            </g>
            <g id="Group-138" transform="translate(123.159700, 137.009500)">
                <mask id="mask-82" fill="white">
                    <use xlink:href="#path-81"></use>
                </mask>
                <g id="Clip-137"></g>
                <polygon id="Fill-136" fill="#FFFFFE" mask="url(#mask-82)" points="-1 -1 3.297 -1 3.297 7.032 -1 7.032"></polygon>
            </g>
            <g id="Group-141" transform="translate(86.968700, 130.116000)">
                <mask id="mask-84" fill="white">
                    <use xlink:href="#path-83"></use>
                </mask>
                <g id="Clip-140"></g>
                <polygon id="Fill-139" fill="#FFFFFE" mask="url(#mask-84)" points="-1 -1 3.298 -1 3.298 7.032 -1 7.032"></polygon>
            </g>
            <g id="Group-144" transform="translate(81.798800, 130.403600)">
                <mask id="mask-86" fill="white">
                    <use xlink:href="#path-85"></use>
                </mask>
                <g id="Clip-143"></g>
                <polygon id="Fill-142" fill="#FFFFFE" mask="url(#mask-86)" points="-1 -1 3.298 -1 3.298 7.032 -1 7.032"></polygon>
            </g>
            <g id="Group-147" transform="translate(76.628900, 133.562800)">
                <mask id="mask-88" fill="white">
                    <use xlink:href="#path-87"></use>
                </mask>
                <g id="Clip-146"></g>
                <polygon id="Fill-145" fill="#FFFFFE" mask="url(#mask-88)" points="-1 -1 3.298 -1 3.298 7.032 -1 7.032"></polygon>
            </g>
            <g id="Group-150" transform="translate(71.459000, 137.009500)">
                <mask id="mask-90" fill="white">
                    <use xlink:href="#path-89"></use>
                </mask>
                <g id="Clip-149"></g>
                <polygon id="Fill-148" fill="#FFFFFE" mask="url(#mask-90)" points="-1 -1 3.298 -1 3.298 7.032 -1 7.032"></polygon>
            </g>
            <g id="Group-153" transform="translate(128.329100, 133.275700)">
                <mask id="mask-92" fill="white">
                    <use xlink:href="#path-91"></use>
                </mask>
                <g id="Clip-152"></g>
                <polygon id="Fill-151" fill="#FFFFFE" mask="url(#mask-92)" points="-1 -1 3.298 -1 3.298 5.883 -1 5.883"></polygon>
            </g>
            <g id="Group-156" transform="translate(66.289000, 133.275700)">
                <mask id="mask-94" fill="white">
                    <use xlink:href="#path-93"></use>
                </mask>
                <g id="Clip-155"></g>
                <polygon id="Fill-154" fill="#FFFFFE" mask="url(#mask-94)" points="-1 -1 3.297 -1 3.297 5.883 -1 5.883"></polygon>
            </g>
            <g id="Group-159" transform="translate(126.238700, 46.584200)">
                <mask id="mask-96" fill="white">
                    <use xlink:href="#path-95"></use>
                </mask>
                <g id="Clip-158"></g>
                <polygon id="Fill-157" fill="#FFFFFE" mask="url(#mask-96)" points="-1 -1 8.627 -1 8.627 7.264 -1 7.264"></polygon>
            </g>
            <g id="Group-162" transform="translate(129.477600, 59.708500)">
                <mask id="mask-98" fill="white">
                    <use xlink:href="#path-97"></use>
                </mask>
                <g id="Clip-161"></g>
                <polygon id="Fill-160" fill="#FFFFFE" mask="url(#mask-98)" points="-1 -1 27.999 -1 27.999 92.375 -1 92.375"></polygon>
            </g>
            <g id="Group-165" transform="translate(138.876900, 55.333200)">
                <mask id="mask-100" fill="white">
                    <use xlink:href="#path-99"></use>
                </mask>
                <g id="Clip-164"></g>
                <polygon id="Fill-163" fill="#FFFFFE" mask="url(#mask-100)" points="-1 -1 8.627 -1 8.627 7.264 -1 7.264"></polygon>
            </g>
            <g id="Group-168" transform="translate(132.557500, 50.958700)">
                <mask id="mask-102" fill="white">
                    <use xlink:href="#path-101"></use>
                </mask>
                <g id="Clip-167"></g>
                <polygon id="Fill-166" fill="#FFFFFE" mask="url(#mask-102)" points="-1 -1 8.627 -1 8.627 7.264 -1 7.264"></polygon>
            </g>
            <g id="Group-171" transform="translate(67.437800, 148.785400)">
                <mask id="mask-104" fill="white">
                    <use xlink:href="#path-103"></use>
                </mask>
                <g id="Clip-170"></g>
                <polygon id="Fill-169" fill="#FFFFFE" mask="url(#mask-104)" points="-1 -1 63.04 -1 63.04 3.298 -1 3.298"></polygon>
            </g>
            <g id="Group-174" transform="translate(50.412300, 55.333200)">
                <mask id="mask-106" fill="white">
                    <use xlink:href="#path-105"></use>
                </mask>
                <g id="Clip-173"></g>
                <polygon id="Fill-172" fill="#FFFFFE" mask="url(#mask-106)" points="-1 -1 8.627 -1 8.627 7.264 -1 7.264"></polygon>
            </g>
            <g id="Group-177" transform="translate(56.731100, 50.958700)">
                <mask id="mask-108" fill="white">
                    <use xlink:href="#path-107"></use>
                </mask>
                <g id="Clip-176"></g>
                <polygon id="Fill-175" fill="#FFFFFE" mask="url(#mask-108)" points="-1 -1 8.627 -1 8.627 7.264 -1 7.264"></polygon>
            </g>
            <g id="Group-180" transform="translate(63.050000, 46.584200)">
                <mask id="mask-110" fill="white">
                    <use xlink:href="#path-109"></use>
                </mask>
                <g id="Clip-179"></g>
                <polygon id="Fill-178" fill="#FFFFFE" mask="url(#mask-110)" points="-1 -1 8.627 -1 8.627 7.264 -1 7.264"></polygon>
            </g>
            <g id="Group-183" transform="translate(40.439000, 59.708500)">
                <mask id="mask-112" fill="white">
                    <use xlink:href="#path-111"></use>
                </mask>
                <g id="Clip-182"></g>
                <polygon id="Fill-181" fill="#FFFFFE" mask="url(#mask-112)" points="-1 -1 27.999 -1 27.999 92.375 -1 92.375"></polygon>
            </g>
            <g id="Group-186" transform="translate(66.800200, 125.713900)">
                <mask id="mask-114" fill="white">
                    <use xlink:href="#path-113"></use>
                </mask>
                <g id="Clip-185"></g>
                <polygon id="Fill-184" fill="#FFFFFE" mask="url(#mask-114)" points="-1 -1 17.785 -1 17.785 13.252 -1 13.252"></polygon>
            </g>
            <g id="Group-189" transform="translate(113.330900, 125.713900)">
                <mask id="mask-116" fill="white">
                    <use xlink:href="#path-115"></use>
                </mask>
                <g id="Clip-188"></g>
                <polygon id="Fill-187" fill="#FFFFFE" mask="url(#mask-116)" points="-1 -1 17.784 -1 17.784 13.252 -1 13.252"></polygon>
            </g>
            <g id="Group-192" transform="translate(66.799900, 138.445700)">
                <mask id="mask-118" fill="white">
                    <use xlink:href="#path-117"></use>
                </mask>
                <g id="Clip-191"></g>
                <polygon id="Fill-190" fill="#FFFFFE" mask="url(#mask-118)" points="-1 -1 64.315 -1 64.315 13.445 -1 13.445"></polygon>
            </g>
            <g id="Group-195" transform="translate(128.328800, 137.009400)">
                <mask id="mask-120" fill="white">
                    <use xlink:href="#path-119"></use>
                </mask>
                <g id="Clip-194"></g>
                <polygon id="Fill-193" fill="#FFFFFE" mask="url(#mask-120)" points="-1 -1 3.298 -1 3.298 13.925 -1 13.925"></polygon>
            </g>
            <g id="Group-198" transform="translate(66.289800, 137.009400)">
                <mask id="mask-122" fill="white">
                    <use xlink:href="#path-121"></use>
                </mask>
                <g id="Clip-197"></g>
                <polygon id="Fill-196" fill="#FFFFFE" mask="url(#mask-122)" points="-1 -1 3.297 -1 3.297 13.925 -1 13.925"></polygon>
            </g>
            <g id="Group-201" transform="translate(81.798800, 93.065400)">
                <mask id="mask-124" fill="white">
                    <use xlink:href="#path-123"></use>
                </mask>
                <g id="Clip-200"></g>
                <polygon id="Fill-199" fill="#FFFFFE" mask="url(#mask-124)" points="-1 -1 3.298 -1 3.298 34.605 -1 34.605"></polygon>
            </g>
            <g id="Group-204" transform="translate(112.818800, 93.065400)">
                <mask id="mask-126" fill="white">
                    <use xlink:href="#path-125"></use>
                </mask>
                <g id="Clip-203"></g>
                <polygon id="Fill-202" fill="#FFFFFE" mask="url(#mask-126)" points="-1 -1 3.298 -1 3.298 34.605 -1 34.605"></polygon>
            </g>
            <g id="Group-207" transform="translate(82.947800, 125.520400)">
                <mask id="mask-128" fill="white">
                    <use xlink:href="#path-127"></use>
                </mask>
                <g id="Clip-206"></g>
                <polygon id="Fill-205" fill="#FFFFFE" mask="url(#mask-128)" points="-1 -1 32.02 -1 32.02 3.298 -1 3.298"></polygon>
            </g>
            <g id="Group-210" transform="translate(62.555800, 51.902400)">
                <mask id="mask-130" fill="white">
                    <use xlink:href="#path-129"></use>
                </mask>
                <g id="Clip-209"></g>
                <polygon id="Fill-208" fill="#FFFFFE" mask="url(#mask-130)" points="-1 -1 3.297 -1 3.297 16.312 -1 16.312"></polygon>
            </g>
            <g id="Group-213" transform="translate(56.235800, 56.277400)">
                <mask id="mask-132" fill="white">
                    <use xlink:href="#path-131"></use>
                </mask>
                <g id="Clip-212"></g>
                <polygon id="Fill-211" fill="#FFFFFE" mask="url(#mask-132)" points="-1 -1 3.298 -1 3.298 11.937 -1 11.937"></polygon>
            </g>
            <g id="Group-216" transform="translate(49.916800, 60.652400)">
                <mask id="mask-134" fill="white">
                    <use xlink:href="#path-133"></use>
                </mask>
                <g id="Clip-215"></g>
                <polygon id="Fill-214" fill="#FFFFFE" mask="url(#mask-134)" points="-1 -1 3.298 -1 3.298 7.562 -1 7.562"></polygon>
            </g>
            <g id="Group-219" transform="translate(144.700800, 60.652400)">
                <mask id="mask-136" fill="white">
                    <use xlink:href="#path-135"></use>
                </mask>
                <g id="Clip-218"></g>
                <polygon id="Fill-217" fill="#FFFFFE" mask="url(#mask-136)" points="-1 -1 3.298 -1 3.298 7.562 -1 7.562"></polygon>
            </g>
            <g id="Group-222" transform="translate(138.381800, 56.277400)">
                <mask id="mask-138" fill="white">
                    <use xlink:href="#path-137"></use>
                </mask>
                <g id="Clip-221"></g>
                <polygon id="Fill-220" fill="#FFFFFE" mask="url(#mask-138)" points="-1 -1 3.298 -1 3.298 11.937 -1 11.937"></polygon>
            </g>
            <g id="Group-225" transform="translate(132.062800, 51.902400)">
                <mask id="mask-140" fill="white">
                    <use xlink:href="#path-139"></use>
                </mask>
                <g id="Clip-224"></g>
                <polygon id="Fill-223" fill="#FFFFFE" mask="url(#mask-140)" points="-1 -1 3.298 -1 3.298 16.312 -1 16.312"></polygon>
            </g>
            <g id="Group-261" transform="translate(0.000000, 97.730000)">
                <mask id="mask-142" fill="white">
                    <use xlink:href="#path-141"></use>
                </mask>
                <g id="Clip-260"></g>
                <polygon id="Fill-259" fill="#FFFFFE" mask="url(#mask-142)" points="-1 -1 12.932 -1 12.932 14.1 -1 14.1"></polygon>
            </g>
            <g id="Group-264" transform="translate(0.762500, 82.806600)">
                <mask id="mask-144" fill="white">
                    <use xlink:href="#path-143"></use>
                </mask>
                <g id="Clip-263"></g>
                <polygon id="Fill-262" fill="#FFFFFE" mask="url(#mask-144)" points="-1 -1 12.683 -1 12.683 11.817 -1 11.817"></polygon>
            </g>
            <g id="Group-267" transform="translate(2.736700, 68.023002)">
                <mask id="mask-146" fill="white">
                    <use xlink:href="#path-145"></use>
                </mask>
                <g id="Clip-266"></g>
                <polygon id="Fill-265" fill="#FFFFFE" mask="url(#mask-146)" points="-1 -1.04920221 12.937 -1.04920221 12.937 11.7687978 -1 11.7687978"></polygon>
            </g>
            <g id="Group-270" transform="translate(7.516900, 54.720300)">
                <mask id="mask-148" fill="white">
                    <use xlink:href="#path-147"></use>
                </mask>
                <g id="Clip-269"></g>
                <polygon id="Fill-268" fill="#FFFFFE" mask="url(#mask-148)" points="-1 -1 13.853 -1 13.853 11.789 -1 11.789"></polygon>
            </g>
            <g id="Group-273" transform="translate(17.406100, 37.970456)">
                <mask id="mask-150" fill="white">
                    <use xlink:href="#path-149"></use>
                </mask>
                <g id="Clip-272"></g>
                <polygon id="Fill-271" fill="#FFFFFE" mask="url(#mask-150)" points="-1 -1.02555563 13.182 -1.02555563 13.182 12.2504444 -1 12.2504444"></polygon>
            </g>
            <g id="Group-276" transform="translate(25.018600, 25.841300)">
                <mask id="mask-152" fill="white">
                    <use xlink:href="#path-151"></use>
                </mask>
                <g id="Clip-275"></g>
                <polygon id="Fill-274" fill="#FFFFFE" mask="url(#mask-152)" points="-1 -1 13.027 -1 13.027 13.001 -1 13.001"></polygon>
            </g>
            <g id="Group-279" transform="translate(42.393800, 12.630000)">
                <mask id="mask-154" fill="white">
                    <use xlink:href="#path-153"></use>
                </mask>
                <g id="Clip-278"></g>
                <polygon id="Fill-277" fill="#FFFFFE" mask="url(#mask-154)" points="-1 -1 14.548 -1 14.548 15.148 -1 15.148"></polygon>
            </g>
            <g id="Group-282" transform="translate(57.344521, 6.783966)">
                <mask id="mask-156" fill="white">
                    <use xlink:href="#path-155"></use>
                </mask>
                <g id="Clip-281"></g>
                <polygon id="Fill-280" fill="#FFFFFE" mask="url(#mask-156)" points="-1.01492126 -1.01706638 12.4370787 -1.01706638 12.4370787 12.5189336 -1.01492126 12.5189336"></polygon>
            </g>
            <g id="Group-285" transform="translate(72.160900, 1.606700)">
                <mask id="mask-158" fill="white">
                    <use xlink:href="#path-157"></use>
                </mask>
                <g id="Clip-284"></g>
                <polygon id="Fill-283" fill="#FFFFFE" mask="url(#mask-158)" points="-1 -1 11.01 -1 11.01 13.079 -1 13.079"></polygon>
            </g>
            <g id="Group-288" transform="translate(86.913100, 0.100583)">
                <mask id="mask-160" fill="white">
                    <use xlink:href="#path-159"></use>
                </mask>
                <g id="Clip-287"></g>
                <polygon id="Fill-286" fill="#FFFFFE" mask="url(#mask-160)" points="-1 -1.03148274 9.354 -1.03148274 9.354 12.4965173 -1 12.4965173"></polygon>
            </g>
            <g id="Group-291" transform="translate(100.050800, 0.000000)">
                <mask id="mask-162" fill="white">
                    <use xlink:href="#path-161"></use>
                </mask>
                <g id="Clip-290"></g>
                <polygon id="Fill-289" fill="#FFFFFE" mask="url(#mask-162)" points="-1 -1 8.474 -1 8.474 12.354 -1 12.354"></polygon>
            </g>
            <g id="Group-294" transform="translate(119.016840, 3.558838)">
                <mask id="mask-164" fill="white">
                    <use xlink:href="#path-163"></use>
                </mask>
                <g id="Clip-293"></g>
                <polygon id="Fill-292" fill="#FFFFFE" mask="url(#mask-164)" points="-1.05684 -1.03953808 12.44516 -1.03953808 12.44516 12.5264619 -1.05684 12.5264619"></polygon>
            </g>
            <g id="Group-297" transform="translate(132.771000, 8.040400)">
                <mask id="mask-166" fill="white">
                    <use xlink:href="#path-165"></use>
                </mask>
                <g id="Clip-296"></g>
                <polygon id="Fill-295" fill="#FFFFFE" mask="url(#mask-166)" points="-1 -1 11.975 -1 11.975 11.865 -1 11.865"></polygon>
            </g>
            <g id="Group-300" transform="translate(148.648700, 18.105000)">
                <mask id="mask-168" fill="white">
                    <use xlink:href="#path-167"></use>
                </mask>
                <g id="Clip-299"></g>
                <polygon id="Fill-298" fill="#FFFFFE" mask="url(#mask-168)" points="-1 -1 12.34 -1 12.34 13.163 -1 13.163"></polygon>
            </g>
            <g id="Group-303" transform="translate(157.156300, 28.871900)">
                <mask id="mask-170" fill="white">
                    <use xlink:href="#path-169"></use>
                </mask>
                <g id="Clip-302"></g>
                <polygon id="Fill-301" fill="#FFFFFE" mask="url(#mask-170)" points="-1 -1 13.553 -1 13.553 13.45 -1 13.45"></polygon>
            </g>
            <g id="Group-306" transform="translate(167.299400, 38.175200)">
                <mask id="mask-172" fill="white">
                    <use xlink:href="#path-171"></use>
                </mask>
                <g id="Clip-305"></g>
                <polygon id="Fill-304" fill="#FFFFFE" mask="url(#mask-172)" points="-1 -1 13.199 -1 13.199 13.759 -1 13.759"></polygon>
            </g>
            <g id="Group-309" transform="translate(175.363100, 48.924000)">
                <mask id="mask-174" fill="white">
                    <use xlink:href="#path-173"></use>
                </mask>
                <g id="Clip-308"></g>
                <polygon id="Fill-307" fill="#FFFFFE" mask="url(#mask-174)" points="-1 -1 13.353 -1 13.353 11.068 -1 11.068"></polygon>
            </g>
            <g id="Group-312" transform="translate(179.565000, 62.322800)">
                <mask id="mask-176" fill="white">
                    <use xlink:href="#path-175"></use>
                </mask>
                <g id="Clip-311"></g>
                <polygon id="Fill-310" fill="#FFFFFE" mask="url(#mask-176)" points="-1 -1 12.078 -1 12.078 11.322 -1 11.322"></polygon>
            </g>
            <g id="Group-315" transform="translate(183.077700, 74.617200)">
                <mask id="mask-178" fill="white">
                    <use xlink:href="#path-177"></use>
                </mask>
                <g id="Clip-314"></g>
                <polygon id="Fill-313" fill="#FFFFFE" mask="url(#mask-178)" points="-1 -1 13.183 -1 13.183 10.012 -1 10.012"></polygon>
            </g>
            <g id="Group-318" transform="translate(185.353000, 86.761200)">
                <mask id="mask-180" fill="white">
                    <use xlink:href="#path-179"></use>
                </mask>
                <g id="Clip-317"></g>
                <polygon id="Fill-316" fill="#FFFFFE" mask="url(#mask-180)" points="-1 -1 12.407 -1 12.407 10.236 -1 10.236"></polygon>
            </g>
            <g id="Group-321" transform="translate(185.330100, 100.934800)">
                <mask id="mask-182" fill="white">
                    <use xlink:href="#path-181"></use>
                </mask>
                <g id="Clip-320"></g>
                <polygon id="Fill-319" fill="#FFFFFE" mask="url(#mask-182)" points="-1 -1 12.384 -1 12.384 10.23 -1 10.23"></polygon>
            </g>
        </g>
    </g>
</svg>