<?xml version="1.0" encoding="UTF-8"?>
<svg width="278px" height="398px" viewBox="0 0 278 398" version="1.1" xmlns="http://www.w3.org/2000/svg" xmlns:xlink="http://www.w3.org/1999/xlink">
    <title>Group</title>
    <g id="Page-1" stroke="none" stroke-width="1" fill="none" fill-rule="evenodd">
        <g id="Group" transform="translate(0.968823, 0.700000)">
            <g id="jbar" transform="translate(0.000000, -0.000000)">
                <path d="M250.331177,170.6 L247.331177,81.1 C247.131177,40.6 200.731177,0 138.931177,0 C77.0311771,0 46.7637211,24.8264252 32.6424442,79.1 L29.0311771,168.3 C24.2311771,163.7 18.4311771,159.8 14.0311771,160.1 C2.33117712,160.8 -0.76882288,180.4 6.83117712,205 C11.9311771,221.3 20.4311771,235.3 29.0311771,242.8 L41.8311771,238 L54.5311771,305.1 C87.5311771,371 145.031177,366.6 145.031177,366.6 L145.431177,366.6 C145.831177,366.6 146.531177,366.7 147.431177,366.7 C150.831177,366.8 157.831177,366.6 166.531177,364 C170.331177,362.9 173.231177,361.7 175.131177,360.8 C191.131177,353.6 210.531177,338.2 226.131177,305.1 L239.531177,239 L249.731177,242.8 C258.231177,235.3 266.831177,221.3 271.931177,205 C279.631177,180.4 276.331177,160.9 264.831177,160.2 C260.331177,159.9 255.331177,165.7 250.331177,170.6 Z" id="XMLID_25_" fill="#C6C6C6" fill-rule="nonzero"></path>
                <path d="M211.131177,180.1 L207.131177,180.1 C202.831177,184.4 196.931177,187.1 190.331177,187.1 C185.531177,187.1 181.031177,185.7 177.331177,183.2 L177.331177,175 C181.631177,170.8 187.731177,168.2 194.431177,168.2 C202.231177,168.2 209.131177,171.7 213.431177,177 C212.831177,178.1 212.031177,179.2 211.131177,180.1 L211.131177,180.1 Z" id="XMLID_26_" fill="#FFFFFF" fill-rule="nonzero"></path>
                <path d="M76.6311771,177 C80.9311771,171.7 87.8311771,168.2 95.6311771,168.2 C102.431177,168.2 108.431177,170.8 112.731177,175 L112.731177,183.2 C109.031177,185.7 104.531177,187.1 99.7311771,187.1 C93.1311771,187.1 87.2311771,184.4 82.9311771,180.1 L78.9311771,180.1 C78.1311771,179.2 77.3311771,178.1 76.6311771,177 Z" id="XMLID_22_" fill="#FFFFFF" fill-rule="nonzero"></path>
                <path d="M83.0311771,180.1 C87.3311771,184.4 93.2311771,187.1 99.8311771,187.1 C104.631177,187.1 109.131177,185.7 112.831177,183.2 L112.831177,175 C108.531177,170.8 102.431177,168.2 95.7311771,168.2 C87.9311771,168.2 81.0311771,171.7 76.7311771,177 C77.4311771,178.1 78.2311771,179.1 79.1311771,180.1 L83.0311771,180.1 Z" id="XMLID_97_-2"></path>
                <path d="M28.5441776,167.3 L43.1311771,179.7 L56.1805301,250.278776 L69.5311771,265.098096 L92.5311771,269.21272 C98.0107354,265.885815 103.601067,264.222363 109.302173,264.222363 C115.003279,264.222363 118.74628,261.135742 120.531177,254.9625 L145.431177,254.95 L144.531177,396.925153 C97.8100508,382.607945 69.2297692,366.224451 58.7903324,347.77467 C48.3508955,329.32489 41.8220208,293.083333 39.2037082,239.05 L28.5441776,167.3 Z" id="Path" fill="#000000" fill-rule="nonzero"></path>
                <path d="M142.544178,170.6 C149.359196,176.333333 152.159196,179.2 150.944178,179.2 C149.729159,179.2 149.729159,184.6 150.944178,195.4 L160.934835,250.097139 L174.307276,264.94065 L197.344821,269.061991 C202.833325,265.729656 208.432783,264.063488 214.143195,264.063488 C219.853607,264.063488 223.602719,260.971829 225.39053,254.788509 L250.331177,254.775989 L249.429708,396.982906 C202.632313,382.642326 174.005376,366.232087 163.548897,347.752189 C153.092419,329.272291 148.890845,293.734344 150.944178,241.138348 L142.544178,170.6 Z" id="Path" fill="#000000" fill-rule="nonzero" transform="translate(196.437677, 283.791453) scale(-1, 1) translate(-196.437677, -283.791453) "></path>
                <path d="M194.431177,168.3 C187.631177,168.3 181.631177,170.9 177.331177,175.1 L177.331177,183.3 C181.031177,185.8 185.531177,187.2 190.331177,187.2 C196.931177,187.2 202.831177,184.5 207.131177,180.2 L211.131177,180.2 C212.031177,179.2 212.831177,178.2 213.531177,177.1 C209.131177,171.7 202.231177,168.3 194.431177,168.3 Z" id="XMLID_96_"></path>
                <path d="M222.131177,145.2 L204.631177,145.1 C175.031177,144.9 152.131177,163.2 152.131177,180.8 L152.131177,220.9 L161.531177,228.899995 L161.531177,186.6 C161.231177,179.7 162.931177,172.8 168.331177,167.1 C188.031177,146.5 221.332508,156.7 226.750797,161.5 L231.46587,157.2 L222.131177,145.2 Z" id="XMLID_31_" fill="#000000" fill-rule="nonzero"></path>
                <path d="M124.431177,234 L137.531177,240.7 L137.531177,180.9 C137.531177,163.4 114.831177,145.2 85.5311771,145.2 L64.5311771,145.2 L62.8311771,148.8 L51.5311771,169.9 C65.8311771,154.8 101.431177,146.8 121.231177,167.2 C135.531177,182 124.231177,208.3 115.731177,214.9 C115.431177,215.1 115.431177,215.3 115.431177,215.3 L124.031177,222.8 C111.131177,238 110.331177,251.6 120.031177,255.4 C119.431177,245.6 120.897844,238.466667 124.431177,234 Z" id="XMLID_19_" fill="#000000" fill-rule="nonzero"></path>
                <path d="M145.031177,314.1 C137.76451,312.633333 132.36451,311.133333 128.831177,309.6 C134.131177,307.3 140.031177,305.3 145.031177,305.3 C149.731177,305.3 155.431177,307.1 160.431177,309.3 C168.431177,305.2 175.131177,299.9 175.131177,299.9 L175.131177,293.6 L144.631177,295.3 L144.631177,295.7 L114.431177,294 L114.431177,309.1 C114.431177,309.1 128.931177,321.1 144.931177,321.1 L144.931177,314.1 L145.031177,314.1 Z" id="XMLID_21_" fill="#A1A1A1" fill-rule="nonzero"></path>
                <path d="M145.031177,294.3 L160.131177,293.3 L177.531177,293.3 L183.531177,292.5 L187.331177,290.2 C187.331177,290.2 162.731177,290.6 153.731177,286.4 L145.131177,289.6 L136.531177,286.4 C127.531177,290.6 103.231177,290.2 103.231177,290.2 L107.031177,292.5 L112.731177,293.3 L130.131177,293.3 L145.031177,294.3 Z" id="XMLID_15_" fill="#7D7D7D" fill-rule="nonzero"></path>
                <path d="M224.831177,179.7 C220.231177,169 209.631177,161.5 197.331177,161.5 C183.231177,161.5 171.431177,171.3 168.231177,184.4 L173.531177,184.4 C176.131177,186.5 179.131177,188.1 182.331177,189.1 C182.731177,189.2 183.031177,189.3 183.431177,189.4 C183.731177,189.5 184.031177,189.5 184.331177,189.6 C184.531177,189.7 184.631177,189.7 184.831177,189.7 C185.031177,189.7 185.231177,189.8 185.431177,189.8 C185.631177,189.9 185.931177,189.9 186.131177,189.9 C186.431177,189.9 186.731177,190 187.031177,190 C187.331177,190 187.631177,190.1 187.931177,190.1 L188.131177,190.1 C188.431177,190.1 188.731177,190.1 189.131177,190.2 L190.331177,190.2 C190.931177,190.2 191.531177,190.2 192.131177,190.1 C192.631177,190.1 193.031177,190 193.531177,190 C193.831177,190 194.031177,189.9 194.331177,189.9 L195.831177,189.6 L195.931177,189.6 C202.131177,188.3 207.631177,184.8 211.431177,180 L211.331177,180 C211.431177,179.9 211.531177,179.7 211.631177,179.6 L224.831177,179.7 L224.831177,179.7 Z M211.131177,180.1 L207.131177,180.1 C202.831177,184.4 196.931177,187.1 190.331177,187.1 C185.531177,187.1 181.031177,185.7 177.331177,183.2 L177.331177,175 C181.631177,170.8 187.731177,168.2 194.431177,168.2 C202.231177,168.2 209.131177,171.7 213.431177,177 C212.831177,178.1 212.031177,179.2 211.131177,180.1 Z" id="XMLID_39_" fill="#000000" fill-rule="nonzero"></path>
                <path d="M94.1311771,189.8 C94.9311771,190 95.7311771,190.1 96.6311771,190.2 C97.1311771,190.3 97.5311771,190.3 98.0311771,190.3 C98.6311771,190.3 99.2311771,190.4 99.8311771,190.4 L102.231177,190.4 C102.531177,190.4 102.831177,190.3 103.031177,190.3 C103.331177,190.3 103.631177,190.2 103.931177,190.2 C104.131177,190.2 104.431177,190.1 104.631177,190.1 C104.831177,190.1 104.931177,190 105.131177,190 C105.331177,190 105.531177,189.9 105.731177,189.9 C106.031177,189.8 106.231177,189.8 106.531177,189.7 C106.931177,189.6 107.231177,189.5 107.631177,189.4 C110.831177,188.4 113.831177,186.8 116.431177,184.7 L121.731177,184.7 C118.631177,171.6 106.831177,161.8 92.7311771,161.8 C80.3311771,161.8 69.7311771,169.3 65.2311771,180 L78.4311771,180 C78.5311771,180.1 78.6311771,180.3 78.7311771,180.4 L78.6311771,180.4 C81.9311771,184.6 86.5311771,187.8 91.8311771,189.4 C92.6311771,189.4 93.4311771,189.6 94.1311771,189.8 L94.1311771,189.8 Z M76.6311771,177 C80.9311771,171.7 87.8311771,168.2 95.6311771,168.2 C102.431177,168.2 108.431177,170.8 112.731177,175 L112.731177,183.2 C109.031177,185.7 104.531177,187.1 99.7311771,187.1 C93.1311771,187.1 87.2311771,184.4 82.9311771,180.1 L78.9311771,180.1 C78.1311771,179.2 77.3311771,178.1 76.6311771,177 Z" id="XMLID_42_" fill="#000000" fill-rule="nonzero"></path>
                <path d="M145.531177,294.3 L145.331177,294.3 L145.531177,294.3 Z" id="XMLID_62_-2" fill="#212121" fill-rule="nonzero"></path>
                <path d="M131.031177,255.3 L140.831177,255.3 C136.531177,245.6 123.031177,243.6 131.031177,255.3 Z" id="XMLID_61_" fill="#000000" fill-rule="nonzero"></path>
                <path d="" id="XMLID_60_" fill="#212121" fill-rule="nonzero"></path>
                <path d="M159.031177,255.5 C167.231177,243.5 153.531177,245.6 149.231177,255.5 L159.031177,255.5 Z" id="XMLID_59_" fill="#000000" fill-rule="nonzero"></path>
                <path d="" id="XMLID_58_" fill="#212121" fill-rule="nonzero"></path>
                <polygon id="XMLID_57_" fill="#212121" fill-rule="nonzero" points="140.831177 255.5 140.831177 255.4 131.031177 255.4 131.131177 255.5"></polygon>
                <path d="M183.931177,292.2 C183.831177,292.3 183.731177,292.3 183.531177,292.4 L183.931177,292.2 Z" id="XMLID_56_" fill="#212121" fill-rule="nonzero"></path>
                <path d="M145.431177,294.3 L145.031177,294.3 L145.031177,294.2 C145.231177,294.2 145.331177,294.3 145.431177,294.3 Z" id="XMLID_55_" fill="#212121" fill-rule="nonzero"></path>
                <path d="M183.831177,292.2 L183.531177,292.4 C180.631177,293.9 177.831177,294.9 175.231177,295.6 C167.731177,297.7 161.531177,297.2 157.231177,297.2 C150.531177,297.2 145.531177,300.5 145.531177,300.5 L145.131177,300.3 C145.031177,300.3 144.931177,300.2 144.831177,300.1 C143.231177,299.2 139.031177,297.2 133.831177,297.2 C129.231177,297.2 123.231177,298 114.731177,295.3 C112.531177,294.6 110.031177,293.7 107.431177,292.4 L106.831177,292.1 L135.031177,292.1 C139.231177,292.1 143.731177,293.6 145.131177,294.1 L145.131177,294.2 L145.731177,294.2 C146.431177,293.9 151.431177,292.1 156.131177,292.1 L183.831177,292.2 L183.831177,292.2 Z" id="XMLID_53_-2" fill="#000000" fill-rule="nonzero"></path>
                <path d="M145.031177,294.2 L145.031177,294.3 L145.031177,294.2 Z" id="XMLID_52_-2" fill="#212121" fill-rule="nonzero"></path>
                <path d="M120.131177,255.3 C116.431177,253.9 114.231177,251.1 113.731177,247.3 C114.931177,250.7 117.131177,253.5 120.131177,255.3 Z" id="XMLID_51_" fill="#212121" fill-rule="nonzero"></path>
                <polygon id="XMLID_50_" fill="#212121" fill-rule="nonzero" points="129.731177 255.4 120.231177 255.4 120.131177 255.4"></polygon>
                <path d="M129.731177,255.4 L129.531177,255.4 L129.731177,255.4 C129.631177,255.3 129.631177,255.3 129.731177,255.4 Z" id="XMLID_49_" fill="#212121" fill-rule="nonzero"></path>
                <path d="M129.631177,255.3 L120.131177,255.3 C117.131177,253.5 114.931177,250.7 113.731177,247.3 C110.931177,239.6 113.331177,229.2 124.131177,222.8 L124.431177,234 C122.831177,236.1 121.631177,238.3 121.031177,240.6 C119.731177,245.7 121.731177,251.1 129.631177,255.3 Z" id="XMLID_48_" fill="#000000" fill-rule="nonzero"></path>
                <path d="M129.731177,255.4 L120.231177,255.4 L120.131177,255.4 L129.531177,255.4 C129.531177,255.3 129.631177,255.3 129.731177,255.4 Z" id="XMLID_47_" fill="#212121" fill-rule="nonzero"></path>
                <path d="M231.731177,165.1 C234.831177,155.1 227.031177,145.4 222.131177,145.2 C218.231177,145.5 208.831177,149.3 204.131177,154.8 C204.031177,154.8 219.831177,155.1 231.731177,165.1 Z" id="XMLID_46_" fill="#000000" fill-rule="nonzero"></path>
                <path d="M185.631177,156.7 C184.631177,157 183.631177,157.3 182.731177,157.7 C183.631177,157.5 184.531177,157.2 185.631177,156.7 Z" id="XMLID_45_" fill="#212121" fill-rule="nonzero"></path>
                <path d="M202.931177,145.3 C194.831177,145.3 173.531177,149.3 171.731177,155.3 C171.331177,156.8 173.631177,160.3 182.631177,157.7 C183.631177,157.3 184.631177,157 185.531177,156.7 C185.631177,156.7 185.731177,156.6 185.831177,156.6 C185.831177,156.7 195.931177,147.9 202.931177,145.3 L202.931177,145.3 Z" id="XMLID_38_" fill="#000000" fill-rule="nonzero"></path>
                <path d="M211.631177,179.7 C211.531177,179.8 211.431177,180 211.331177,180.1 L211.131177,180.1 C211.231177,180 211.331177,179.8 211.531177,179.7 L211.631177,179.7 Z" id="XMLID_37_" fill="#212121" fill-rule="nonzero"></path>
                <line x1="211.431177" y1="180.1" x2="211.231177" y2="180.1" id="XMLID_36_"></line>
                <path d="M79.0311771,180.1 L78.8311771,180.1 C78.7311771,180 78.6311771,179.8 78.5311771,179.7 L78.6311771,179.7 L79.0311771,180.1 Z" id="XMLID_35_" fill="#212121" fill-rule="nonzero"></path>
                <path d="M195.631177,166.5 C188.431177,166.5 181.831177,169.8 177.331177,174.4 L177.331177,175.8 C178.731177,174.5 180.231177,173.3 181.931177,172.4 C181.831177,173 181.731177,173.6 181.731177,174.3 C181.731177,179.2 185.731177,183.2 190.631177,183.2 C195.531177,183.2 199.531177,179.2 199.531177,174.3 C199.531177,173 199.331177,171.8 198.931177,170.7 C203.931177,172.2 208.131177,175.4 210.931177,179.7 L218.231177,179.7 C213.731177,171.8 205.331177,166.5 195.631177,166.5 L195.631177,166.5 Z M193.731177,177.7 L193.731177,173.2 C194.931177,173.2 196.031177,174.2 196.031177,175.5 C196.031177,176.8 195.031177,177.7 193.731177,177.7 Z" id="XMLID_28_" fill="#000000" fill-rule="nonzero"></path>
                <path d="M177.331177,174.4 L177.331177,175 L176.931177,175.4 L176.931177,174.8 C177.031177,174.7 177.231177,174.6 177.331177,174.4 Z" id="XMLID_27_" fill="#212121" fill-rule="nonzero"></path>
                <path d="M177.331177,175 L177.331177,175.8 C177.231177,175.9 177.031177,176 176.931177,176.2 L176.931177,175.4 C177.031177,175.3 177.231177,175.2 177.331177,175 Z" id="XMLID_24_" fill="#212121" fill-rule="nonzero"></path>
                <path d="M78.5311771,179.7 L72.1311771,179.7 L78.5311771,179.7 Z" id="XMLID_23_" fill="#212121" fill-rule="nonzero"></path>
                <path d="M94.5311771,166.5 C84.9311771,166.5 76.5311771,171.8 72.1311771,179.7 L79.3311771,179.7 C82.1311771,175.5 86.3311771,172.2 91.3311771,170.7 C90.9311771,171.8 90.7311771,173.1 90.7311771,174.3 C90.7311771,179.2 94.7311771,183.2 99.6311771,183.2 C104.531177,183.2 108.531177,179.2 108.531177,174.3 C108.531177,173.7 108.431177,173 108.331177,172.4 C110.031177,173.3 111.531177,174.5 112.931177,175.8 L112.931177,174.4 C108.331177,169.9 101.631177,166.5 94.5311771,166.5 L94.5311771,166.5 Z M102.731177,177.7 L102.731177,173.2 C103.931177,173.2 105.031177,174.2 105.031177,175.5 C105.031177,176.8 103.931177,177.7 102.731177,177.7 Z" id="XMLID_16_" fill="#000000" fill-rule="nonzero"></path>
                <path d="M117.931177,155.4 C116.131177,149.3 94.9311771,145.4 86.7311771,145.4 C93.7311771,148 103.831177,156.7 103.831177,156.7 C115.531177,161.2 118.431177,157 117.931177,155.4 L117.931177,155.4 Z" id="XMLID_14_" fill="#000000" fill-rule="nonzero"></path>
                <path d="M205.631177,37.8 C205.531177,37.8 205.531177,37.9 205.531177,37.9 L205.431177,37.6 C205.531177,37.7 205.631177,37.7 205.631177,37.8 L205.631177,37.8 Z" id="XMLID_4_" fill="#212121" fill-rule="nonzero"></path>
                <path d="M106.831177,388.089322 C106.831177,388.089322 108.692279,391.735577 124.431177,393.925153 C140.170075,396.114728 150.724799,397.467554 165.131177,393.982906 C179.537555,390.498257 174.821527,391.376477 184.231177,388.089322 C193.640827,384.802167 208.703144,373.333356 217.761554,361.719418 C218.300572,361.028334 211.277093,365.393942 210.7577,364.813463 C202.548488,355.638758 70.0091553,359.963911 77.3704639,366.719418 C89.4871555,377.838962 106.831177,388.089322 106.831177,388.089322 Z" id="Path-2" fill="#000000"></path>
            </g>
        </g>
    </g>
</svg>