<svg id="Shape" xmlns="http://www.w3.org/2000/svg" viewBox="0 0 1500 1500"><path fill="#fff" d="M1170.63,1018.1a79.37,79.37,0,1,0,0-158.73c32.85,6.61,59.53,39.89,59.53,79.36S1203.48,1011.48,1170.63,1018.1Z"/><path fill="#fff" d="M1067.46,1018.1a79.37,79.37,0,1,0,0-158.73c21.91,13.23,39.68,44.23,39.68,79.36S1089.37,1004.87,1067.46,1018.1Z"/><path fill="#fff" d="M964.29,1018.1a79.37,79.37,0,0,0,0-158.73c11,19.84,19.84,48.57,19.84,79.36S975.24,998.25,964.29,1018.1Z"/><path fill="#fff" d="M861.11,1018.1a79.37,79.37,0,1,0,0-158.73Z"/><path fill="#fff" d="M757.94,1018.1a79.37,79.37,0,0,0,0-158.73c-11,19.84-19.84,48.57-19.84,79.36S747,998.25,757.94,1018.1Z"/><path fill="#fff" d="M634.92,1018.1a79.37,79.37,0,1,0,0-158.73c-21.9,13.23-39.68,44.23-39.68,79.36S613,1004.87,634.92,1018.1Z"/><path fill="#fff" d="M492.06,1018.1a79.37,79.37,0,1,0,0-158.73c-32.85,6.61-59.52,39.89-59.52,79.36S459.21,1011.48,492.06,1018.1Z"/><circle cx="329.37" cy="938.73" r="79.37"/><path fill="#fff" d="M1170.63,829.37a79.37,79.37,0,0,0,0-158.74c32.85,6.62,59.53,39.9,59.53,79.37S1203.48,822.75,1170.63,829.37Z"/><path fill="#fff" d="M1067.46,829.37a79.37,79.37,0,0,0,0-158.74c21.91,13.23,39.68,44.24,39.68,79.37S1089.37,816.14,1067.46,829.37Z"/><path fill="#fff" d="M964.29,829.37a79.37,79.37,0,0,0,0-158.74c11,19.85,19.84,48.58,19.84,79.37S975.24,809.52,964.29,829.37Z"/><path fill="#fff" d="M861.11,829.37a79.37,79.37,0,1,0,0-158.74Z"/><path fill="#fff" d="M757.94,829.37a79.37,79.37,0,0,0,0-158.74C747,690.48,738.1,719.21,738.1,750S747,809.52,757.94,829.37Z"/><path fill="#fff" d="M634.92,829.37a79.37,79.37,0,1,0,0-158.74C613,683.86,595.24,714.87,595.24,750S613,816.14,634.92,829.37Z"/><path fill="#fff" d="M492.06,829.37a79.37,79.37,0,0,0,0-158.74c-32.85,6.62-59.52,39.9-59.52,79.37S459.21,822.75,492.06,829.37Z"/><circle cx="329.37" cy="750" r="79.37"/><path fill="#fff" d="M1170.63,640.63a79.37,79.37,0,1,0,0-158.73c32.85,6.62,59.53,39.9,59.53,79.37S1203.48,634,1170.63,640.63Z"/><path fill="#fff" d="M1067.46,640.63a79.37,79.37,0,1,0,0-158.73c21.91,13.23,39.68,44.24,39.68,79.37S1089.37,627.4,1067.46,640.63Z"/><path fill="#fff" d="M964.29,640.63a79.37,79.37,0,0,0,0-158.73c11,19.85,19.84,48.58,19.84,79.37S975.24,620.79,964.29,640.63Z"/><path fill="#fff" d="M861.11,640.63a79.37,79.37,0,1,0,0-158.73Z"/><path fill="#fff" d="M757.94,640.63a79.37,79.37,0,0,0,0-158.73c-11,19.85-19.84,48.58-19.84,79.37S747,620.79,757.94,640.63Z"/><path fill="#fff" d="M634.92,640.63a79.37,79.37,0,1,0,0-158.73c-21.9,13.23-39.68,44.24-39.68,79.37S613,627.4,634.92,640.63Z"/><path fill="#fff" d="M492.06,640.63a79.37,79.37,0,1,0,0-158.73c-32.85,6.62-59.52,39.9-59.52,79.37S459.21,634,492.06,640.63Z"/><circle cx="329.37" cy="561.27" r="79.37"/></svg>