<svg id="Shape" xmlns="http://www.w3.org/2000/svg" viewBox="0 0 1500 1500"><path fill="#fff" d="M1255,1255H245V245H1255ZM255,1245h990V255H255Z"/><path fill="#fff" d="M1251,1216H319.93V284H1251Zm-929.07-2H1249v-30.54H388.36V316.54H1249V286H321.93Zm68.43-32.54H1249v-28.29H454.55V346.83H1249V318.54H390.36Zm66.19-30.29H1249V1125H518.61V375H1249V348.83H456.55ZM520.61,1123H1249v-24.21H580.71V401.14H1249V377H520.61Zm62.1-26.21H1249v-22.35H641v-649H1249V403.14H582.71ZM643,1072.48H1249v-20.62H699.5V448.14H1249V427.49H643Zm58.55-22.62H1249v-19.07H756.46V469.21H1249V450.14H701.5Zm57-21.07H1249v-17.57H812V488.78h437V471.21H758.46Zm55.5-19.57h435V993l-382.93,0V507H1249V490.78H814ZM868.07,991,1249,991v-15H918.92V524H1249V509H868.07Zm52.85-16.92H1249V960.3H970.6V539.7H1249V526H920.92ZM972.6,958.3H1249V945.63H1021.16V554.33H1249V541.7H972.6Zm50.56-14.67H1249V932H1070.69V568H1249V556.33H1023.16Zm49.53-13.6H1249V919.36H1119.26V580.64H1249V570H1072.69Zm48.57-12.67H1249v-9.81h-82V592.42h82v-9.78H1121.26Zm47.7-11.81h80V896.6h-35.2V603.4H1249v-9h-80Zm46.84-10.95H1249V605.4h-33.2Z"/></svg>