<svg id="Shape" xmlns="http://www.w3.org/2000/svg" viewBox="0 0 1500 1500"><path fill="#fff" d="M276.6,911.33q5.22,15.3,11.38,30.14h924q6.15-14.84,11.38-30.14Z"/><path fill="#fff" d="M378.57,415.28a503,503,0,0,0-48.51,63.23h839.88a503,503,0,0,0-48.51-63.23Z"/><path fill="#fff" d="M371.51,1076.72q8.4,9.73,17.29,19h722.4q8.88-9.29,17.29-19Z"/><path fill="#fff" d="M318.1,497.93a499.18,499.18,0,0,0-28.94,57.77h921.68a499.18,499.18,0,0,0-28.94-57.77Z"/><path fill="#fff" d="M250,746q0,2,0,4,0,18.76,1.37,37.19h997.26Q1250,768.77,1250,750q0-2,0-4Z"/><path fill="#fff" d="M313.49,994q7,12.51,14.72,24.58h843.58q7.7-12.06,14.72-24.58Z"/><path fill="#fff" d="M256.16,828.65q2.85,18.06,7,35.67h973.72q4.13-17.61,7-35.67Z"/><path fill="#fff" d="M1248.42,710q-1.87-23.7-5.92-46.75h-985q-4,23-5.92,46.75Z"/><path fill="#fff" d="M487.9,324.13h524.2a500.42,500.42,0,0,0-524.2,0Z"/><path fill="#fff" d="M279.44,580.6a495.37,495.37,0,0,0-15.64,52.27h972.4a495.37,495.37,0,0,0-15.64-52.27Z"/><path fill="#fff" d="M391.63,401.33h716.74a503.14,503.14,0,0,0-82.95-68.7H474.58A503.14,503.14,0,0,0,391.63,401.33Z"/><path fill="#fff" d="M1016.91,1172.86q10.25-6.46,20.13-13.42H463q9.89,6.94,20.13,13.42Z"/><path fill="#fff" d="M661.2,1242.14a505.55,505.55,0,0,0,177.6,0Z"/></svg>