<svg id="Shape" xmlns="http://www.w3.org/2000/svg" viewBox="0 0 1500 1500"><path fill="#fff" d="M619,1152.38,643.68,403.3,707,439.13,1092,894.8,1173.21,862l77.55,91.78-1.52,1.29-75.41-89.24-4.1,124-78.3-92.65-405,163.71Zm26.62-745.71L621.16,1146l64-86.76,404.88-163.67L705.65,440.69Zm447.82,489.74,74.51,88.18,4-119.9Z"/><path fill="#fff" d="M845,1121.12,690,937.66l-132.7,179.8,8.27-250.68-60.38-34.19-132.92,180.1,8.35-252.94,124,70.23,65.06-88.15,8.23-249.41,124,70.22.22-.3.35.41,163.11-65.94L857.39,746l76.37,90.37,163.12-65.94-8.33,252.2L933.17,838.8l-79.91,32.3ZM691.58,936.46l151.6,179.4,8.05-243.94ZM567.51,867.89l-8,243.2,129-174.72ZM935.12,838l151.6,179.39,8.06-243.93ZM382.49,763.12l-8,243.2,129-174.72Zm185.1,102.51L690,934.94l161.31-65.21,4.05-123L702.26,565.56l-130.61,177ZM857.29,749l-4,119.9,78.48-31.72ZM506.37,831l59.25,33.55,3.94-119.17ZM703.86,564.36l151.6,179.39,8-243.93ZM579.8,495.78l-8,243.21,129-174.73Z"/><path fill="#fff" d="M763.83,1153.93l-78.65-93.06L377.72,886.78l-67.15,91,4.26-128.9,62.34,35.3L639.72,528.43l65.94-89.34,82.87-33.5ZM378.92,885.16,686.48,1059.3l.11.14L762,1148.67,786.43,408.6l-79.5,32.13Zm-62.2-32.93L312.78,971.4,376,885.78Z"/><path fill="#fff" d="M926.19,1088.3,694.07,813.63,495.6,1082.53l4.09-124-65.76,89.11,12.44-377L508,705.56l4.1-124L697.83,686.67l.23-.3.35.41L942.7,588l-4.09,124,81.18-32.82-12.42,376.24-77.08-91.22ZM695.67,812.43,924.36,1083l4-121L774.9,780.4ZM501.79,955.66l-4,120.51L692.54,812.33,632.62,778.4Zm428.59,5.62,75.16,88.94,12.15-368-79.15,32ZM448.26,674l-12.12,367.24L499.81,955,508,707.82Zm328.59,105.6L928.46,959l8-243.93ZM509.93,708.93l-8,243.2,129-174.72Zm123.89,67.85,60.27,34.13,79.45-32.12-75.38-89.2Zm65.95-88.39L775.49,778l161.09-65.12,4-121.85ZM510,706.67l122,69.12,64.58-87.5L514,584.89Z"/><path fill="#fff" d="M681.37,1189.66,242.63,941.23,710.12,307.82l548.16,648.63Zm-424-251.57,424.72,240.49L761,1146.66l81.19-32.81,399.49-161.5L710.66,323.94,385.56,764.4Z"/><path fill="#fff" d="M681.73,1189.12h-.16a5,5,0,0,1-4.84-5.16l28.66-868.25a5,5,0,0,1,10,.33l-28.66,868.25A5,5,0,0,1,681.73,1189.12Z"/></svg>