<?xml version="1.0" encoding="UTF-8"?>
<svg width="2486px" height="892px" viewBox="0 0 2486 892" version="1.1" xmlns="http://www.w3.org/2000/svg" xmlns:xlink="http://www.w3.org/1999/xlink">
    <title>capital-one-logo</title>
    <g id="Page-1" stroke="none" stroke-width="1" fill="none" fill-rule="evenodd">
        <g id="capital-one-logo" transform="translate(0.992454, 0.004158)" fill="#FFFFFF" fill-rule="nonzero">
            <path d="M1686.21093,645.005656 C1686.07428,645.142305 1685.92521,645.142305 1685.92521,645.291377 C1580.08407,720.187648 1454.78903,798.872832 1319.95338,881.471158 L1314.63648,884.55198 C1312.91532,885.861574 1312.53676,888.297244 1313.77925,890.067459 C1315.02174,891.837673 1317.44106,892.309545 1319.25771,891.135994 L1323.72987,888.750842 C1438.11781,829.122031 1569.45027,758.263128 1701.61504,685.602938 C1702.31071,685.192989 1703.00638,684.770619 1703.71447,684.484897 C1696.19771,672.135589 1690.3102,658.865709 1686.19851,645.005656 L1686.21093,645.005656 Z M2380.63812,82.8923112 C2213.87621,-101.074992 1140.74396,64.4073799 684.471757,164.099298 L673.837952,166.335378 C672.792192,166.510756 671.860841,167.099184 671.25339,167.968307 C670.645939,168.837429 670.413393,169.914269 670.608058,170.956611 C671.030429,173.192691 673.12986,174.596453 675.229291,174.174082 L685.726446,172.074651 C1063.74826,104.743786 1850.00382,11.4868105 2019.12603,179.217686 C2070.79191,230.461195 2058.46863,296.251649 1998.54167,374.104515 C2030.74123,394.825527 2053.69832,427.435033 2064.07125,468.181387 C2297.86588,313.05952 2454.81388,164.794967 2380.61328,82.8923112 L2380.63812,82.8923112 Z" id="Shape" opacity="0.5"></path>
            <g id="Group" transform="translate(0.000000, 367.636253)">
                <path d="M1753.69087,229.070066 C1755.80272,293.754903 1796.80995,346.812122 1850.15289,346.812122 C1953.6213,346.812122 1997.72178,219.690951 1994.62853,134.844123 C1992.39245,70.0226367 1950.40383,17.1019567 1897.06089,17.1019567 C1808.15185,16.9654179 1750.61005,143.527568 1753.69087,229.070066 L1753.69087,229.070066 Z M1699.09324,225.566874 C1695.30432,115.104502 1781.82821,2.12032856 1907.54562,2.12032856 C1991.56013,2.12032856 2046.58013,58.1217199 2049.66095,143.949939 C2053.72317,260.424883 1972.8019,367.396484 1841.3328,367.396484 C1757.05741,367.396484 1702.02499,311.531743 1699.09324,225.566874 L1699.09324,225.566874 Z M508.405271,196.448138 C503.93311,198.125198 498.181414,199.802259 490.90173,201.342669 C483.758695,203.032152 470.603089,205.268233 451.559138,208.349055 C438.391109,210.448486 429.297715,213.106937 424.117462,216.883428 C419.222931,220.52327 416.291181,224.871204 415.434017,230.324756 C414.465048,236.064029 416.278758,240.548612 421.185712,244.188454 C426.216893,247.691647 434.614617,249.505357 446.527957,249.505357 C455.472278,249.505357 464.168147,248.114018 472.565871,245.306495 C481.100244,242.511394 488.379928,238.72248 493.845903,233.964598 C497.908115,230.473828 500.839865,225.989245 503.075946,220.52327 C504.479707,216.883428 506.305839,208.908075 508.405271,196.448138 L508.405271,196.448138 Z M617.60053,128.54583 C617.190582,138.620614 615.36445,147.589781 612.705998,163.13054 L594.221067,266.859825 C592.680656,276.114714 596.0472,283.257748 604.581573,288.288929 L604.022553,292.351142 L498.181414,292.214492 L497.200023,265.878434 C481.278388,275.29193 464.198491,282.591602 446.391307,287.59326 C429.583436,291.941194 416.005459,293.754903 395.706818,293.754903 C361.544479,293.754903 341.941507,290.251711 328.36353,278.350794 C314.636481,266.176578 307.915817,258.052153 308.611487,241.244282 C309.18293,231.591868 314.21411,219.131931 321.357145,210.448486 C328.636829,201.628391 338.724036,195.889118 349.49449,190.696442 C360.426439,185.528612 373.296324,181.752121 391.917904,178.807948 C410.676134,175.727126 436.726471,172.782954 471.58448,169.851204 C489.920339,168.310793 501.125587,164.111931 506.305839,162.0125 C513.585523,159.204977 516.517273,155.987505 517.498664,150.111583 C519.461446,139.465356 516.107325,133.303712 501.821256,130.508612 C463.745776,122.943206 392.203626,135.403143 355.382835,144.508959 L375.395755,90.4703497 C423.96839,83.3273151 469.485049,78.8427316 517.511087,78.8427316 C594.084418,78.8427316 618.445272,100.545134 617.60053,128.54583 L617.60053,128.54583 Z M924.502565,292.214492 L961.174283,84.867726 L1062.54326,84.867726 L1025.85912,292.20207 L924.502565,292.214492 Z M966.776907,36.8416881 C969.857729,19.7605184 996.740384,6.03346926 1026.69144,6.03346926 C1056.79157,6.03346926 1078.77969,19.8971677 1075.83552,36.8416881 C1072.60562,53.9228578 1045.87204,67.7741336 1015.63526,67.7741336 C985.671786,67.7741336 963.832735,53.9228578 966.776907,36.8416881 L966.776907,36.8416881 Z M1422.4404,196.870509 C1417.81917,198.41092 1411.94325,200.08798 1404.80021,201.76504 C1397.65718,203.442101 1384.50157,205.553954 1365.45762,208.622353 C1352.43866,210.734207 1343.1962,213.392658 1338.16502,217.16915 C1333.25806,220.672342 1330.46296,225.144503 1329.34492,230.461405 C1328.22688,236.213101 1330.32631,240.834334 1335.08419,244.325104 C1340.26445,247.828296 1348.66217,249.505357 1360.55067,249.505357 C1369.37076,249.505357 1378.06663,248.250667 1386.601,245.592216 C1395.28445,242.648044 1402.42748,239.008202 1408.01768,234.250319 C1411.94325,230.747127 1414.88742,226.125894 1416.98685,220.808992 C1418.37819,217.305799 1420.20432,209.330446 1422.45282,196.870509 L1422.4404,196.870509 Z M1531.63566,128.831551 C1531.22571,139.042985 1529.39958,148.012152 1526.60448,163.403839 L1508.26862,267.294619 C1506.72821,276.388012 1510.08233,283.667696 1518.62913,288.7113 L1518.07011,292.351142 L1412.22897,292.487791 L1411.38423,266.027506 C1395.50414,275.528384 1378.40761,282.829198 1360.56309,287.729909 C1343.75522,292.20207 1330.17724,294.028202 1309.6053,294.028202 C1275.44296,294.028202 1255.97664,290.674081 1242.39866,278.624093 C1228.53496,266.313228 1221.96337,258.325452 1222.64662,241.530003 C1223.08141,231.728518 1228.11259,219.268581 1235.39228,210.721784 C1242.68438,201.777463 1252.75917,196.162417 1263.67869,190.982164 C1274.59822,185.801911 1287.48053,182.037842 1305.96546,178.944597 C1324.72369,176.012848 1350.89825,172.932026 1385.75626,169.987853 C1403.96789,168.447442 1415.16072,164.397652 1420.34097,162.285799 C1427.7573,159.490698 1430.56483,156.260804 1431.68287,150.23581 C1433.509,139.751077 1430.27911,133.589433 1416.14211,130.645261 C1377.78091,123.079856 1306.52448,135.552215 1269.70369,144.645609 L1289.57996,90.606999 C1338.30167,83.4639644 1383.65683,78.979381 1431.68287,78.979381 C1507.9829,79.128453 1532.34375,100.967505 1531.64808,128.831551 L1531.63566,128.831551 Z M294.89686,217.72817 C261.852561,224.312184 243.380053,226.833986 210.758124,226.833986 C162.309715,226.833986 123.811864,202.746431 125.911296,158.645957 C127.451706,129.241499 162.173066,67.3641856 250.510664,67.3641856 C278.374711,67.3641856 300.077113,72.2587171 329.332499,88.9299387 L342.214806,16.9654179 C302.462266,1.9836792 276.126208,-0.252401195 241.963868,0.0208975204 C126.060368,1.28800975 14.8899037,53.9352805 1.0262052,161.018686 C-12.9741426,269.803998 119.898724,297.109024 178.831865,296.83775 C212.857555,296.686653 248.274584,295.295314 281.318883,291.928771 L294.89686,217.72817 Z M1118.39558,83.7496858 L1125.67526,41.4629209 L1231.66548,18.3567568 L1220.32358,83.6006138 L1272.25033,83.6006138 L1262.46127,125.328359 L1212.0625,125.191709 L1181.40336,291.928771 C1181.40336,291.928771 1079.33871,291.233102 1078.91634,291.928771 L1109.43884,125.601657 L1071.07764,125.601657 L1078.91634,83.6130365 L1118.39558,83.6130365 L1118.39558,83.7496858 Z M1683.87547,5.76017055 L1634.59474,292.06542 L1531.41205,292.20207 L1583.35123,2.95264738 L1683.87547,5.76017055 Z M790.375009,133.440361 C777.374711,133.356266 764.715108,137.59507 754.386537,145.49035 C743.752733,153.602353 737.032069,165.36662 734.373618,180.907379 C731.143724,198.96994 733.106505,211.988897 740.24954,219.96425 C747.529224,227.952026 757.88973,232.014239 771.604356,232.014239 C780.846822,232.014239 790.362586,230.324756 797.368971,226.833986 C806.052417,222.212753 812.064989,217.442448 817.245242,209.752816 C822.847865,201.76504 826.487707,192.808296 828.450489,182.44779 C831.394662,166.06229 828.87286,153.875652 821.307454,145.763649 C813.891121,137.651646 803.667265,133.440361 790.375009,133.440361 L790.375009,133.440361 Z M605.848685,363.756643 L655.266062,85.9857662 L744.311753,85.9857662 L737.442017,121.402795 C745.144071,110.768991 757.467359,102.085545 774.548529,95.0791598 C791.766348,88.0851973 811.083598,82.9049443 832.090331,82.9049443 C855.320722,82.9049443 869.606791,84.1596339 886.973682,93.1288008 C904.191501,102.222194 916.378139,115.390223 922.813082,132.471393 C929.521323,149.266842 930.937507,168.310793 927.285243,188.882733 C921.272671,223.194144 904.613872,250.064377 877.172196,269.95307 C850.016242,289.82934 825.506317,295.009593 790.648308,295.146242 C778.32502,295.146242 767.964514,293.891553 759.430141,291.792122 C751.032417,289.556041 744.311753,286.885167 739.268149,283.667696 C734.373618,280.450225 729.193365,275.828992 722.60935,268.549308 L706.087201,363.756643 L605.848685,363.756643 Z M2445.73291,158.931678 C2445.17389,142.260456 2436.76374,130.930982 2419.54592,130.930982 C2377.96725,130.930982 2333.73012,212.411267 2326.16472,245.170189 C2394.35275,245.306495 2447.40997,204.709213 2445.73291,158.931678 Z M2454.67723,286.611869 L2462.665,292.077843 C2442.36636,333.370794 2401.07341,366.551743 2352.625,366.551743 C2312.99669,366.551743 2280.38718,340.091458 2278.71012,290.525009 C2275.48023,201.628391 2358.78665,119.166715 2426.96225,119.166715 C2456.23006,119.166715 2483.38602,131.89995 2484.50406,163.403839 C2487.02586,234.11367 2387.76873,255.667001 2322.38823,257.207411 C2320.27637,264.623745 2319.44405,272.052501 2319.86642,283.245325 C2320.98447,312.513133 2338.62465,337.159708 2375.3088,337.159708 C2406.94933,337.159708 2438.58987,311.668392 2454.68965,286.599446 L2454.67723,286.611869 Z" id="Shape"></path>
                <path d="M2048.12054,156.683175 C2055.11451,155.701784 2066.4564,154.447094 2071.35093,154.447094 C2078.77969,154.447094 2085.77365,155.850856 2086.19602,163.267189 C2086.3451,167.615123 2078.49397,199.106589 2076.81691,206.386273 L2061.00285,276.114714 C2054.55549,304.674429 2047.69817,334.501257 2041.53653,358.154019 L2082.13381,358.154019 L2104.95425,247.691647 C2174.54604,175.168106 2201.41628,151.502922 2217.80178,151.502922 C2225.21811,151.502922 2230.26171,155.428485 2230.68408,164.24858 C2231.10646,176.981816 2223.11868,205.963902 2220.46023,214.374049 L2197.22984,294.872944 C2191.90051,312.935504 2187.98737,329.308582 2188.40974,340.9362 C2189.10541,358.57639 2199.73922,366.402671 2215.70235,366.402671 C2245.39252,366.402671 2266.94586,335.470225 2285.70409,305.084377 L2280.23811,295.146242 C2272.68513,307.320458 2255.04494,334.066464 2241.18124,334.066464 C2236.83331,334.066464 2232.64687,331.134714 2232.49779,323.85503 C2232.08785,314.475915 2236.00099,300.326495 2238.80851,290.94738 L2264.70977,196.584787 C2271.70374,170.546873 2274.92121,153.888074 2274.78456,144.93133 C2274.08889,127.29114 2263.85261,119.030065 2248.03855,119.030065 C2221.30497,119.030065 2185.88794,138.620614 2110.70595,225.007854 L2109.58791,225.007854 L2119.10367,182.870161 C2124.28393,159.763997 2129.31511,135.688864 2134.08541,119.017643 C2108.03507,128.40918 2070.80434,138.906336 2047.83482,143.390919 L2048.12054,156.683175 Z" id="Path"></path>
            </g>
        </g>
    </g>
</svg>