<?xml version="1.0" encoding="UTF-8"?>
<svg width="188px" height="67px" viewBox="0 0 188 67" version="1.1" xmlns="http://www.w3.org/2000/svg" xmlns:xlink="http://www.w3.org/1999/xlink">
    <title>Group</title>
    <defs>
        <polygon id="path-1" points="0 -7.10542736e-15 142.958 -7.10542736e-15 142.958 32.891 0 32.891"></polygon>
    </defs>
    <g id="Page-1" stroke="none" stroke-width="1" fill="none" fill-rule="evenodd">
        <g id="Group" transform="translate(0.060000, 0.651000)">
            <polyline id="Fill-1" fill="#FFFFFF" opacity="0.5" points="136.24 21.219 136.24 15.996 128.884 15.248 130.482 19.619 136.24 21.219"></polyline>
            <polyline id="Fill-2" fill="#FFFFFF" opacity="0.5" points="136.24 15.141 136.24 9.064 126.644 9.064 128.563 14.182 136.24 15.141"></polyline>
            <polyline id="Fill-3" fill="#FFFFFF" opacity="0.5" points="136.24 26.977 136.24 22.178 130.909 20.685 132.508 24.844 136.24 26.977"></polyline>
            <polyline id="Fill-4" fill="#FFFFFF" opacity="0.5" points="136.24 31.775 136.24 27.937 132.936 26.018 134.107 29.43 136.24 31.775"></polyline>
            <polyline id="Fill-5" fill="#FFFFFF" opacity="0.5" points="136.24 35.081 136.24 33.057 134.961 31.67 136.24 35.081"></polyline>
            <polyline id="Fill-6" fill="#FFFFFF" opacity="0.5" points="127.604 14.182 125.685 9.064 115.767 9.064 119.499 13.223 127.604 14.182"></polyline>
            <polyline id="Fill-7" fill="#FFFFFF" opacity="0.5" points="125.471 8.211 122.378 0 107.557 0 114.914 8.211 125.471 8.211"></polyline>
            <polyline id="Fill-8" fill="#FFFFFF" opacity="0.5" points="131.762 25.377 129.31 23.992 132.508 27.617 131.762 25.377"></polyline>
            <polyline id="Fill-9" fill="#FFFFFF" opacity="0.5" points="131.336 24.205 129.843 20.473 124.618 18.98 127.496 22.072 131.336 24.205"></polyline>
            <polyline id="Fill-10" fill="#FFFFFF" opacity="0.5" points="125.044 20.685 123.019 18.447 120.886 17.807 124.297 20.26 125.044 20.685"></polyline>
            <polyline id="Fill-11" fill="#FFFFFF" opacity="0.5" points="123.444 17.594 129.523 19.406 127.923 15.035 120.353 14.182 123.444 17.594"></polyline>
            <path d="M92.84,4.478 C96.253,5.65 99.56,6.932 102.651,8.211 L113.848,8.211 L106.383,0 L78.872,0 C83.883,1.492 88.361,2.984 92.84,4.478" id="Fill-12" fill="#FFFFFF" opacity="0.5"></path>
            <polyline id="Fill-13" fill="#FFFFFF" opacity="0.5" points="136.24 8.211 136.24 0 123.338 0 126.323 8.211 136.24 8.211"></polyline>
            <polyline id="Fill-14" fill="#FFFFFF" opacity="0.5" points="113.634 13.435 118.433 16.207 121.845 17.273 119.073 14.074 113.634 13.435"></polyline>
            <polyline id="Fill-15" fill="#FFFFFF" opacity="0.5" points="118.112 13.115 114.594 9.064 104.783 9.064 111.396 12.264 118.112 13.115"></polyline>
            <polyline id="Fill-16" fill="#FFFFFF" opacity="0.5" points="167.483 30.176 176.548 20.58 160.873 18.873 155.542 26.766 167.483 30.176"></polyline>
            <polyline id="Fill-17" fill="#FFFFFF" opacity="0.5" points="146.584 17.168 137.2 16.102 137.2 21.539 144.238 23.566 146.584 17.168"></polyline>
            <polyline id="Fill-18" fill="#FFFFFF" opacity="0.5" points="137.2 9.064 137.2 15.248 146.903 16.314 149.569 9.064 137.2 9.064"></polyline>
            <polyline id="Fill-19" fill="#FFFFFF" opacity="0.5" points="147.437 17.273 145.198 23.777 154.688 26.443 159.913 18.66 147.437 17.273"></polyline>
            <polyline id="Fill-20" fill="#FFFFFF" opacity="0.5" points="137.2 27.404 141.999 30.176 144.024 24.31 137.2 22.393 137.2 27.404"></polyline>
            <polyline id="Fill-21" fill="#FFFFFF" opacity="0.5" points="137.2 28.471 137.2 32.736 139.973 35.828 141.68 30.924 137.2 28.471"></polyline>
            <polyline id="Fill-22" fill="#FFFFFF" opacity="0.5" points="144.878 24.633 142.746 30.496 149.464 34.228 154.154 27.191 144.878 24.633"></polyline>
            <polyline id="Fill-23" fill="#FFFFFF" opacity="0.5" points="147.864 16.422 160.553 17.914 166.417 9.064 150.423 9.064 147.864 16.422"></polyline>
            <polyline id="Fill-24" fill="#FFFFFF" opacity="0.5" points="150.21 34.656 158.634 39.24 166.738 30.816 155.009 27.51 150.21 34.656"></polyline>
            <polyline id="Fill-25" fill="#FFFFFF" opacity="0.5" points="157.994 39.88 149.677 35.402 145.411 41.798 150.636 47.664 157.994 39.88"></polyline>
            <polyline id="Fill-26" fill="#FFFFFF" opacity="0.5" points="144.772 41.16 149.036 34.974 142.532 31.35 140.613 36.574 144.772 41.16"></polyline>
            <polyline id="Fill-27" fill="#FFFFFF" opacity="0.5" points="140.292 37.535 138.8 41.798 140.72 47.238 144.238 41.906 140.292 37.535"></polyline>
            <polyline id="Fill-28" fill="#FFFFFF" opacity="0.5" points="138.267 40.521 139.547 36.681 137.2 34.018 137.2 37.535 138.267 40.521"></polyline>
            <polyline id="Fill-29" fill="#FFFFFF" opacity="0.5" points="137.84 41.798 137.2 39.988 137.2 43.613 137.84 41.798"></polyline>
            <polyline id="Fill-30" fill="#FFFFFF" opacity="0.5" points="138.267 43.08 137.2 46.279 137.2 52.568 140.08 48.197 138.267 43.08"></polyline>
            <polyline id="Fill-31" fill="#FFFFFF" opacity="0.5" points="144.878 42.546 141.039 48.197 143.599 54.915 149.996 48.197 144.878 42.546"></polyline>
            <polyline id="Fill-32" fill="#FFFFFF" opacity="0.5" points="177.401 19.834 187.744 9.064 167.483 9.064 161.406 18.021 177.401 19.834"></polyline>
            <g id="Group-36" transform="translate(0.000000, 33.398000)">
                <mask id="mask-2" fill="white">
                    <use xlink:href="#path-1"></use>
                </mask>
                <g id="Clip-34"></g>
                <polyline id="Fill-33" fill="#FFFFFF" opacity="0.5" mask="url(#mask-2)" points="137.2 28.129 142.958 22.264 140.506 15.652 137.2 20.664 137.2 28.129"></polyline>
                <path d="M24.039,5.652 L23.719,2.56 C23.719,1.707 23.4,1.066 22.973,0.641 C22.546,0.213 21.8,-7.10542736e-15 20.84,-7.10542736e-15 L9.11,-7.10542736e-15 C6.871,0.108 5.272,0.534 3.779,1.279 C2.499,2.133 1.54,3.199 0.899,4.371 C0.26,5.652 -0.06,7.037 -0.06,8.531 L-0.06,32.951 L5.805,32.951 L5.805,18.767 L20.627,18.767 L20.307,15.676 C20.2,14.822 19.987,14.183 19.561,13.863 C19.134,13.33 18.387,13.117 17.428,13.117 L5.805,13.117 L5.805,9.385 C5.805,8.213 6.231,7.359 6.871,6.613 C7.511,5.971 8.577,5.652 10.07,5.652 L24.039,5.652 Z M75.65,4.371 C75.117,5.652 74.69,7.037 74.69,8.531 L74.69,32.951 L80.662,32.951 L80.662,9.385 C80.662,8.213 80.982,7.359 81.622,6.613 C82.261,5.971 83.433,5.652 84.927,5.652 L94.736,5.652 L94.31,2.56 C94.31,1.707 94.097,1.066 93.67,0.641 C93.244,0.213 92.498,-7.10542736e-15 91.537,-7.10542736e-15 L83.966,-7.10542736e-15 C81.834,0.108 80.023,0.534 78.742,1.279 C77.25,2.133 76.29,3.199 75.65,4.371 Z M117.344,17.275 L117.344,27.406 L104.975,27.406 C103.908,27.406 103.055,26.978 102.414,26.447 C101.881,25.807 101.563,25.166 101.563,24.207 C101.563,23.459 101.881,22.715 102.309,22.074 C102.842,21.541 103.803,21.008 104.975,20.793 L117.344,17.275 Z M123.316,32.951 L123.316,8.531 C123.316,7.037 122.996,5.652 122.356,4.371 C121.822,3.199 120.756,2.133 119.369,1.279 C118.09,0.534 116.277,0.108 114.145,-7.10542736e-15 L101.881,-7.10542736e-15 C100.815,-7.10542736e-15 100.176,0.213 99.748,0.641 C99.322,1.066 99.109,1.707 99.002,2.56 L98.684,5.652 L113.078,5.652 C114.572,5.652 115.744,5.971 116.49,6.613 C117.131,7.359 117.344,8.213 117.344,9.385 L117.344,11.303 L105.188,14.611 C101.881,15.463 99.537,16.742 97.936,18.234 C96.336,19.834 95.484,21.859 95.484,24.207 C95.484,26.125 95.91,27.619 96.764,29.006 C97.51,30.178 98.684,31.139 100.07,31.885 C101.348,32.738 102.947,32.951 104.547,32.951 L123.316,32.951 Z M28.198,32.951 L34.063,32.951 L34.063,-7.10542736e-15 L28.198,-7.10542736e-15 L28.198,32.951 Z M64.24,1.279 C62.854,0.534 61.148,0.108 58.908,-7.10542736e-15 L40.994,-7.10542736e-15 L40.994,32.951 L46.752,32.951 L46.752,5.652 L57.948,5.652 C59.441,5.652 60.614,5.971 61.254,6.613 C61.894,7.359 62.214,8.213 62.214,9.385 L62.214,32.951 L68.079,32.951 L68.079,8.531 C68.079,7.037 67.759,5.652 67.119,4.371 C66.586,3.199 65.52,2.133 64.24,1.279 L64.24,1.279 Z" id="Fill-35" fill="#FFFFFF" mask="url(#mask-2)"></path>
            </g>
        </g>
    </g>
</svg>