<?xml version="1.0" encoding="UTF-8"?>
<svg width="181px" height="34px" viewBox="0 0 181 34" version="1.1" xmlns="http://www.w3.org/2000/svg" xmlns:xlink="http://www.w3.org/1999/xlink">
    <title>forcepoint</title>
    <g id="Page-1" stroke="none" stroke-width="1" fill="none" fill-rule="evenodd">
        <g id="forcepoint" fill="#FFFFFF" fill-rule="nonzero">
            <g id="Group">
                <polygon id="Path" opacity="0.5" points="8 11 14 11 14 17 8 17"></polygon>
                <g id="Path">
                    <polygon points="18 0 0 0 0 11 5.6 11 5.6 5.3 18 5.3"></polygon>
                    <polygon points="0 17 5.6 17 5.6 27 0 27"></polygon>
                </g>
            </g>
            <g id="Group" transform="translate(16.200000, 0.200000)">
                <polygon id="Path" points="126.1 7.21644966e-16 131.3 7.21644966e-16 131.3 4.8 126.1 4.8"></polygon>
                <path d="M34.9,11.3 C32.8,11.1 31.1,11.3 29.9,12.5 C28.8,13.6 28.6,15.3 28.6,16.9 L28.6,26.8 L23.4,26.8 L23.4,6.8 L28.3,6.8 L28.3,8.7 C29.9,6.7 32.4,5.9 34.8,6.3 L34.8,11.3 L34.9,11.3 Z" id="Path"></path>
                <path d="M55.6,20 C54.4,24.6 50.8,27.3 45.9,27.3 C39.8,27.3 35.5,22.6 35.5,16.8 C35.5,11 39.8,6.2 45.9,6.2 C50.7,6.2 54.4,8.9 55.6,13.5 L50.1,13.5 C49.4,12.1 47.8,11 45.9,11 C43,11 40.7,13.7 40.7,16.9 C40.7,20.1 43,22.7 45.9,22.7 C47.8,22.7 49.5,21.5 50.1,20.1 L55.6,20.1 L55.6,20 Z" id="Path"></path>
                <path d="M67.7,6.2 C62,6.2 57.4,11 57.4,16.8 C57.4,22.6 62,27.3 67.7,27.3 C72.5,27.3 75.9,24.8 77.2,21 L71.5,21 C70.6,22.2 69.1,22.8 67.6,22.8 C65.2,22.8 63.2,21.3 62.6,18.8 L77.8,18.8 C78.5,10.8 73.6,6.2 67.7,6.2 Z M62.7,14.5 C63.4,12.2 65.3,10.7 67.7,10.7 C70.2,10.7 72.1,12.2 72.7,14.5 L62.7,14.5 Z" id="Shape"></path>
                <polygon id="Path" points="126.1 6.8 131.3 6.8 131.3 26.8 126.1 26.8"></polygon>
                <path d="M152.2,26.8 L147,26.8 L147,15 C147,13.8 146.6,11 143.3,11 C141,11 139.4,12.7 139.4,15 L139.4,26.8 L134.2,26.8 L134.2,6.8 L139.1,6.8 L139.1,8.7 C140.4,7.2 142.1,6.2 144.3,6.2 C149,6.2 152.2,9.8 152.2,15.1 L152.2,26.8 Z" id="Path"></path>
                <path d="M163.8,26.8 C157.9,27.4 154.8,23.9 154.8,18.4 L154.8,1.8 L160,1.8 L160,6.7 L163.9,6.7 L163.9,11.3 L160,11.3 L160,18.4 C160,21.2 161.3,22.3 163.9,22.1 L163.9,26.8 L163.8,26.8 Z" id="Path"></path>
                <path d="M10.5,6.2 C4.7,6.2 -3.55271368e-15,10.9 -3.55271368e-15,16.7 C-3.55271368e-15,22.5 4.7,27.2 10.5,27.2 C16.3,27.2 21,22.5 21,16.7 C21,10.9 16.3,6.2 10.5,6.2 M10.5,22.5 C7.4,22.5 4.9,19.9 4.9,16.7 C4.9,13.5 7.4,10.9 10.5,10.9 C13.6,10.9 16.1,13.5 16.1,16.7 C16.1,19.9 13.6,22.5 10.5,22.5" id="Shape"></path>
                <path d="M113.4,6.2 C107.6,6.2 102.9,10.9 102.9,16.7 C102.9,22.5 107.6,27.2 113.4,27.2 C119.2,27.2 123.9,22.5 123.9,16.7 C124,10.9 119.3,6.2 113.4,6.2 M113.4,22.5 C110.3,22.5 107.8,19.9 107.8,16.7 C107.8,13.5 110.3,10.9 113.4,10.9 C116.5,10.9 119,13.5 119,16.7 C119,19.9 116.6,22.5 113.4,22.5" id="Shape"></path>
                <path d="M85.2,8.8 C86.8,7.2 88.9,6.2 91.3,6.2 C96.6,6.2 100.9,10.7 100.9,16.7 C100.9,22.7 96.6,27.2 91.3,27.2 C89,27.2 86.9,26.3 85.4,24.8 L85.4,33.8 L80.2,33.8 L80.2,6.8 L85.2,6.8 L85.2,8.8 Z M90.6,11 C87.7,11 85.4,13.5 85.4,16.7 C85.4,19.9 87.7,22.4 90.6,22.4 C93.5,22.4 95.8,19.9 95.8,16.7 C95.7,13.4 93.4,11 90.6,11 Z" id="Shape"></path>
            </g>
        </g>
    </g>
</svg>