<?xml version="1.0" encoding="UTF-8"?>
<svg width="461px" height="193px" viewBox="0 0 461 193" version="1.1" xmlns="http://www.w3.org/2000/svg" xmlns:xlink="http://www.w3.org/1999/xlink">
    <title>google</title>
    <g id="Page-1" stroke="none" stroke-width="1" fill="none" fill-rule="evenodd">
        <g id="google" transform="translate(-0.000000, -0.000000)">
            <g id="use2460" transform="translate(145.294868, 47.500000) scale(-1, 1) rotate(-180.000000) translate(-145.294868, -47.500000) translate(0.000000, 0.000000)">
                <path d="M0.488973114,58.2573528 C0.488973114,78.5147057 17.4633255,94.9301468 37.7207831,94.9301468 C48.8973114,94.9301468 56.8605878,90.5294115 62.8679718,84.8014704 L55.742935,77.7463233 C51.4818836,81.7977939 45.6840595,84.9411763 37.7207831,84.9411763 C22.9817364,84.9411763 11.4559415,73.0661763 11.4559415,58.3272057 C11.4559415,43.5882352 22.9817364,31.7132352 37.7207831,31.7132352 C47.2906855,31.7132352 52.739243,35.555147 56.2319081,39.047794 C59.0958935,41.9117646 60.9819326,46.0330881 61.6804657,51.6213234 L37.7207831,51.6213234 L37.7207831,61.610294 L71.4599279,61.610294 C71.8091945,59.7941175 72.0187544,57.6985293 72.0187544,55.3235293 C72.0187544,47.7794116 69.9930086,38.4889705 63.3569449,31.922794 C56.8605878,25.2169117 48.6178982,21.6544117 37.7207831,21.6544117 C17.4633255,21.6544117 0.488973114,38.0698528 0.488973114,58.2573528 Z" id="path3053" fill="#FFFFFF" fill-rule="nonzero"></path>
                <path d="M99.1916888,68.8051469 C86.1291214,68.8051469 75.5114195,58.8860293 75.5114195,45.1948528 C75.5114195,31.5735293 86.1291214,21.5845588 99.1916888,21.5845588 C112.254256,21.5845588 122.871958,31.5735293 122.871958,45.1948528 C122.871958,58.8860293 112.254256,68.8051469 99.1916888,68.8051469 Z M99.1916888,30.9448529 C92.066652,30.9448529 85.8497082,36.8124999 85.8497082,45.2647058 C85.8497082,53.7867646 91.9967987,59.5845587 99.1916888,59.5845587 C106.316726,59.5845587 112.53367,53.7867646 112.53367,45.2647058 C112.53367,36.8124999 106.316726,30.9448529 99.1916888,30.9448529 Z" id="path3055" fill="#FFFFFF" fill-rule="nonzero"></path>
                <path d="M150.883132,68.8051469 C137.820565,68.8051469 127.202863,58.8860293 127.202863,45.1948528 C127.202863,31.5735293 137.820565,21.5845588 150.883132,21.5845588 C163.9457,21.5845588 174.563402,31.5735293 174.563402,45.1948528 C174.563402,58.8860293 163.9457,68.8051469 150.883132,68.8051469 Z M150.883132,30.9448529 C143.758096,30.9448529 137.541152,36.8124999 137.541152,45.2647058 C137.541152,53.7867646 143.688242,59.5845587 150.883132,59.5845587 C158.078022,59.5845587 164.225113,53.7867646 164.225113,45.2647058 C164.225113,36.8124999 158.008169,30.9448529 150.883132,30.9448529 Z" id="path3057" fill="#FFFFFF" fill-rule="nonzero"></path>
                <path d="M214.309931,67.4080881 L214.309931,63.5661763 L213.960664,63.5661763 C211.655505,66.3602939 207.184894,68.8749998 201.526776,68.8749998 C189.721568,68.8749998 178.894306,58.5367646 178.894306,45.1948528 C178.894306,31.992647 189.721568,21.6544117 201.526776,21.6544117 C207.184894,21.6544117 211.655505,24.1691176 213.960664,27.0330882 L214.309931,27.0330882 L214.309931,23.6102941 C214.309931,14.5992647 209.490053,9.77941174 201.736336,9.77941174 C195.379686,9.77941174 191.467901,14.3198529 189.861275,18.1617647 L180.850199,14.3897058 C183.434771,8.10294116 190.350248,0.419117646 201.806189,0.419117646 C213.960664,0.419117646 224.229099,7.54411763 224.229099,25.0073529 L224.229099,67.4080881 L214.309931,67.4080881 Z M202.434869,30.9448529 C195.309832,30.9448529 189.302448,36.9522058 189.302448,45.1948528 C189.302448,53.5073528 195.309832,59.5845587 202.434869,59.5845587 C209.490053,59.5845587 215.008464,53.5073528 215.008464,45.1948528 C215.078317,36.8823528 209.490053,30.9448529 202.434869,30.9448529 L202.434869,30.9448529 Z" id="path3059" fill="#FFFFFF" fill-rule="nonzero"></path>
                <polygon id="polygon3061" fill="#FFFFFF" fill-rule="nonzero" points="241.692425 23.0514705 231.354136 23.0514705 231.354136 92.4154409 241.692425 92.4154409"></polygon>
                <path d="M270.122719,30.9448529 C264.813868,30.9448529 261.111643,33.3897058 258.666777,38.0698528 L290.24047,51.1323528 L289.19267,53.7867646 C287.236778,59.0955881 281.229394,68.8051469 269.005066,68.8051469 C256.850591,68.8051469 246.721863,59.235294 246.721863,45.1948528 C246.721863,31.992647 256.710885,21.5845588 270.122719,21.5845588 C280.949981,21.5845588 287.166925,28.2205882 289.82135,32.0624999 L281.78822,37.4411764 C279.063941,33.5294117 275.43157,30.9448529 270.122719,30.9448529 L270.122719,30.9448529 Z M269.354333,59.7242646 C273.475677,59.7242646 276.968342,57.6985293 278.085995,54.6948528 L256.990298,45.9632352 C256.710885,55.0441175 264.045482,59.7242646 269.354333,59.7242646 Z" id="path3063" fill="#FFFFFF" fill-rule="nonzero"></path>
                <polygon id="polygon3065" points="0 0 290.589736 0 290.589736 94.9999998 0 94.9999998"></polygon>
            </g>
            <g id="text3075" transform="translate(0.000000, 106.183705)" fill="#FFFFFF" fill-rule="nonzero" opacity="0.5">
                <path d="M23.4337313,0.726627328 C26.4613452,0.726627328 28.9439886,1.24132169 30.8816614,2.2707104 L28.610951,9.6278121 C27.1576964,8.90118477 25.5227849,8.5378711 23.7062166,8.5378711 C21.6474391,8.5378711 19.9519754,9.26449843 18.6198253,10.7177531 C17.3482275,12.1104555 16.7124285,13.9875761 16.7124285,16.3491149 L16.7124285,21.9804767 L28.3384658,21.9804767 L28.3384658,29.6100636 L16.7124285,29.6100636 L16.7124285,66.4864005 L8.35621427,66.4864005 L8.35621427,29.6100636 L-5.68434189e-14,29.6100636 L-5.68434189e-14,21.9804767 L8.35621427,21.9804767 L8.35621427,15.5316591 C8.35621427,11.1113429 9.74891665,7.53875853 12.5343214,4.81390605 C15.3802784,2.08905357 19.0134151,0.726627328 23.4337313,0.726627328 L23.4337313,0.726627328 Z" id="path3099"></path>
                <path d="M31.0533839,44.2334386 C31.0533839,37.3910313 33.2029898,31.7293933 37.5022014,27.2485248 C41.8619654,22.7676563 47.3419465,20.527222 53.9421447,20.527222 C60.542343,20.527222 65.9920479,22.7676563 70.2912596,27.2485248 C74.6510236,31.7293933 76.8309056,37.3910313 76.8309056,44.2334386 C76.8309056,51.1363982 74.6510236,56.7980361 70.2912596,61.2183524 C65.9920479,65.6992209 60.542343,67.9396552 53.9421447,67.9396552 C47.3419465,67.9396552 41.8619654,65.6992209 37.5022014,61.2183524 C33.2029898,56.7374839 31.0533839,51.0758459 31.0533839,44.2334386 Z M39.4095982,44.2334386 C39.4095982,49.0170685 40.8023006,52.8924143 43.5877053,55.8594758 C46.3731101,58.8265374 49.8245899,60.3100682 53.9421447,60.3100682 C58.0596996,60.3100682 61.5111794,58.8265374 64.2965842,55.8594758 C67.0819889,52.8924143 68.4746913,49.0170685 68.4746913,44.2334386 C68.4746913,39.510361 67.0819889,35.6652913 64.2965842,32.6982298 C61.4506271,29.6706159 57.9991473,28.156809 53.9421447,28.156809 C49.8851422,28.156809 46.4336624,29.6706159 43.5877053,32.6982298 C40.8023006,35.6652913 39.4095982,39.510361 39.4095982,44.2334386 Z" id="path3101"></path>
                <path d="M91.9793823,66.4864005 L83.6231681,66.4864005 L83.6231681,21.9804767 L91.6160687,21.9804767 L91.6160687,29.24675 L91.9793823,29.24675 C92.8271142,26.8852111 94.5528549,24.886986 97.1566043,23.2520745 C99.8209045,21.5566107 102.424652,20.7088788 104.967848,20.7088788 C107.389939,20.7088788 109.448717,21.0721925 111.14418,21.7988198 L108.600985,29.8825489 C107.571596,29.4586829 105.936685,29.24675 103.69625,29.24675 C100.547532,29.24675 97.7924025,30.5183478 95.4308621,33.0615434 C93.1298756,35.6047391 91.9793823,38.5718007 91.9793823,41.9627282 L91.9793823,66.4864005 Z" id="path3103"></path>
                <path d="M175.603972,49.1381731 C175.603972,54.8300871 173.514918,59.4017841 169.336811,62.8532639 C165.098152,66.2441914 159.951208,67.9396552 153.89598,67.9396552 C148.506828,67.9396552 143.753474,66.365296 139.635919,63.2165775 C135.518364,60.0678591 132.672407,55.7686474 131.098048,50.3189425 L139.090949,47.0491195 C139.635919,48.9867924 140.392823,50.7428084 141.361659,52.3171676 C142.330495,53.8915268 143.450713,55.2539531 144.72231,56.4044463 C146.054461,57.4943873 147.507715,58.3723953 149.082074,59.0384704 C150.656434,59.6439932 152.321621,59.9467546 154.077637,59.9467546 C157.892431,59.9467546 161.010873,58.9779181 163.432964,57.0402452 C165.855055,55.0420201 167.066101,52.407996 167.066101,49.1381731 C167.066101,46.4133206 166.066988,44.0820579 164.068763,42.144385 C162.191642,40.2672644 158.67961,38.4506961 153.532667,36.6946801 C148.325171,34.8175595 145.085624,33.5459616 143.814026,32.8798866 C136.911067,29.3678545 133.459587,24.1906348 133.459587,17.3482275 C133.459587,12.5645975 135.366984,8.47731883 139.181777,5.0863913 C143.057123,1.69546377 147.810477,0 153.441838,0 C158.407125,0 162.706337,1.27159782 166.339473,3.81479347 C169.97261,6.29743684 172.394701,9.41587913 173.605747,13.1701203 L165.794503,16.4399433 C165.067876,14.0178522 163.614621,12.0196271 161.434739,10.4452678 C159.315409,8.81035635 156.711661,7.99290061 153.623495,7.99290061 C150.353672,7.99290061 147.598544,8.90118477 145.358109,10.7177531 C143.117675,12.4132169 141.997458,14.623375 141.997458,17.3482275 C141.997458,19.5886617 142.875466,21.5263346 144.631482,23.1612461 C146.569155,24.7961576 150.777538,26.7338304 157.256632,28.9742647 C163.85683,31.214699 168.549632,33.9698276 171.335036,37.2396506 C174.180993,40.4489213 175.603972,44.4150954 175.603972,49.1381731 Z" id="path3105"></path>
                <path d="M199.523068,67.2130278 C195.889931,67.2130278 192.862317,66.0928107 190.440226,63.8523764 C188.078687,61.6119422 186.867642,58.4934999 186.807089,54.4970496 L186.807089,29.6100636 L178.995846,29.6100636 L178.995846,21.9804767 L186.807089,21.9804767 L186.807089,8.35621427 L195.163304,8.35621427 L195.163304,21.9804767 L206.062713,21.9804767 L206.062713,29.6100636 L195.163304,29.6100636 L195.163304,51.7721971 C195.163304,54.7392587 195.73855,56.76776 196.889043,57.857701 C198.039537,58.8870897 199.341411,59.4017841 200.794665,59.4017841 C201.46074,59.4017841 202.096539,59.3412318 202.702062,59.2201272 C203.368137,59.0384704 203.97366,58.8265374 204.51863,58.5843283 L207.152654,66.0322584 C204.972772,66.819438 202.429577,67.2130278 199.523068,67.2130278 L199.523068,67.2130278 Z" id="path3107"></path>
                <path d="M219.210127,52.8621381 C219.210127,55.0420201 220.118411,56.8585884 221.934979,58.3118431 C223.8121,59.7650977 225.991982,60.4917251 228.474625,60.4917251 C231.986657,60.4917251 235.1051,59.1898511 237.829952,56.5861032 C240.615357,53.9823552 242.008059,50.9244652 242.008059,47.4124332 C239.404311,45.3536557 235.771175,44.324267 231.108649,44.324267 C227.717722,44.324267 224.871765,45.1417228 222.570778,46.7766342 C220.330344,48.4115457 219.210127,50.440047 219.210127,52.8621381 Z M230.018708,20.527222 C236.19504,20.527222 241.069499,22.1924096 244.642083,25.5227849 C248.214668,28.7926079 250.00096,33.3037525 250.00096,39.0562189 L250.00096,66.4864005 L242.008059,66.4864005 L242.008059,60.3100682 L241.644745,60.3100682 C238.193266,65.3964595 233.591293,67.9396552 227.838826,67.9396552 C222.934092,67.9396552 218.816537,66.4864005 215.486162,63.5798912 C212.216339,60.6733819 210.581427,57.0402452 210.581427,52.6804813 C210.581427,48.0785082 212.307167,44.4150954 215.758647,41.6902429 C219.270679,38.9653905 223.933204,37.6029642 229.746223,37.6029642 C234.71151,37.6029642 238.798788,38.5112484 242.008059,40.3278167 L242.008059,38.42042 C242.008059,35.5139107 240.857566,33.0615434 238.556579,31.0633183 C236.255593,29.0045408 233.561016,27.9751521 230.47285,27.9751521 C225.810325,27.9751521 222.116636,29.9431011 219.391784,33.8789992 L212.034682,29.24675 C216.091684,23.4337313 222.08636,20.527222 230.018708,20.527222 L230.018708,20.527222 Z" id="path3109"></path>
                <path d="M311.561327,67.2130278 C307.92819,67.2130278 304.900576,66.0928107 302.478485,63.8523764 C300.116946,61.6119422 298.905901,58.4934999 298.845348,54.4970496 L298.845348,29.6100636 L291.034104,29.6100636 L291.034104,21.9804767 L298.845348,21.9804767 L298.845348,8.35621427 L307.201563,8.35621427 L307.201563,21.9804767 L318.100972,21.9804767 L318.100972,29.6100636 L307.201563,29.6100636 L307.201563,51.7721971 C307.201563,54.7392587 307.776809,56.76776 308.927302,57.857701 C310.077796,58.8870897 311.37967,59.4017841 312.832924,59.4017841 C313.498999,59.4017841 314.134798,59.3412318 314.740321,59.2201272 C315.406396,59.0384704 316.011919,58.8265374 316.556889,58.5843283 L319.190913,66.0322584 C317.011031,66.819438 314.467836,67.2130278 311.561327,67.2130278 L311.561327,67.2130278 Z M259.425816,21.9804767 L267.418716,21.9804767 L267.418716,29.24675 L267.78203,29.24675 C270.264673,23.5548359 275.381341,20.7088788 283.132032,20.7088788 L284.857772,20.8905357 L284.857772,29.6100636 L281.133807,29.24675 C277.258461,29.24675 274.049191,30.4577955 271.505995,32.8798866 C269.023352,35.2414254 267.78203,38.2690393 267.78203,41.9627282 L267.78203,66.4864005 L259.425816,66.4864005 L259.425816,21.9804767 Z" id="path3111"></path>
                <path d="M365.184153,66.4864005 L357.191252,66.4864005 L357.191252,60.3100682 L356.827938,60.3100682 C355.556341,62.4899502 353.588391,64.3065185 350.924091,65.7597732 C348.320343,67.2130278 345.595491,67.9396552 342.749534,67.9396552 C337.299829,67.9396552 333.091446,66.3955721 330.124384,63.307406 C327.217875,60.1586875 325.76462,55.7080951 325.76462,49.9556288 L325.76462,21.9804767 L334.120834,21.9804767 L334.120834,49.4106583 C334.302491,56.6769316 337.965904,60.3100682 345.111073,60.3100682 C348.441448,60.3100682 351.226853,58.9779181 353.467287,56.3136179 C355.707721,53.5887654 356.827938,50.3492186 356.827938,46.5949774 L356.827938,21.9804767 L365.184153,21.9804767 L365.184153,66.4864005 Z" id="path3113"></path>
                <path d="M397.243745,60.3100682 C401.240195,60.3100682 404.600847,58.7962613 407.325699,55.7686474 C410.050552,52.8015858 411.412978,48.9565162 411.412978,44.2334386 C411.412978,39.5709132 410.050552,35.7258436 407.325699,32.6982298 C404.600847,29.6706159 401.240195,28.156809 397.243745,28.156809 C393.186742,28.156809 389.795815,29.6706159 387.070962,32.6982298 C384.406662,35.7258436 383.074512,39.5709132 383.074512,44.2334386 C383.074512,48.9565162 384.406662,52.831862 387.070962,55.8594758 C389.795815,58.8265374 393.186742,60.3100682 397.243745,60.3100682 Z M398.606171,67.9396552 C395.336348,67.9396552 392.339011,67.243304 389.614158,65.8506016 C386.949858,64.4578992 384.89108,62.6110548 383.437826,60.3100682 L383.074512,60.3100682 L383.437826,66.4864005 L383.437826,86.1053475 L375.081612,86.1053475 L375.081612,21.9804767 L383.074512,21.9804767 L383.074512,28.156809 L383.437826,28.156809 C384.89108,25.8558224 386.949858,24.008978 389.614158,22.6162756 C392.339011,21.2235732 395.336348,20.527222 398.606171,20.527222 C404.479742,20.527222 409.445029,22.8282086 413.502032,27.4301816 C417.680139,32.092707 419.769192,37.6937926 419.769192,44.2334386 C419.769192,50.8336368 417.680139,56.4347225 413.502032,61.0366956 C409.445029,65.6386686 404.479742,67.9396552 398.606171,67.9396552 L398.606171,67.9396552 Z" id="path3115"></path>
                <path d="M460.951364,54.1337359 C460.951364,58.0090817 459.2559,61.2789047 455.864972,63.9432049 C452.474045,66.6075051 448.205109,67.9396552 443.058166,67.9396552 C438.577297,67.9396552 434.641399,66.7891619 431.250472,64.4881754 C427.859544,62.1266365 425.437453,59.0384704 423.984198,55.2236769 L431.432129,52.0446824 C432.52207,54.7089826 434.096429,56.7980361 436.155206,58.3118431 C438.274536,59.7650977 440.575522,60.4917251 443.058166,60.4917251 C445.722466,60.4917251 447.932624,59.9164784 449.68864,58.7659852 C451.505208,57.6154919 452.413493,56.2530656 452.413493,54.6787064 C452.413493,51.8327494 450.233611,49.7436958 445.873847,48.4115457 L438.24426,46.504149 C429.585284,44.324267 425.255796,40.1461599 425.255796,33.9698276 C425.255796,29.912825 426.890708,26.6732782 430.160531,24.2511871 C433.490906,21.7685437 437.729565,20.527222 442.876509,20.527222 C446.812407,20.527222 450.354715,21.4657823 453.503434,23.3429029 C456.712704,25.2200235 458.953139,27.732943 460.224736,30.8816614 L452.776806,33.9698276 C451.929074,32.092707 450.536372,30.6394523 448.598699,29.6100636 C446.721579,28.5201226 444.602249,27.9751521 442.24071,27.9751521 C440.060828,27.9751521 438.092879,28.5201226 436.336863,29.6100636 C434.641399,30.7000046 433.793667,32.0321547 433.793667,33.6065139 C433.793667,36.1497096 436.185482,37.9662779 440.969112,39.0562189 L447.690415,40.7819588 C456.531047,42.9618408 460.951364,47.4124332 460.951364,54.1337359 L460.951364,54.1337359 Z" id="path3117"></path>
            </g>
        </g>
    </g>
</svg>