<?xml version="1.0" encoding="UTF-8"?>
<svg width="1000px" height="776px" viewBox="0 0 1000 776" version="1.1" xmlns="http://www.w3.org/2000/svg" xmlns:xlink="http://www.w3.org/1999/xlink">
    <title>mastercard</title>
    <g id="Page-1" stroke="none" stroke-width="1" fill="none" fill-rule="evenodd">
        <g id="mastercard" fill-rule="nonzero">
            <path d="M181.1,774.3 L181.1,722.8 C181.1,703.1 169.1,690.2 148.5,690.2 C138.2,690.2 127,693.6 119.3,704.8 C113.3,695.4 104.7,690.2 91.8,690.2 C83.2,690.2 74.6,692.8 67.8,702.2 L67.8,691.9 L49.8,691.9 L49.8,774.3 L67.8,774.3 L67.8,728.8 C67.8,714.2 75.5,707.3 87.5,707.3 C99.5,707.3 105.5,715 105.5,728.8 L105.5,774.3 L123.5,774.3 L123.5,728.8 C123.5,714.2 132.1,707.3 143.2,707.3 C155.2,707.3 161.2,715 161.2,728.8 L161.2,774.3 L181.1,774.3 Z M448.1,691.9 L418.9,691.9 L418.9,667 L400.9,667 L400.9,691.9 L384.6,691.9 L384.6,708.2 L400.9,708.2 L400.9,746 C400.9,764.9 408.6,776 429.2,776 C436.9,776 445.5,773.4 451.5,770 L446.3,754.5 C441.1,757.9 435.1,758.8 430.8,758.8 C422.2,758.8 418.8,753.6 418.8,745.1 L418.8,708.2 L448,708.2 L448,691.9 L448.1,691.9 Z M600.9,690.1 C590.6,690.1 583.7,695.3 579.4,702.1 L579.4,691.8 L561.4,691.8 L561.4,774.2 L579.4,774.2 L579.4,727.8 C579.4,714.1 585.4,706.3 596.6,706.3 C600,706.3 604.3,707.2 607.8,708 L613,690.8 C609.4,690.1 604.3,690.1 600.9,690.1 L600.9,690.1 Z M370,698.7 C361.4,692.7 349.4,690.1 336.5,690.1 C315.9,690.1 302.2,700.4 302.2,716.7 C302.2,730.4 312.5,738.2 330.5,740.7 L339.1,741.6 C348.5,743.3 353.7,745.9 353.7,750.2 C353.7,756.2 346.8,760.5 334.8,760.5 C322.8,760.5 313.3,756.2 307.3,751.9 L298.7,765.6 C308.1,772.5 321,775.9 333.9,775.9 C357.9,775.9 371.7,764.7 371.7,749.3 C371.7,734.7 360.5,727 343.4,724.4 L334.8,723.5 C327.1,722.6 321.1,720.9 321.1,715.8 C321.1,709.8 327.1,706.4 336.6,706.4 C346.9,706.4 357.2,710.7 362.4,713.3 L370,698.7 L370,698.7 Z M848.9,690.1 C838.6,690.1 831.7,695.3 827.4,702.1 L827.4,691.8 L809.4,691.8 L809.4,774.2 L827.4,774.2 L827.4,727.8 C827.4,714.1 833.4,706.3 844.6,706.3 C848,706.3 852.3,707.2 855.8,708 L861,691 C857.5,690.1 852.4,690.1 848.9,690.1 L848.9,690.1 Z M618.9,733.1 C618.9,758 636.1,776 662.7,776 C674.7,776 683.3,773.4 691.9,766.6 L683.3,752 C676.4,757.2 669.6,759.7 661.8,759.7 C647.2,759.7 636.9,749.4 636.9,733.1 C636.9,717.6 647.2,707.3 661.8,706.5 C669.5,706.5 676.4,709.1 683.3,714.2 L691.9,699.6 C683.3,692.7 674.7,690.199588 662.7,690.199588 C636.1,690.1 618.9,708.2 618.9,733.1 L618.9,733.1 L618.9,733.1 Z M785.4,733.1 L785.4,691.9 L767.4,691.9 L767.4,702.2 C761.4,694.5 752.8,690.2 741.6,690.2 C718.4,690.2 700.4,708.2 700.4,733.1 C700.4,758 718.4,776 741.6,776 C753.6,776 762.2,771.7 767.4,764 L767.4,774.3 L785.4,774.3 L785.4,733.1 L785.4,733.1 Z M719.3,733.1 C719.3,718.5 728.7,706.5 744.2,706.5 C758.8,706.5 769.1,717.7 769.1,733.1 C769.1,747.7 758.8,759.7 744.2,759.7 C728.8,758.8 719.3,747.6 719.3,733.1 L719.3,733.1 Z M503.9,690.1 C479.9,690.1 462.7,707.3 462.7,733 C462.7,758.8 479.9,775.9 504.8,775.9 C516.8,775.9 528.8,772.5 538.3,764.7 L529.7,751.8 C522.8,757 514.2,760.4 505.7,760.4 C494.5,760.4 483.4,755.2 480.8,740.7 L541.7,740.7 C541.7,738.1 541.7,736.4 541.7,733.8 C542.5,707.3 527,690.1 503.9,690.1 L503.9,690.1 L503.9,690.1 Z M503.9,705.6 C515.1,705.6 522.8,712.5 524.5,725.3 L481.6,725.3 C483.3,714.2 491,705.6 503.9,705.6 L503.9,705.6 Z M951.1,733.1 L951.1,659.3 L933.1,659.3 L933.1,702.2 C927.1,694.5 918.5,690.2 907.3,690.2 C884.1,690.2 866.1,708.2 866.1,733.1 C866.1,758 884.1,776 907.3,776 C919.3,776 927.9,771.7 933.1,764 L933.1,774.3 L951.1,774.3 L951.1,733.1 L951.1,733.1 Z M885,733.1 C885,718.5 894.4,706.5 909.9,706.5 C924.5,706.5 934.8,717.7 934.8,733.1 C934.8,747.7 924.5,759.7 909.9,759.7 C894.4,758.8 885,747.6 885,733.1 L885,733.1 Z M282.4,733.1 L282.4,691.9 L264.4,691.9 L264.4,702.2 C258.4,694.5 249.8,690.2 238.6,690.2 C215.4,690.2 197.4,708.2 197.4,733.1 C197.4,758 215.4,776 238.6,776 C250.6,776 259.2,771.7 264.4,764 L264.4,774.3 L282.4,774.3 L282.4,733.1 L282.4,733.1 Z M215.5,733.1 C215.5,718.5 224.9,706.5 240.4,706.5 C255,706.5 265.3,717.7 265.3,733.1 C265.3,747.7 255,759.7 240.4,759.7 C224.9,758.8 215.5,747.6 215.5,733.1 Z" id="XMLID_1775_" fill="#FFFFFF"></path>
            <g id="Group">
                <rect id="rect19" fill="#A3A3A3" x="364" y="66.1" width="270.4" height="485.8"></rect>
                <path d="M382,309 C382,210.3 428.4,122.7 499.6,66.1 C447.2,24.9 381.1,0 309,0 C138.2,0 0,138.2 0,309 C0,479.8 138.2,618 309,618 C381.1,618 447.2,593.1 499.6,551.9 C428.3,496.1 382,407.7 382,309 Z" id="XMLID_330_" fill="#898989"></path>
                <path d="M999.2,309 C999.2,479.8 861,618 690.2,618 C618.1,618 552,593.1 499.6,551.9 C571.7,495.2 617.2,407.7 617.2,309 C617.2,210.3 570.8,122.7 499.6,66.1 C551.9,24.9 618,0 690.1,0 C861,0 999.2,139.1 999.2,309 Z" id="path22" fill="#CFCFCF"></path>
            </g>
        </g>
    </g>
</svg>