<?xml version="1.0" encoding="UTF-8"?>
<svg width="210px" height="97px" viewBox="0 0 210 97" version="1.1" xmlns="http://www.w3.org/2000/svg" xmlns:xlink="http://www.w3.org/1999/xlink">
    <title>MSStartups_wordmark-RegularVertical-white</title>
    <defs>
        <polygon id="path-1" points="2.84217094e-14 7.10542736e-15 43.662 7.10542736e-15 43.662 31.337 2.84217094e-14 31.337"></polygon>
    </defs>
    <g id="MSStartups_wordmark-RegularVertical-white" stroke="none" stroke-width="1" fill="none" fill-rule="evenodd">
        <path d="M34.388,32.385 L30.917,32.385 L30.917,12.491 C30.917,10.922 31.013,9.008 31.208,6.75 L31.125,6.75 C30.793,8.085 30.498,9.042 30.236,9.622 L20.135,32.385 L18.441,32.385 L8.32,9.786 C8.044,9.181 7.749,8.168 7.431,6.75 L7.348,6.75 C7.458,7.933 7.514,9.861 7.514,12.534 L7.514,32.385 L4.167,32.385 L4.167,2.765 L8.754,2.765 L17.841,23.419 C18.531,24.989 18.979,26.173 19.185,26.973 L19.329,26.973 C20.018,25.071 20.493,23.862 20.755,23.335 L30.03,2.765 L34.388,2.765 L34.388,32.385" id="Fill-1" fill="#FFFFFE"></path>
        <path d="M41.278,32.384 L44.665,32.384 L44.665,11.232 L41.278,11.232 L41.278,32.384 Z M45.243,3.651 C45.243,4.286 45.022,4.812 44.582,5.233 C44.142,5.652 43.618,5.861 43.012,5.861 C42.392,5.861 41.868,5.658 41.442,5.251 C41.015,4.847 40.802,4.311 40.802,3.651 C40.802,3.059 41.012,2.547 41.432,2.112 C41.851,1.679 42.378,1.462 43.012,1.462 C43.645,1.462 44.175,1.675 44.603,2.102 C45.028,2.529 45.243,3.046 45.243,3.651 L45.243,3.651 Z" id="Fill-2" fill="#FFFFFE"></path>
        <path d="M65.353,31.413 C63.713,32.403 61.78,32.901 59.546,32.901 C57.619,32.901 55.888,32.457 54.353,31.568 C52.818,30.679 51.622,29.423 50.769,27.798 C49.916,26.175 49.488,24.35 49.488,22.324 C49.488,18.827 50.491,16.017 52.494,13.896 C54.497,11.776 57.165,10.715 60.498,10.715 C62.344,10.715 63.974,11.074 65.393,11.79 L65.393,15.26 C63.809,14.16 62.129,13.609 60.353,13.609 C58.165,13.609 56.384,14.39 55.015,15.953 C53.643,17.514 52.96,19.536 52.96,22.015 C52.96,24.479 53.609,26.43 54.909,27.86 C56.212,29.292 57.958,30.009 60.147,30.009 C61.992,30.009 63.728,29.404 65.353,28.19 L65.353,31.413" id="Fill-3" fill="#FFFFFE"></path>
        <path d="M81.082,14.661 C80.477,14.206 79.616,13.979 78.501,13.979 C76.999,13.979 75.781,14.686 74.845,16.097 C73.906,17.509 73.441,19.343 73.441,21.602 L73.441,32.384 L70.052,32.384 L70.052,11.231 L73.441,11.231 L73.441,15.591 L73.521,15.591 C73.989,14.132 74.713,12.977 75.691,12.131 C76.669,11.282 77.79,10.859 79.058,10.859 C79.938,10.859 80.614,10.957 81.082,11.149 L81.082,14.661" id="Fill-4" fill="#FFFFFE"></path>
        <path d="M99.752,21.85 C99.752,19.191 99.163,17.153 97.985,15.736 C96.807,14.317 95.124,13.609 92.933,13.609 C90.758,13.609 89.036,14.334 87.771,15.786 C86.503,17.24 85.869,19.288 85.869,21.933 C85.869,24.467 86.506,26.445 87.781,27.871 C89.053,29.296 90.772,30.01 92.933,30.01 C95.138,30.01 96.824,29.308 97.995,27.904 C99.164,26.497 99.752,24.479 99.752,21.85 M103.22,21.725 C103.22,25.087 102.267,27.788 100.361,29.833 C98.453,31.878 95.895,32.901 92.686,32.901 C89.56,32.901 87.063,31.907 85.198,29.915 C83.332,27.926 82.399,25.307 82.399,22.057 C82.399,18.558 83.356,15.794 85.271,13.761 C87.185,11.732 89.822,10.716 93.182,10.716 C96.322,10.716 98.779,11.697 100.558,13.66 C102.333,15.62 103.22,18.31 103.22,21.725" id="Fill-5" fill="#FFFFFE"></path>
        <path d="M119.804,26.725 C119.804,28.555 119.098,30.042 117.685,31.186 C116.275,32.331 114.399,32.9 112.057,32.9 C110.061,32.9 108.311,32.473 106.811,31.62 L106.811,27.986 C108.476,29.334 110.307,30.009 112.304,30.009 C114.99,30.009 116.332,29.024 116.332,27.056 C116.332,26.257 116.072,25.605 115.548,25.103 C115.024,24.602 113.834,23.922 111.975,23.068 C110.101,22.269 108.779,21.413 108.009,20.496 C107.237,19.581 106.851,18.366 106.851,16.851 C106.851,15.103 107.554,13.642 108.958,12.472 C110.364,11.302 112.146,10.716 114.309,10.716 C115.974,10.716 117.481,11.048 118.832,11.708 L118.832,15.116 C117.454,14.111 115.859,13.608 114.04,13.608 C112.924,13.608 112.026,13.882 111.345,14.435 C110.663,14.986 110.322,15.694 110.322,16.561 C110.322,17.498 110.583,18.218 111.107,18.721 C111.631,19.224 112.71,19.819 114.349,20.507 C116.361,21.361 117.772,22.257 118.584,23.192 C119.396,24.128 119.804,25.307 119.804,26.725" id="Fill-6" fill="#FFFFFE"></path>
        <path d="M140.501,21.85 C140.501,19.191 139.913,17.153 138.735,15.736 C137.557,14.317 135.874,13.609 133.683,13.609 C131.508,13.609 129.786,14.334 128.521,15.786 C127.253,17.24 126.619,19.288 126.619,21.933 C126.619,24.467 127.257,26.445 128.531,27.871 C129.802,29.296 131.522,30.01 133.683,30.01 C135.888,30.01 137.574,29.308 138.745,27.904 C139.916,26.497 140.501,24.479 140.501,21.85 M143.97,21.725 C143.97,25.087 143.017,27.788 141.111,29.833 C139.203,31.878 136.644,32.901 133.436,32.901 C130.309,32.901 127.813,31.907 125.948,29.915 C124.083,27.926 123.149,25.307 123.149,22.057 C123.149,18.558 124.106,15.794 126.021,13.761 C127.934,11.732 130.572,10.716 133.931,10.716 C137.072,10.716 139.529,11.697 141.307,13.66 C143.083,15.62 143.97,18.31 143.97,21.725" id="Fill-7" fill="#FFFFFE"></path>
        <path d="M158.906,4.043 C158.244,3.672 157.494,3.486 156.654,3.486 C154.286,3.486 153.1,4.979 153.1,7.968 L153.1,11.231 L158.059,11.231 L158.059,14.104 L153.1,14.104 L153.1,32.385 L149.713,32.385 L149.713,14.104 L146.119,14.104 L146.119,11.231 L149.713,11.231 L149.713,7.805 C149.713,5.656 150.347,3.92 151.615,2.599 C152.88,1.276 154.491,0.616 156.446,0.616 C157.481,0.616 158.298,0.738 158.906,0.987 L158.906,4.043" id="Fill-8" fill="#FFFFFE"></path>
        <g id="Group-12" transform="translate(0.000000, 4.972000)" fill="#FFFFFE">
            <path d="M172.271,27.206 C171.457,27.661 170.398,27.887 169.089,27.887 C165.399,27.887 163.553,25.809 163.553,21.647 L163.553,9.131 L159.918,9.131 L159.918,6.26 L163.553,6.26 L163.553,1.096 L166.942,0 L166.942,6.26 L172.271,6.26 L172.271,9.131 L166.942,9.131 L166.942,21.07 C166.942,22.49 167.181,23.499 167.664,24.098 C168.147,24.696 168.951,24.995 170.081,24.995 C170.92,24.995 171.649,24.769 172.271,24.315 L172.271,27.206" id="Fill-9"></path>
            <path d="M12.787,53.958 C12.126,53.586 11.376,53.4 10.536,53.4 C8.166,53.4 6.981,54.895 6.981,57.882 L6.981,61.145 L11.94,61.145 L11.94,64.018 L6.981,64.018 L6.981,82.298 L3.595,82.298 L3.595,64.018 L0,64.018 L0,61.145 L3.595,61.145 L3.595,57.718 C3.595,55.571 4.229,53.836 5.496,52.513 C6.762,51.19 8.372,50.53 10.328,50.53 C11.362,50.53 12.18,50.653 12.787,50.901 L12.787,53.958" id="Fill-11"></path>
        </g>
        <path d="M31.104,76.735 C31.104,74.078 30.516,72.04 29.338,70.622 C28.16,69.203 26.477,68.496 24.288,68.496 C22.112,68.496 20.391,69.221 19.124,70.673 C17.856,72.126 17.224,74.175 17.224,76.819 C17.224,79.353 17.86,81.331 19.134,82.758 C20.408,84.182 22.127,84.895 24.288,84.895 C26.491,84.895 28.179,84.193 29.348,82.79 C30.52,81.383 31.104,79.365 31.104,76.735 M34.574,76.611 C34.574,79.973 33.621,82.676 31.714,84.721 C29.805,86.766 27.249,87.787 24.04,87.787 C20.914,87.787 18.417,86.794 16.551,84.801 C14.686,82.811 13.753,80.192 13.753,76.942 C13.753,73.444 14.71,70.681 16.624,68.648 C18.539,66.618 21.175,65.603 24.535,65.603 C27.675,65.603 30.132,66.583 31.91,68.547 C33.685,70.508 34.574,73.196 34.574,76.611" id="Fill-13" fill="#FFFFFE"></path>
        <path d="M50.64,69.547 C50.033,69.093 49.172,68.865 48.057,68.865 C46.556,68.865 45.339,69.572 44.401,70.983 C43.464,72.395 42.998,74.23 42.998,76.487 L42.998,87.27 L39.609,87.27 L39.609,66.118 L42.998,66.118 L42.998,70.478 L43.08,70.478 C43.547,69.019 44.27,67.864 45.249,67.017 C46.226,66.169 47.347,65.747 48.615,65.747 C49.496,65.747 50.172,65.843 50.64,66.035 L50.64,69.547" id="Fill-14" fill="#FFFFFE"></path>
        <path d="M79.34,79.793 C79.34,82.285 78.46,84.24 76.697,85.659 C74.935,87.078 72.538,87.787 69.507,87.787 C68.406,87.787 67.163,87.603 65.78,87.238 C64.396,86.876 63.414,86.492 62.835,86.095 L62.835,81.982 C63.675,82.74 64.78,83.373 66.152,83.883 C67.522,84.393 68.8,84.646 69.984,84.646 C73.786,84.646 75.685,83.168 75.685,80.207 C75.685,78.967 75.279,77.903 74.467,77.014 C73.653,76.127 71.987,74.96 69.467,73.515 C67.028,72.138 65.324,70.827 64.343,69.588 C63.366,68.35 62.878,66.843 62.878,65.064 C62.878,62.725 63.752,60.821 65.501,59.354 C67.251,57.887 69.507,57.154 72.276,57.154 C74.935,57.154 76.876,57.505 78.102,58.207 L78.102,62.09 C76.558,60.878 74.554,60.271 72.09,60.271 C70.452,60.271 69.112,60.682 68.073,61.502 C67.032,62.321 66.513,63.404 66.513,64.755 C66.513,65.733 66.667,66.518 66.977,67.11 C67.287,67.702 67.811,68.287 68.548,68.865 C69.284,69.444 70.529,70.223 72.276,71.2 C74.892,72.659 76.724,74.037 77.77,75.332 C78.816,76.625 79.34,78.112 79.34,79.793" id="Fill-15" fill="#FFFFFE"></path>
        <path d="M94.396,87.064 C93.585,87.519 92.523,87.745 91.214,87.745 C87.524,87.745 85.679,85.667 85.679,81.506 L85.679,68.99 L82.043,68.99 L82.043,66.118 L85.679,66.118 L85.679,60.954 L89.067,59.859 L89.067,66.118 L94.396,66.118 L94.396,68.99 L89.067,68.99 L89.067,80.929 C89.067,82.348 89.306,83.356 89.79,83.956 C90.271,84.556 91.078,84.854 92.206,84.854 C93.046,84.854 93.777,84.628 94.396,84.173 L94.396,87.064" id="Fill-16" fill="#FFFFFE"></path>
        <path d="M110.294,76.57 L105.172,77.293 C103.423,77.54 102.197,77.958 101.494,78.543 C100.791,79.129 100.44,80.075 100.44,81.383 C100.44,82.445 100.82,83.296 101.576,83.933 C102.334,84.576 103.305,84.895 104.49,84.895 C106.171,84.895 107.557,84.302 108.653,83.119 C109.746,81.935 110.294,80.454 110.294,78.678 L110.294,76.57 Z M113.681,87.27 L110.294,87.27 L110.294,83.967 L110.211,83.967 C108.739,86.515 106.569,87.787 103.705,87.787 C101.668,87.787 100.035,87.233 98.809,86.124 C97.585,85.017 96.971,83.524 96.971,81.652 C96.971,77.715 99.298,75.415 103.952,74.753 L110.294,73.865 C110.294,70.285 108.841,68.495 105.935,68.495 C103.388,68.495 101.089,69.354 99.037,71.077 L99.037,67.604 C99.657,67.139 100.717,66.686 102.218,66.253 C103.718,65.821 105.054,65.603 106.226,65.603 C111.196,65.603 113.681,68.239 113.681,73.513 L113.681,87.27 L113.681,87.27 Z" id="Fill-17" fill="#FFFFFE"></path>
        <path d="M130.885,69.547 C130.278,69.093 129.417,68.865 128.305,68.865 C126.802,68.865 125.583,69.572 124.648,70.983 C123.709,72.395 123.243,74.23 123.243,76.487 L123.243,87.27 L119.855,87.27 L119.855,66.118 L123.243,66.118 L123.243,70.478 L123.325,70.478 C123.792,69.019 124.515,67.864 125.495,67.017 C126.47,66.169 127.592,65.747 128.86,65.747 C129.742,65.747 130.417,65.843 130.885,66.035 L130.885,69.547" id="Fill-18" fill="#FFFFFE"></path>
        <path d="M145.403,87.064 C144.591,87.519 143.529,87.745 142.221,87.745 C138.531,87.745 136.687,85.667 136.687,81.506 L136.687,68.99 L133.049,68.99 L133.049,66.118 L136.687,66.118 L136.687,60.954 L140.074,59.859 L140.074,66.118 L145.403,66.118 L145.403,68.99 L140.074,68.99 L140.074,80.929 C140.074,82.348 140.313,83.356 140.795,83.956 C141.279,84.556 142.083,84.854 143.213,84.854 C144.051,84.854 144.784,84.628 145.403,84.173 L145.403,87.064" id="Fill-19" fill="#FFFFFE"></path>
        <g id="Group-23" transform="translate(149.239000, 65.603000)">
            <mask id="mask-2" fill="white">
                <use xlink:href="#path-1"></use>
            </mask>
            <g id="Clip-21"></g>
            <path d="M17.557,21.667 L14.169,21.667 L14.169,18.322 L14.085,18.322 C12.681,20.896 10.512,22.183 7.581,22.183 C2.525,22.183 2.84217094e-14,19.174 2.84217094e-14,13.157 L2.84217094e-14,0.515 L3.387,0.515 L3.387,12.62 C3.387,17.07 5.094,19.291 8.509,19.291 C10.19,19.291 11.552,18.683 12.598,17.465 C13.648,16.246 14.169,14.657 14.169,12.702 L14.169,0.515 L17.557,0.515 L17.557,21.667" id="Fill-20" fill="#FFFFFE" mask="url(#mask-2)"></path>
            <path d="M40.192,10.41 C40.192,8.125 39.655,6.299 38.58,4.937 C37.506,3.573 36.024,2.892 34.14,2.892 C32.198,2.892 30.62,3.565 29.408,4.914 C28.197,6.265 27.591,7.987 27.591,10.081 L27.591,13.034 C27.591,14.809 28.174,16.296 29.336,17.495 C30.501,18.694 31.934,19.291 33.643,19.291 C35.682,19.291 37.281,18.509 38.446,16.937 C39.609,15.37 40.192,13.192 40.192,10.41 M43.662,10.452 C43.662,14.032 42.788,16.882 41.037,19.002 C39.29,21.124 36.95,22.183 34.015,22.183 C31.233,22.183 29.12,21 27.675,18.631 L27.591,18.631 L27.591,31.397 L24.203,31.397 L24.203,0.515 L27.591,0.515 L27.591,4.234 L27.675,4.234 C29.34,1.412 31.778,7.10542736e-15 34.987,7.10542736e-15 C37.63,7.10542736e-15 39.735,0.937 41.305,2.809 C42.878,4.682 43.662,7.229 43.662,10.452" id="Fill-22" fill="#FFFFFE" mask="url(#mask-2)"></path>
        </g>
        <path d="M209.482,81.61 C209.482,83.441 208.775,84.929 207.365,86.072 C205.953,87.217 204.077,87.786 201.737,87.786 C199.739,87.786 197.99,87.36 196.491,86.507 L196.491,82.872 C198.155,84.22 199.987,84.894 201.984,84.894 C204.668,84.894 206.011,83.91 206.011,81.942 C206.011,81.143 205.749,80.491 205.226,79.989 C204.705,79.488 203.512,78.81 201.654,77.954 C199.782,77.155 198.459,76.299 197.687,75.383 C196.915,74.467 196.532,73.252 196.532,71.738 C196.532,69.988 197.232,68.529 198.637,67.357 C200.041,66.187 201.827,65.603 203.988,65.603 C205.654,65.603 207.162,65.934 208.512,66.596 L208.512,70.002 C207.134,68.997 205.538,68.495 203.719,68.495 C202.604,68.495 201.704,68.768 201.023,69.32 C200.341,69.872 200.001,70.58 200.001,71.447 C200.001,72.385 200.262,73.103 200.785,73.606 C201.309,74.111 202.39,74.705 204.029,75.392 C206.04,76.247 207.45,77.143 208.264,78.078 C209.077,79.015 209.482,80.192 209.482,81.61" id="Fill-24" fill="#FFFFFE"></path>
    </g>
</svg>