<svg version="1.1" id="work" xmlns="http://www.w3.org/2000/svg" x="0px" y="0px"
	 viewBox="0 0 2500 2500">
<style type="text/css">
	.st0{fill:none;stroke:#1D1D1B;stroke-width:20;stroke-miterlimit:10;}
</style>
<g>
	<g>
		<polyline class="st0" points="1679.6,922.3 1671.6,1000.3 1507.5,1112.9 1419.9,1104 1365.8,980.2 1333.7,832.8 1358.3,739.8 
			1358.4,664.7 1389,574.4 1484.6,472 1618,455.2 1739.2,487.9 1798.8,570.8 1794,707.3 		"/>
		<polyline class="st0" points="1478.4,785.2 1446.5,877.9 1461.2,916.5 1502.2,909.8 		"/>
		<polyline class="st0" points="1715.7,889.8 1762.2,879.7 1799.7,773.2 1755.2,737.4 		"/>
		<polyline class="st0" points="1444.7,1135.8 1421.7,1203.9 1527.8,1239.8 1680.7,1231.7 		"/>
		<polyline class="st0" points="1171.1,1353.5 1136.8,1410.4 1152.5,1788 1117,1970.7 		"/>
		<line class="st0" x1="1386.4" y1="1212.2" x2="1272.4" y2="1271.5"/>
		<line class="st0" x1="1272.2" y1="1982.5" x2="1285.3" y2="1669.3"/>
		<line class="st0" x1="1794.9" y1="1642.4" x2="1798.3" y2="1767"/>
		<polyline class="st0" points="1445.6,1563.2 1371.5,1556 1282.4,1491.1 1278.4,1543.4 1341.9,1630.4 1448.5,1679.1 1825.6,2044.8 
			2026.5,1924.4 2016,1451.8 1926.5,1343 1724,1213.3 1712.4,1091 1740.3,928.5 		"/>
		<line class="st0" x1="1533.8" y1="1622.6" x2="1818.8" y2="1778.2"/>
		<polyline class="st0" points="1270.6,1457.5 1196.7,1310.9 1337.3,1308.1 1390.8,1429.5 1433,1532.6 		"/>
		<polyline class="st0" points="1517.5,1605.4 1479.4,1523.5 1420.3,1501.6 		"/>
		<polyline class="st0" points="1438.8,986.8 1470.7,999.7 1513.4,978.3 1533.1,943.5 1578.6,961.4 1575.1,1007.6 1527.7,1015.6 		
			"/>
		<line class="st0" x1="1442" y1="699.6" x2="1428.8" y2="737.4"/>
		<line class="st0" x1="1552.1" y1="702.6" x2="1539" y2="740.3"/>
	</g>
	<g>
		<line class="st0" x1="1139.9" y1="1111.9" x2="1139.9" y2="1155.6"/>
		<line class="st0" x1="1103.7" y1="1088.1" x2="1103.7" y2="1179.4"/>
		<line class="st0" x1="1067.4" y1="1077.3" x2="1067.4" y2="1190.2"/>
		<line class="st0" x1="1031.2" y1="1111.9" x2="1031.2" y2="1155.6"/>
		<line class="st0" x1="994.9" y1="1088.1" x2="994.9" y2="1179.4"/>
		<line class="st0" x1="958.7" y1="1111.9" x2="958.7" y2="1155.6"/>
		<line class="st0" x1="922.4" y1="1111.9" x2="922.4" y2="1155.6"/>
		<line class="st0" x1="886.1" y1="1066.8" x2="886.1" y2="1200.6"/>
		<line class="st0" x1="849.9" y1="1111.9" x2="849.9" y2="1155.6"/>
		<line class="st0" x1="813.6" y1="1077.3" x2="813.6" y2="1190.2"/>
		<line class="st0" x1="777.4" y1="1066.8" x2="777.4" y2="1200.6"/>
		<line class="st0" x1="741.1" y1="1088.1" x2="741.1" y2="1179.4"/>
		<line class="st0" x1="704.9" y1="1111.9" x2="704.9" y2="1155.6"/>
	</g>
	<g>
		<line class="st0" x1="362.3" y1="899.3" x2="362.3" y2="943.1"/>
		<line class="st0" x1="398.6" y1="864.7" x2="398.6" y2="977.7"/>
		<line class="st0" x1="434.9" y1="875.6" x2="434.9" y2="966.9"/>
		<line class="st0" x1="471.1" y1="875.6" x2="471.1" y2="966.9"/>
		<line class="st0" x1="507.4" y1="854.3" x2="507.4" y2="988.1"/>
		<line class="st0" x1="543.6" y1="899.3" x2="543.6" y2="943.1"/>
		<line class="st0" x1="579.9" y1="864.7" x2="579.9" y2="977.7"/>
		<line class="st0" x1="616.1" y1="875.6" x2="616.1" y2="966.9"/>
		<line class="st0" x1="652.4" y1="899.3" x2="652.4" y2="943.1"/>
		<line class="st0" x1="688.6" y1="875.6" x2="688.6" y2="966.9"/>
		<line class="st0" x1="724.9" y1="854.3" x2="724.9" y2="988.1"/>
		<line class="st0" x1="761.2" y1="899.3" x2="761.2" y2="943.1"/>
		<line class="st0" x1="797.4" y1="875.6" x2="797.4" y2="966.9"/>
		<line class="st0" x1="833.7" y1="864.7" x2="833.7" y2="977.7"/>
		<line class="st0" x1="869.9" y1="899.3" x2="869.9" y2="943.1"/>
		<line class="st0" x1="906.2" y1="875.6" x2="906.2" y2="966.9"/>
		<line class="st0" x1="942.4" y1="899.3" x2="942.4" y2="943.1"/>
		<line class="st0" x1="978.7" y1="899.3" x2="978.7" y2="943.1"/>
		<line class="st0" x1="1014.9" y1="854.3" x2="1014.9" y2="988.1"/>
		<line class="st0" x1="1051.2" y1="899.3" x2="1051.2" y2="943.1"/>
	</g>
</g>
</svg>
